<?xml version="1.0" encoding="utf-8" standalone="no"?>
<!DOCTYPE svg PUBLIC "-//W3C//DTD SVG 1.1//EN"
  "http://www.w3.org/Graphics/SVG/1.1/DTD/svg11.dtd">
<svg xmlns:xlink="http://www.w3.org/1999/xlink" width="576pt" height="288pt" viewBox="0 0 576 288" xmlns="http://www.w3.org/2000/svg" version="1.1">
 <metadata>
  <rdf:RDF xmlns:dc="http://purl.org/dc/elements/1.1/" xmlns:cc="http://creativecommons.org/ns#" xmlns:rdf="http://www.w3.org/1999/02/22-rdf-syntax-ns#">
   <cc:Work>
    <dc:type rdf:resource="http://purl.org/dc/dcmitype/StillImage"/>
    <dc:date>2025-05-16T18:50:46.442000</dc:date>
    <dc:format>image/svg+xml</dc:format>
    <dc:creator>
     <cc:Agent>
      <dc:title>Matplotlib v3.10.1, https://matplotlib.org/</dc:title>
     </cc:Agent>
    </dc:creator>
   </cc:Work>
  </rdf:RDF>
 </metadata>
 <defs>
  <style type="text/css">*{stroke-linejoin: round; stroke-linecap: butt}</style>
 </defs>
 <g id="figure_1">
  <g id="patch_1">
   <path d="M 0 288 
L 576 288 
L 576 0 
L 0 0 
z
" style="fill: #ffffff"/>
  </g>
  <g id="axes_1">
   <g id="patch_2">
    <path d="M 60.32 246.04 
L 565.2 246.04 
L 565.2 45.024 
L 60.32 45.024 
z
" style="fill: #ffffff"/>
   </g>
   <g id="FillBetweenPolyCollection_1">
    <defs>
     <path id="m844d9cdffd" d="M 60.32 -41.972897 
L 60.32 -41.96 
L 60.825385 -41.96 
L 61.330771 -41.96 
L 61.836156 -41.96 
L 62.341542 -41.96 
L 62.846927 -41.96 
L 63.352312 -41.96 
L 63.857698 -41.96 
L 64.363083 -41.96 
L 64.868468 -41.96 
L 65.373854 -41.96 
L 65.879239 -41.96 
L 66.384625 -41.96 
L 66.89001 -41.96 
L 67.395395 -41.96 
L 67.900781 -41.96 
L 68.406166 -41.96 
L 68.911552 -41.96 
L 69.416937 -41.96 
L 69.922322 -41.96 
L 70.427708 -41.96 
L 70.933093 -41.96 
L 71.438478 -41.96 
L 71.943864 -41.96 
L 72.449249 -41.96 
L 72.954635 -41.96 
L 73.46002 -41.96 
L 73.965405 -41.96 
L 74.470791 -41.96 
L 74.976176 -41.96 
L 75.481562 -41.96 
L 75.986947 -41.96 
L 76.492332 -41.96 
L 76.997718 -41.96 
L 77.503103 -41.96 
L 78.008488 -41.96 
L 78.513874 -41.96 
L 79.019259 -41.96 
L 79.524645 -41.96 
L 80.03003 -41.96 
L 80.535415 -41.96 
L 81.040801 -41.96 
L 81.546186 -41.96 
L 82.051572 -41.96 
L 82.556957 -41.96 
L 83.062342 -41.96 
L 83.567728 -41.96 
L 84.073113 -41.96 
L 84.578498 -41.96 
L 85.083884 -41.96 
L 85.589269 -41.96 
L 86.094655 -41.96 
L 86.60004 -41.96 
L 87.105425 -41.96 
L 87.610811 -41.96 
L 88.116196 -41.96 
L 88.621582 -41.96 
L 89.126967 -41.96 
L 89.632352 -41.96 
L 90.137738 -41.96 
L 90.643123 -41.96 
L 91.148509 -41.96 
L 91.653894 -41.96 
L 92.159279 -41.96 
L 92.664665 -41.96 
L 93.17005 -41.96 
L 93.675435 -41.96 
L 94.180821 -41.96 
L 94.686206 -41.96 
L 95.191592 -41.96 
L 95.696977 -41.96 
L 96.202362 -41.96 
L 96.707748 -41.96 
L 97.213133 -41.96 
L 97.718519 -41.96 
L 98.223904 -41.96 
L 98.729289 -41.96 
L 99.234675 -41.96 
L 99.74006 -41.96 
L 100.245445 -41.96 
L 100.750831 -41.96 
L 101.256216 -41.96 
L 101.761602 -41.96 
L 102.266987 -41.96 
L 102.772372 -41.96 
L 103.277758 -41.96 
L 103.783143 -41.96 
L 104.288529 -41.96 
L 104.793914 -41.96 
L 105.299299 -41.96 
L 105.804685 -41.96 
L 106.31007 -41.96 
L 106.815455 -41.96 
L 107.320841 -41.96 
L 107.826226 -41.96 
L 108.331612 -41.96 
L 108.836997 -41.96 
L 109.342382 -41.96 
L 109.847768 -41.96 
L 110.353153 -41.96 
L 110.858539 -41.96 
L 111.363924 -41.96 
L 111.869309 -41.96 
L 112.374695 -41.96 
L 112.88008 -41.96 
L 113.385465 -41.96 
L 113.890851 -41.96 
L 114.396236 -41.96 
L 114.901622 -41.96 
L 115.407007 -41.96 
L 115.912392 -41.96 
L 116.417778 -41.96 
L 116.923163 -41.96 
L 117.428549 -41.96 
L 117.933934 -41.96 
L 118.439319 -41.96 
L 118.944705 -41.96 
L 119.45009 -41.96 
L 119.955475 -41.96 
L 120.460861 -41.96 
L 120.966246 -41.96 
L 121.471632 -41.96 
L 121.977017 -41.96 
L 122.482402 -41.96 
L 122.987788 -41.96 
L 123.493173 -41.96 
L 123.998559 -41.96 
L 124.503944 -41.96 
L 125.009329 -41.96 
L 125.514715 -41.96 
L 126.0201 -41.96 
L 126.525485 -41.96 
L 127.030871 -41.96 
L 127.536256 -41.96 
L 128.041642 -41.96 
L 128.547027 -41.96 
L 129.052412 -41.96 
L 129.557798 -41.96 
L 130.063183 -41.96 
L 130.568569 -41.96 
L 131.073954 -41.96 
L 131.579339 -41.96 
L 132.084725 -41.96 
L 132.59011 -41.96 
L 133.095495 -41.96 
L 133.600881 -41.96 
L 134.106266 -41.96 
L 134.611652 -41.96 
L 135.117037 -41.96 
L 135.622422 -41.96 
L 136.127808 -41.96 
L 136.633193 -41.96 
L 137.138579 -41.96 
L 137.643964 -41.96 
L 138.149349 -41.96 
L 138.654735 -41.96 
L 139.16012 -41.96 
L 139.665506 -41.96 
L 140.170891 -41.96 
L 140.676276 -41.96 
L 141.181662 -41.96 
L 141.687047 -41.96 
L 142.192432 -41.96 
L 142.697818 -41.96 
L 143.203203 -41.96 
L 143.708589 -41.96 
L 144.213974 -41.96 
L 144.719359 -41.96 
L 145.224745 -41.96 
L 145.73013 -41.96 
L 146.235516 -41.96 
L 146.740901 -41.96 
L 147.246286 -41.96 
L 147.751672 -41.96 
L 148.257057 -41.96 
L 148.762442 -41.96 
L 149.267828 -41.96 
L 149.773213 -41.96 
L 150.278599 -41.96 
L 150.783984 -41.96 
L 151.289369 -41.96 
L 151.794755 -41.96 
L 152.30014 -41.96 
L 152.805526 -41.96 
L 153.310911 -41.96 
L 153.816296 -41.96 
L 154.321682 -41.96 
L 154.827067 -41.96 
L 155.332452 -41.96 
L 155.837838 -41.96 
L 156.343223 -41.96 
L 156.848609 -41.96 
L 157.353994 -41.96 
L 157.859379 -41.96 
L 158.364765 -41.96 
L 158.87015 -41.96 
L 159.375536 -41.96 
L 159.880921 -41.96 
L 160.386306 -41.96 
L 160.891692 -41.96 
L 161.397077 -41.96 
L 161.902462 -41.96 
L 162.407848 -41.96 
L 162.913233 -41.96 
L 163.418619 -41.96 
L 163.924004 -41.96 
L 164.429389 -41.96 
L 164.934775 -41.96 
L 165.44016 -41.96 
L 165.945546 -41.96 
L 166.450931 -41.96 
L 166.956316 -41.96 
L 167.461702 -41.96 
L 167.967087 -41.96 
L 168.472472 -41.96 
L 168.977858 -41.96 
L 169.483243 -41.96 
L 169.988629 -41.96 
L 170.494014 -41.96 
L 170.999399 -41.96 
L 171.504785 -41.96 
L 172.01017 -41.96 
L 172.515556 -41.96 
L 173.020941 -41.96 
L 173.526326 -41.96 
L 174.031712 -41.96 
L 174.537097 -41.96 
L 175.042482 -41.96 
L 175.547868 -41.96 
L 176.053253 -41.96 
L 176.558639 -41.96 
L 177.064024 -41.96 
L 177.569409 -41.96 
L 178.074795 -41.96 
L 178.58018 -41.96 
L 179.085566 -41.96 
L 179.590951 -41.96 
L 180.096336 -41.96 
L 180.601722 -41.96 
L 181.107107 -41.96 
L 181.612492 -41.96 
L 182.117878 -41.96 
L 182.623263 -41.96 
L 183.128649 -41.96 
L 183.634034 -41.96 
L 184.139419 -41.96 
L 184.644805 -41.96 
L 185.15019 -41.96 
L 185.655576 -41.96 
L 186.160961 -41.96 
L 186.666346 -41.96 
L 187.171732 -41.96 
L 187.677117 -41.96 
L 188.182503 -41.96 
L 188.687888 -41.96 
L 189.193273 -41.96 
L 189.698659 -41.96 
L 190.204044 -41.96 
L 190.709429 -41.96 
L 191.214815 -41.96 
L 191.7202 -41.96 
L 192.225586 -41.96 
L 192.730971 -41.96 
L 193.236356 -41.96 
L 193.741742 -41.96 
L 194.247127 -41.96 
L 194.752513 -41.96 
L 195.257898 -41.96 
L 195.763283 -41.96 
L 196.268669 -41.96 
L 196.774054 -41.96 
L 197.279439 -41.96 
L 197.784825 -41.96 
L 198.29021 -41.96 
L 198.795596 -41.96 
L 199.300981 -41.96 
L 199.806366 -41.96 
L 200.311752 -41.96 
L 200.817137 -41.96 
L 201.322523 -41.96 
L 201.827908 -41.96 
L 202.333293 -41.96 
L 202.838679 -41.96 
L 203.344064 -41.96 
L 203.849449 -41.96 
L 204.354835 -41.96 
L 204.86022 -41.96 
L 205.365606 -41.96 
L 205.870991 -41.96 
L 206.376376 -41.96 
L 206.881762 -41.96 
L 207.387147 -41.96 
L 207.892533 -41.96 
L 208.397918 -41.96 
L 208.903303 -41.96 
L 209.408689 -41.96 
L 209.914074 -41.96 
L 210.419459 -41.96 
L 210.924845 -41.96 
L 211.43023 -41.96 
L 211.935616 -41.96 
L 212.441001 -41.96 
L 212.946386 -41.96 
L 213.451772 -41.96 
L 213.957157 -41.96 
L 214.462543 -41.96 
L 214.967928 -41.96 
L 215.473313 -41.96 
L 215.978699 -41.96 
L 216.484084 -41.96 
L 216.989469 -41.96 
L 217.494855 -41.96 
L 218.00024 -41.96 
L 218.505626 -41.96 
L 219.011011 -41.96 
L 219.516396 -41.96 
L 220.021782 -41.96 
L 220.527167 -41.96 
L 221.032553 -41.96 
L 221.537938 -41.96 
L 222.043323 -41.96 
L 222.548709 -41.96 
L 223.054094 -41.96 
L 223.559479 -41.96 
L 224.064865 -41.96 
L 224.57025 -41.96 
L 225.075636 -41.96 
L 225.581021 -41.96 
L 226.086406 -41.96 
L 226.591792 -41.96 
L 227.097177 -41.96 
L 227.602563 -41.96 
L 228.107948 -41.96 
L 228.613333 -41.96 
L 229.118719 -41.96 
L 229.624104 -41.96 
L 230.129489 -41.96 
L 230.634875 -41.96 
L 231.14026 -41.96 
L 231.645646 -41.96 
L 232.151031 -41.96 
L 232.656416 -41.96 
L 233.161802 -41.96 
L 233.667187 -41.96 
L 234.172573 -41.96 
L 234.677958 -41.96 
L 235.183343 -41.96 
L 235.688729 -41.96 
L 236.194114 -41.96 
L 236.699499 -41.96 
L 237.204885 -41.96 
L 237.71027 -41.96 
L 238.215656 -41.96 
L 238.721041 -41.96 
L 239.226426 -41.96 
L 239.731812 -41.96 
L 240.237197 -41.96 
L 240.742583 -41.96 
L 241.247968 -41.96 
L 241.753353 -41.96 
L 242.258739 -41.96 
L 242.764124 -41.96 
L 243.26951 -41.96 
L 243.774895 -41.96 
L 244.28028 -41.96 
L 244.785666 -41.96 
L 245.291051 -41.96 
L 245.796436 -41.96 
L 246.301822 -41.96 
L 246.807207 -41.96 
L 247.312593 -41.96 
L 247.817978 -41.96 
L 248.323363 -41.96 
L 248.828749 -41.96 
L 249.334134 -41.96 
L 249.83952 -41.96 
L 250.344905 -41.96 
L 250.85029 -41.96 
L 251.355676 -41.96 
L 251.861061 -41.96 
L 252.366446 -41.96 
L 252.871832 -41.96 
L 253.377217 -41.96 
L 253.882603 -41.96 
L 254.387988 -41.96 
L 254.893373 -41.96 
L 255.398759 -41.96 
L 255.904144 -41.96 
L 256.40953 -41.96 
L 256.914915 -41.96 
L 257.4203 -41.96 
L 257.925686 -41.96 
L 258.431071 -41.96 
L 258.936456 -41.96 
L 259.441842 -41.96 
L 259.947227 -41.96 
L 260.452613 -41.96 
L 260.957998 -41.96 
L 261.463383 -41.96 
L 261.968769 -41.96 
L 262.474154 -41.96 
L 262.97954 -41.96 
L 263.484925 -41.96 
L 263.99031 -41.96 
L 264.495696 -41.96 
L 265.001081 -41.96 
L 265.506466 -41.96 
L 266.011852 -41.96 
L 266.517237 -41.96 
L 267.022623 -41.96 
L 267.528008 -41.96 
L 268.033393 -41.96 
L 268.538779 -41.96 
L 269.044164 -41.96 
L 269.54955 -41.96 
L 270.054935 -41.96 
L 270.56032 -41.96 
L 271.065706 -41.96 
L 271.571091 -41.96 
L 272.076476 -41.96 
L 272.581862 -41.96 
L 273.087247 -41.96 
L 273.592633 -41.96 
L 274.098018 -41.96 
L 274.603403 -41.96 
L 275.108789 -41.96 
L 275.614174 -41.96 
L 276.11956 -41.96 
L 276.624945 -41.96 
L 277.13033 -41.96 
L 277.635716 -41.96 
L 278.141101 -41.96 
L 278.646486 -41.96 
L 279.151872 -41.96 
L 279.657257 -41.96 
L 280.162643 -41.96 
L 280.668028 -41.96 
L 281.173413 -41.96 
L 281.678799 -41.96 
L 282.184184 -41.96 
L 282.68957 -41.96 
L 283.194955 -41.96 
L 283.70034 -41.96 
L 284.205726 -41.96 
L 284.711111 -41.96 
L 285.216496 -41.96 
L 285.721882 -41.96 
L 286.227267 -41.96 
L 286.732653 -41.96 
L 287.238038 -41.96 
L 287.743423 -41.96 
L 288.248809 -41.96 
L 288.754194 -41.96 
L 289.25958 -41.96 
L 289.764965 -41.96 
L 290.27035 -41.96 
L 290.775736 -41.96 
L 291.281121 -41.96 
L 291.786507 -41.96 
L 292.291892 -41.96 
L 292.797277 -41.96 
L 293.302663 -41.96 
L 293.808048 -41.96 
L 294.313433 -41.96 
L 294.818819 -41.96 
L 295.324204 -41.96 
L 295.82959 -41.96 
L 296.334975 -41.96 
L 296.84036 -41.96 
L 297.345746 -41.96 
L 297.851131 -41.96 
L 298.356517 -41.96 
L 298.861902 -41.96 
L 299.367287 -41.96 
L 299.872673 -41.96 
L 300.378058 -41.96 
L 300.883443 -41.96 
L 301.388829 -41.96 
L 301.894214 -41.96 
L 302.3996 -41.96 
L 302.904985 -41.96 
L 303.41037 -41.96 
L 303.915756 -41.96 
L 304.421141 -41.96 
L 304.926527 -41.96 
L 305.431912 -41.96 
L 305.937297 -41.96 
L 306.442683 -41.96 
L 306.948068 -41.96 
L 307.453453 -41.96 
L 307.958839 -41.96 
L 308.464224 -41.96 
L 308.96961 -41.96 
L 309.474995 -41.96 
L 309.98038 -41.96 
L 310.485766 -41.96 
L 310.991151 -41.96 
L 311.496537 -41.96 
L 312.001922 -41.96 
L 312.507307 -41.96 
L 312.507307 -67.692767 
L 312.507307 -67.692767 
L 312.001922 -67.449353 
L 311.496537 -67.207662 
L 310.991151 -66.967687 
L 310.485766 -66.729424 
L 309.98038 -66.492867 
L 309.474995 -66.258011 
L 308.96961 -66.02485 
L 308.464224 -65.793378 
L 307.958839 -65.563591 
L 307.453453 -65.335481 
L 306.948068 -65.109044 
L 306.442683 -64.884274 
L 305.937297 -64.661164 
L 305.431912 -64.439709 
L 304.926527 -64.219903 
L 304.421141 -64.001739 
L 303.915756 -63.785212 
L 303.41037 -63.570315 
L 302.904985 -63.357042 
L 302.3996 -63.145388 
L 301.894214 -62.935344 
L 301.388829 -62.726906 
L 300.883443 -62.520067 
L 300.378058 -62.31482 
L 299.872673 -62.111158 
L 299.367287 -61.909076 
L 298.861902 -61.708567 
L 298.356517 -61.509623 
L 297.851131 -61.312239 
L 297.345746 -61.116407 
L 296.84036 -60.922122 
L 296.334975 -60.729375 
L 295.82959 -60.53816 
L 295.324204 -60.348471 
L 294.818819 -60.160301 
L 294.313433 -59.973641 
L 293.808048 -59.788487 
L 293.302663 -59.60483 
L 292.797277 -59.422663 
L 292.291892 -59.24198 
L 291.786507 -59.062774 
L 291.281121 -58.885036 
L 290.775736 -58.708761 
L 290.27035 -58.533941 
L 289.764965 -58.360568 
L 289.25958 -58.188636 
L 288.754194 -58.018138 
L 288.248809 -57.849065 
L 287.743423 -57.681411 
L 287.238038 -57.515169 
L 286.732653 -57.350331 
L 286.227267 -57.18689 
L 285.721882 -57.024838 
L 285.216496 -56.864168 
L 284.711111 -56.704873 
L 284.205726 -56.546945 
L 283.70034 -56.390377 
L 283.194955 -56.235161 
L 282.68957 -56.08129 
L 282.184184 -55.928757 
L 281.678799 -55.777554 
L 281.173413 -55.627673 
L 280.668028 -55.479107 
L 280.162643 -55.331849 
L 279.657257 -55.185891 
L 279.151872 -55.041226 
L 278.646486 -54.897845 
L 278.141101 -54.755742 
L 277.635716 -54.614909 
L 277.13033 -54.475338 
L 276.624945 -54.337022 
L 276.11956 -54.199953 
L 275.614174 -54.064124 
L 275.108789 -53.929527 
L 274.603403 -53.796155 
L 274.098018 -53.664 
L 273.592633 -53.533055 
L 273.087247 -53.403311 
L 272.581862 -53.274762 
L 272.076476 -53.1474 
L 271.571091 -53.021218 
L 271.065706 -52.896207 
L 270.56032 -52.77236 
L 270.054935 -52.649671 
L 269.54955 -52.52813 
L 269.044164 -52.407732 
L 268.538779 -52.288467 
L 268.033393 -52.17033 
L 267.528008 -52.053311 
L 267.022623 -51.937405 
L 266.517237 -51.822602 
L 266.011852 -51.708897 
L 265.506466 -51.596281 
L 265.001081 -51.484747 
L 264.495696 -51.374287 
L 263.99031 -51.264895 
L 263.484925 -51.156563 
L 262.97954 -51.049282 
L 262.474154 -50.943047 
L 261.968769 -50.837849 
L 261.463383 -50.733682 
L 260.957998 -50.630538 
L 260.452613 -50.528409 
L 259.947227 -50.427288 
L 259.441842 -50.327169 
L 258.936456 -50.228043 
L 258.431071 -50.129904 
L 257.925686 -50.032745 
L 257.4203 -49.936557 
L 256.914915 -49.841334 
L 256.40953 -49.74707 
L 255.904144 -49.653755 
L 255.398759 -49.561385 
L 254.893373 -49.46995 
L 254.387988 -49.379445 
L 253.882603 -49.289862 
L 253.377217 -49.201195 
L 252.871832 -49.113435 
L 252.366446 -49.026577 
L 251.861061 -48.940613 
L 251.355676 -48.855536 
L 250.85029 -48.771339 
L 250.344905 -48.688016 
L 249.83952 -48.605559 
L 249.334134 -48.523963 
L 248.828749 -48.443219 
L 248.323363 -48.363321 
L 247.817978 -48.284262 
L 247.312593 -48.206036 
L 246.807207 -48.128635 
L 246.301822 -48.052054 
L 245.796436 -47.976285 
L 245.291051 -47.901322 
L 244.785666 -47.827159 
L 244.28028 -47.753787 
L 243.774895 -47.681202 
L 243.26951 -47.609397 
L 242.764124 -47.538364 
L 242.258739 -47.468098 
L 241.753353 -47.398592 
L 241.247968 -47.329839 
L 240.742583 -47.261834 
L 240.237197 -47.19457 
L 239.731812 -47.128041 
L 239.226426 -47.062239 
L 238.721041 -46.99716 
L 238.215656 -46.932796 
L 237.71027 -46.869143 
L 237.204885 -46.806192 
L 236.699499 -46.743939 
L 236.194114 -46.682377 
L 235.688729 -46.6215 
L 235.183343 -46.561302 
L 234.677958 -46.501777 
L 234.172573 -46.442919 
L 233.667187 -46.384722 
L 233.161802 -46.32718 
L 232.656416 -46.270287 
L 232.151031 -46.214038 
L 231.645646 -46.158427 
L 231.14026 -46.103447 
L 230.634875 -46.049093 
L 230.129489 -45.995359 
L 229.624104 -45.94224 
L 229.118719 -45.88973 
L 228.613333 -45.837823 
L 228.107948 -45.786514 
L 227.602563 -45.735797 
L 227.097177 -45.685666 
L 226.591792 -45.636117 
L 226.086406 -45.587143 
L 225.581021 -45.538739 
L 225.075636 -45.4909 
L 224.57025 -45.443621 
L 224.064865 -45.396896 
L 223.559479 -45.350719 
L 223.054094 -45.305086 
L 222.548709 -45.259991 
L 222.043323 -45.215429 
L 221.537938 -45.171396 
L 221.032553 -45.127885 
L 220.527167 -45.084892 
L 220.021782 -45.042411 
L 219.516396 -45.000438 
L 219.011011 -44.958968 
L 218.505626 -44.917995 
L 218.00024 -44.877515 
L 217.494855 -44.837523 
L 216.989469 -44.798013 
L 216.484084 -44.758982 
L 215.978699 -44.720425 
L 215.473313 -44.682335 
L 214.967928 -44.64471 
L 214.462543 -44.607544 
L 213.957157 -44.570832 
L 213.451772 -44.534571 
L 212.946386 -44.498754 
L 212.441001 -44.463378 
L 211.935616 -44.428439 
L 211.43023 -44.393931 
L 210.924845 -44.35985 
L 210.419459 -44.326193 
L 209.914074 -44.292953 
L 209.408689 -44.260128 
L 208.903303 -44.227712 
L 208.397918 -44.195702 
L 207.892533 -44.164093 
L 207.387147 -44.132881 
L 206.881762 -44.102062 
L 206.376376 -44.071632 
L 205.870991 -44.041585 
L 205.365606 -44.01192 
L 204.86022 -43.98263 
L 204.354835 -43.953713 
L 203.849449 -43.925164 
L 203.344064 -43.896979 
L 202.838679 -43.869155 
L 202.333293 -43.841687 
L 201.827908 -43.814572 
L 201.322523 -43.787805 
L 200.817137 -43.761383 
L 200.311752 -43.735303 
L 199.806366 -43.709559 
L 199.300981 -43.68415 
L 198.795596 -43.65907 
L 198.29021 -43.634317 
L 197.784825 -43.609887 
L 197.279439 -43.585775 
L 196.774054 -43.561979 
L 196.268669 -43.538495 
L 195.763283 -43.51532 
L 195.257898 -43.49245 
L 194.752513 -43.469881 
L 194.247127 -43.447611 
L 193.741742 -43.425635 
L 193.236356 -43.40395 
L 192.730971 -43.382554 
L 192.225586 -43.361443 
L 191.7202 -43.340613 
L 191.214815 -43.320062 
L 190.709429 -43.299785 
L 190.204044 -43.279781 
L 189.698659 -43.260046 
L 189.193273 -43.240576 
L 188.687888 -43.221368 
L 188.182503 -43.202421 
L 187.677117 -43.183729 
L 187.171732 -43.165292 
L 186.666346 -43.147104 
L 186.160961 -43.129165 
L 185.655576 -43.11147 
L 185.15019 -43.094016 
L 184.644805 -43.076802 
L 184.139419 -43.059824 
L 183.634034 -43.043078 
L 183.128649 -43.026564 
L 182.623263 -43.010277 
L 182.117878 -42.994215 
L 181.612492 -42.978375 
L 181.107107 -42.962754 
L 180.601722 -42.947351 
L 180.096336 -42.932162 
L 179.590951 -42.917184 
L 179.085566 -42.902416 
L 178.58018 -42.887854 
L 178.074795 -42.873496 
L 177.569409 -42.85934 
L 177.064024 -42.845383 
L 176.558639 -42.831622 
L 176.053253 -42.818055 
L 175.547868 -42.80468 
L 175.042482 -42.791495 
L 174.537097 -42.778496 
L 174.031712 -42.765683 
L 173.526326 -42.753051 
L 173.020941 -42.7406 
L 172.515556 -42.728326 
L 172.01017 -42.716228 
L 171.504785 -42.704304 
L 170.999399 -42.692551 
L 170.494014 -42.680966 
L 169.988629 -42.669549 
L 169.483243 -42.658296 
L 168.977858 -42.647206 
L 168.472472 -42.636277 
L 167.967087 -42.625506 
L 167.461702 -42.614892 
L 166.956316 -42.604432 
L 166.450931 -42.594124 
L 165.945546 -42.583967 
L 165.44016 -42.573959 
L 164.934775 -42.564097 
L 164.429389 -42.55438 
L 163.924004 -42.544806 
L 163.418619 -42.535373 
L 162.913233 -42.526079 
L 162.407848 -42.516923 
L 161.902462 -42.507902 
L 161.397077 -42.499014 
L 160.891692 -42.490259 
L 160.386306 -42.481634 
L 159.880921 -42.473137 
L 159.375536 -42.464767 
L 158.87015 -42.456522 
L 158.364765 -42.448401 
L 157.859379 -42.440402 
L 157.353994 -42.432522 
L 156.848609 -42.424761 
L 156.343223 -42.417118 
L 155.837838 -42.409589 
L 155.332452 -42.402174 
L 154.827067 -42.394872 
L 154.321682 -42.387681 
L 153.816296 -42.380598 
L 153.310911 -42.373624 
L 152.805526 -42.366755 
L 152.30014 -42.359992 
L 151.794755 -42.353332 
L 151.289369 -42.346774 
L 150.783984 -42.340317 
L 150.278599 -42.333959 
L 149.773213 -42.327698 
L 149.267828 -42.321534 
L 148.762442 -42.315466 
L 148.257057 -42.309491 
L 147.751672 -42.303609 
L 147.246286 -42.297818 
L 146.740901 -42.292116 
L 146.235516 -42.286504 
L 145.73013 -42.280979 
L 145.224745 -42.27554 
L 144.719359 -42.270187 
L 144.213974 -42.264917 
L 143.708589 -42.25973 
L 143.203203 -42.254624 
L 142.697818 -42.249599 
L 142.192432 -42.244652 
L 141.687047 -42.239784 
L 141.181662 -42.234993 
L 140.676276 -42.230278 
L 140.170891 -42.225637 
L 139.665506 -42.22107 
L 139.16012 -42.216576 
L 138.654735 -42.212153 
L 138.149349 -42.207801 
L 137.643964 -42.203518 
L 137.138579 -42.199304 
L 136.633193 -42.195157 
L 136.127808 -42.191077 
L 135.622422 -42.187062 
L 135.117037 -42.183112 
L 134.611652 -42.179226 
L 134.106266 -42.175403 
L 133.600881 -42.171641 
L 133.095495 -42.16794 
L 132.59011 -42.164299 
L 132.084725 -42.160718 
L 131.579339 -42.157194 
L 131.073954 -42.153728 
L 130.568569 -42.150319 
L 130.063183 -42.146965 
L 129.557798 -42.143666 
L 129.052412 -42.140421 
L 128.547027 -42.13723 
L 128.041642 -42.134091 
L 127.536256 -42.131003 
L 127.030871 -42.127967 
L 126.525485 -42.12498 
L 126.0201 -42.122043 
L 125.514715 -42.119155 
L 125.009329 -42.116315 
L 124.503944 -42.113521 
L 123.998559 -42.110774 
L 123.493173 -42.108073 
L 122.987788 -42.105417 
L 122.482402 -42.102805 
L 121.977017 -42.100237 
L 121.471632 -42.097712 
L 120.966246 -42.09523 
L 120.460861 -42.092789 
L 119.955475 -42.090389 
L 119.45009 -42.088029 
L 118.944705 -42.08571 
L 118.439319 -42.083429 
L 117.933934 -42.081187 
L 117.428549 -42.078983 
L 116.923163 -42.076817 
L 116.417778 -42.074687 
L 115.912392 -42.072594 
L 115.407007 -42.070536 
L 114.901622 -42.068513 
L 114.396236 -42.066525 
L 113.890851 -42.064571 
L 113.385465 -42.06265 
L 112.88008 -42.060763 
L 112.374695 -42.058907 
L 111.869309 -42.057084 
L 111.363924 -42.055292 
L 110.858539 -42.053531 
L 110.353153 -42.051801 
L 109.847768 -42.0501 
L 109.342382 -42.048429 
L 108.836997 -42.046787 
L 108.331612 -42.045174 
L 107.826226 -42.043588 
L 107.320841 -42.04203 
L 106.815455 -42.0405 
L 106.31007 -42.038996 
L 105.804685 -42.037518 
L 105.299299 -42.036066 
L 104.793914 -42.03464 
L 104.288529 -42.033239 
L 103.783143 -42.031862 
L 103.277758 -42.03051 
L 102.772372 -42.029182 
L 102.266987 -42.027877 
L 101.761602 -42.026595 
L 101.256216 -42.025336 
L 100.750831 -42.024099 
L 100.245445 -42.022884 
L 99.74006 -42.021691 
L 99.234675 -42.020519 
L 98.729289 -42.019368 
L 98.223904 -42.018237 
L 97.718519 -42.017127 
L 97.213133 -42.016036 
L 96.707748 -42.014965 
L 96.202362 -42.013914 
L 95.696977 -42.012881 
L 95.191592 -42.011867 
L 94.686206 -42.010871 
L 94.180821 -42.009893 
L 93.675435 -42.008933 
L 93.17005 -42.00799 
L 92.664665 -42.007064 
L 92.159279 -42.006155 
L 91.653894 -42.005263 
L 91.148509 -42.004386 
L 90.643123 -42.003526 
L 90.137738 -42.002682 
L 89.632352 -42.001852 
L 89.126967 -42.001038 
L 88.621582 -42.000239 
L 88.116196 -41.999455 
L 87.610811 -41.998685 
L 87.105425 -41.997929 
L 86.60004 -41.997187 
L 86.094655 -41.996459 
L 85.589269 -41.995744 
L 85.083884 -41.995042 
L 84.578498 -41.994354 
L 84.073113 -41.993678 
L 83.567728 -41.993014 
L 83.062342 -41.992363 
L 82.556957 -41.991725 
L 82.051572 -41.991098 
L 81.546186 -41.990482 
L 81.040801 -41.989878 
L 80.535415 -41.989286 
L 80.03003 -41.988704 
L 79.524645 -41.988134 
L 79.019259 -41.987574 
L 78.513874 -41.987025 
L 78.008488 -41.986486 
L 77.503103 -41.985957 
L 76.997718 -41.985438 
L 76.492332 -41.984929 
L 75.986947 -41.984429 
L 75.481562 -41.983939 
L 74.976176 -41.983459 
L 74.470791 -41.982987 
L 73.965405 -41.982525 
L 73.46002 -41.982071 
L 72.954635 -41.981626 
L 72.449249 -41.981189 
L 71.943864 -41.980761 
L 71.438478 -41.98034 
L 70.933093 -41.979928 
L 70.427708 -41.979524 
L 69.922322 -41.979128 
L 69.416937 -41.978739 
L 68.911552 -41.978358 
L 68.406166 -41.977984 
L 67.900781 -41.977617 
L 67.395395 -41.977257 
L 66.89001 -41.976904 
L 66.384625 -41.976558 
L 65.879239 -41.976219 
L 65.373854 -41.975887 
L 64.868468 -41.97556 
L 64.363083 -41.975241 
L 63.857698 -41.974927 
L 63.352312 -41.97462 
L 62.846927 -41.974318 
L 62.341542 -41.974023 
L 61.836156 -41.973733 
L 61.330771 -41.973449 
L 60.825385 -41.97317 
L 60.32 -41.972897 
z
" style="stroke: #ffcccc"/>
    </defs>
    <g clip-path="url(#p51d4199ca1)">
     <use xlink:href="#m844d9cdffd" x="0" y="288" style="fill: #ffcccc; stroke: #ffcccc"/>
    </g>
   </g>
   <g id="FillBetweenPolyCollection_2">
    <defs>
     <path id="mcdc5bfd4c6" d="M 313.012693 -67.937909 
L 313.012693 -41.96 
L 313.518078 -41.96 
L 314.023463 -41.96 
L 314.528849 -41.96 
L 315.034234 -41.96 
L 315.53962 -41.96 
L 316.045005 -41.96 
L 316.55039 -41.96 
L 317.055776 -41.96 
L 317.561161 -41.96 
L 318.066547 -41.96 
L 318.571932 -41.96 
L 319.077317 -41.96 
L 319.582703 -41.96 
L 320.088088 -41.96 
L 320.593473 -41.96 
L 321.098859 -41.96 
L 321.604244 -41.96 
L 322.10963 -41.96 
L 322.615015 -41.96 
L 323.1204 -41.96 
L 323.625786 -41.96 
L 324.131171 -41.96 
L 324.636557 -41.96 
L 325.141942 -41.96 
L 325.647327 -41.96 
L 326.152713 -41.96 
L 326.658098 -41.96 
L 327.163483 -41.96 
L 327.668869 -41.96 
L 328.174254 -41.96 
L 328.67964 -41.96 
L 329.185025 -41.96 
L 329.69041 -41.96 
L 330.195796 -41.96 
L 330.701181 -41.96 
L 331.206567 -41.96 
L 331.711952 -41.96 
L 332.217337 -41.96 
L 332.722723 -41.96 
L 333.228108 -41.96 
L 333.733493 -41.96 
L 334.238879 -41.96 
L 334.744264 -41.96 
L 335.24965 -41.96 
L 335.755035 -41.96 
L 336.26042 -41.96 
L 336.765806 -41.96 
L 337.271191 -41.96 
L 337.776577 -41.96 
L 338.281962 -41.96 
L 338.787347 -41.96 
L 339.292733 -41.96 
L 339.798118 -41.96 
L 340.303504 -41.96 
L 340.808889 -41.96 
L 341.314274 -41.96 
L 341.81966 -41.96 
L 342.325045 -41.96 
L 342.83043 -41.96 
L 343.335816 -41.96 
L 343.841201 -41.96 
L 344.346587 -41.96 
L 344.851972 -41.96 
L 345.357357 -41.96 
L 345.862743 -41.96 
L 346.368128 -41.96 
L 346.873514 -41.96 
L 347.378899 -41.96 
L 347.884284 -41.96 
L 348.38967 -41.96 
L 348.895055 -41.96 
L 349.40044 -41.96 
L 349.905826 -41.96 
L 350.411211 -41.96 
L 350.916597 -41.96 
L 351.421982 -41.96 
L 351.927367 -41.96 
L 352.432753 -41.96 
L 352.938138 -41.96 
L 353.443524 -41.96 
L 353.948909 -41.96 
L 354.454294 -41.96 
L 354.95968 -41.96 
L 355.465065 -41.96 
L 355.97045 -41.96 
L 356.475836 -41.96 
L 356.981221 -41.96 
L 357.486607 -41.96 
L 357.991992 -41.96 
L 358.497377 -41.96 
L 359.002763 -41.96 
L 359.508148 -41.96 
L 360.013534 -41.96 
L 360.518919 -41.96 
L 361.024304 -41.96 
L 361.52969 -41.96 
L 362.035075 -41.96 
L 362.54046 -41.96 
L 363.045846 -41.96 
L 363.551231 -41.96 
L 364.056617 -41.96 
L 364.562002 -41.96 
L 365.067387 -41.96 
L 365.572773 -41.96 
L 366.078158 -41.96 
L 366.583544 -41.96 
L 367.088929 -41.96 
L 367.594314 -41.96 
L 368.0997 -41.96 
L 368.605085 -41.96 
L 369.11047 -41.96 
L 369.615856 -41.96 
L 370.121241 -41.96 
L 370.626627 -41.96 
L 371.132012 -41.96 
L 371.637397 -41.96 
L 372.142783 -41.96 
L 372.648168 -41.96 
L 373.153554 -41.96 
L 373.658939 -41.96 
L 374.164324 -41.96 
L 374.66971 -41.96 
L 375.175095 -41.96 
L 375.68048 -41.96 
L 376.185866 -41.96 
L 376.691251 -41.96 
L 377.196637 -41.96 
L 377.702022 -41.96 
L 378.207407 -41.96 
L 378.712793 -41.96 
L 379.218178 -41.96 
L 379.723564 -41.96 
L 380.228949 -41.96 
L 380.734334 -41.96 
L 381.23972 -41.96 
L 381.745105 -41.96 
L 382.25049 -41.96 
L 382.755876 -41.96 
L 383.261261 -41.96 
L 383.766647 -41.96 
L 384.272032 -41.96 
L 384.777417 -41.96 
L 385.282803 -41.96 
L 385.788188 -41.96 
L 386.293574 -41.96 
L 386.798959 -41.96 
L 387.304344 -41.96 
L 387.80973 -41.96 
L 388.315115 -41.96 
L 388.820501 -41.96 
L 389.325886 -41.96 
L 389.831271 -41.96 
L 390.336657 -41.96 
L 390.842042 -41.96 
L 391.347427 -41.96 
L 391.852813 -41.96 
L 392.358198 -41.96 
L 392.863584 -41.96 
L 393.368969 -41.96 
L 393.874354 -41.96 
L 394.37974 -41.96 
L 394.885125 -41.96 
L 395.390511 -41.96 
L 395.895896 -41.96 
L 396.401281 -41.96 
L 396.906667 -41.96 
L 397.412052 -41.96 
L 397.917437 -41.96 
L 398.422823 -41.96 
L 398.928208 -41.96 
L 399.433594 -41.96 
L 399.938979 -41.96 
L 400.444364 -41.96 
L 400.94975 -41.96 
L 401.455135 -41.96 
L 401.960521 -41.96 
L 402.465906 -41.96 
L 402.971291 -41.96 
L 403.476677 -41.96 
L 403.982062 -41.96 
L 404.487447 -41.96 
L 404.992833 -41.96 
L 405.498218 -41.96 
L 406.003604 -41.96 
L 406.508989 -41.96 
L 407.014374 -41.96 
L 407.51976 -41.96 
L 408.025145 -41.96 
L 408.530531 -41.96 
L 409.035916 -41.96 
L 409.541301 -41.96 
L 410.046687 -41.96 
L 410.552072 -41.96 
L 411.057457 -41.96 
L 411.562843 -41.96 
L 412.068228 -41.96 
L 412.573614 -41.96 
L 413.078999 -41.96 
L 413.584384 -41.96 
L 414.08977 -41.96 
L 414.595155 -41.96 
L 415.100541 -41.96 
L 415.605926 -41.96 
L 416.111311 -41.96 
L 416.616697 -41.96 
L 417.122082 -41.96 
L 417.627467 -41.96 
L 418.132853 -41.96 
L 418.638238 -41.96 
L 419.143624 -41.96 
L 419.649009 -41.96 
L 420.154394 -41.96 
L 420.65978 -41.96 
L 421.165165 -41.96 
L 421.670551 -41.96 
L 422.175936 -41.96 
L 422.681321 -41.96 
L 423.186707 -41.96 
L 423.692092 -41.96 
L 424.197477 -41.96 
L 424.702863 -41.96 
L 425.208248 -41.96 
L 425.713634 -41.96 
L 426.219019 -41.96 
L 426.724404 -41.96 
L 427.22979 -41.96 
L 427.735175 -41.96 
L 428.240561 -41.96 
L 428.745946 -41.96 
L 429.251331 -41.96 
L 429.756717 -41.96 
L 430.262102 -41.96 
L 430.767487 -41.96 
L 431.272873 -41.96 
L 431.778258 -41.96 
L 432.283644 -41.96 
L 432.789029 -41.96 
L 433.294414 -41.96 
L 433.7998 -41.96 
L 434.305185 -41.96 
L 434.810571 -41.96 
L 435.315956 -41.96 
L 435.821341 -41.96 
L 436.326727 -41.96 
L 436.832112 -41.96 
L 437.337497 -41.96 
L 437.842883 -41.96 
L 438.348268 -41.96 
L 438.853654 -41.96 
L 439.359039 -41.96 
L 439.864424 -41.96 
L 440.36981 -41.96 
L 440.875195 -41.96 
L 441.380581 -41.96 
L 441.885966 -41.96 
L 442.391351 -41.96 
L 442.896737 -41.96 
L 443.402122 -41.96 
L 443.907508 -41.96 
L 444.412893 -41.96 
L 444.918278 -41.96 
L 445.423664 -41.96 
L 445.929049 -41.96 
L 446.434434 -41.96 
L 446.93982 -41.96 
L 447.445205 -41.96 
L 447.950591 -41.96 
L 448.455976 -41.96 
L 448.961361 -41.96 
L 449.466747 -41.96 
L 449.972132 -41.96 
L 450.477518 -41.96 
L 450.982903 -41.96 
L 451.488288 -41.96 
L 451.993674 -41.96 
L 452.499059 -41.96 
L 453.004444 -41.96 
L 453.50983 -41.96 
L 454.015215 -41.96 
L 454.520601 -41.96 
L 455.025986 -41.96 
L 455.531371 -41.96 
L 456.036757 -41.96 
L 456.542142 -41.96 
L 457.047528 -41.96 
L 457.552913 -41.96 
L 458.058298 -41.96 
L 458.563684 -41.96 
L 459.069069 -41.96 
L 459.574454 -41.96 
L 460.07984 -41.96 
L 460.585225 -41.96 
L 461.090611 -41.96 
L 461.595996 -41.96 
L 462.101381 -41.96 
L 462.606767 -41.96 
L 463.112152 -41.96 
L 463.617538 -41.96 
L 464.122923 -41.96 
L 464.628308 -41.96 
L 465.133694 -41.96 
L 465.639079 -41.96 
L 466.144464 -41.96 
L 466.64985 -41.96 
L 467.155235 -41.96 
L 467.660621 -41.96 
L 468.166006 -41.96 
L 468.671391 -41.96 
L 469.176777 -41.96 
L 469.682162 -41.96 
L 470.187548 -41.96 
L 470.692933 -41.96 
L 471.198318 -41.96 
L 471.703704 -41.96 
L 472.209089 -41.96 
L 472.714474 -41.96 
L 473.21986 -41.96 
L 473.725245 -41.96 
L 474.230631 -41.96 
L 474.736016 -41.96 
L 475.241401 -41.96 
L 475.746787 -41.96 
L 476.252172 -41.96 
L 476.757558 -41.96 
L 477.262943 -41.96 
L 477.768328 -41.96 
L 478.273714 -41.96 
L 478.779099 -41.96 
L 479.284484 -41.96 
L 479.78987 -41.96 
L 480.295255 -41.96 
L 480.800641 -41.96 
L 481.306026 -41.96 
L 481.811411 -41.96 
L 482.316797 -41.96 
L 482.822182 -41.96 
L 483.327568 -41.96 
L 483.832953 -41.96 
L 484.338338 -41.96 
L 484.843724 -41.96 
L 485.349109 -41.96 
L 485.854494 -41.96 
L 486.35988 -41.96 
L 486.865265 -41.96 
L 487.370651 -41.96 
L 487.876036 -41.96 
L 488.381421 -41.96 
L 488.886807 -41.96 
L 489.392192 -41.96 
L 489.897578 -41.96 
L 490.402963 -41.96 
L 490.908348 -41.96 
L 491.413734 -41.96 
L 491.919119 -41.96 
L 492.424505 -41.96 
L 492.92989 -41.96 
L 493.435275 -41.96 
L 493.940661 -41.96 
L 494.446046 -41.96 
L 494.951431 -41.96 
L 495.456817 -41.96 
L 495.962202 -41.96 
L 496.467588 -41.96 
L 496.972973 -41.96 
L 497.478358 -41.96 
L 497.983744 -41.96 
L 498.489129 -41.96 
L 498.994515 -41.96 
L 499.4999 -41.96 
L 500.005285 -41.96 
L 500.510671 -41.96 
L 501.016056 -41.96 
L 501.521441 -41.96 
L 502.026827 -41.96 
L 502.532212 -41.96 
L 503.037598 -41.96 
L 503.542983 -41.96 
L 504.048368 -41.96 
L 504.553754 -41.96 
L 505.059139 -41.96 
L 505.564525 -41.96 
L 506.06991 -41.96 
L 506.575295 -41.96 
L 507.080681 -41.96 
L 507.586066 -41.96 
L 508.091451 -41.96 
L 508.596837 -41.96 
L 509.102222 -41.96 
L 509.607608 -41.96 
L 510.112993 -41.96 
L 510.618378 -41.96 
L 511.123764 -41.96 
L 511.629149 -41.96 
L 512.134535 -41.96 
L 512.63992 -41.96 
L 513.145305 -41.96 
L 513.650691 -41.96 
L 514.156076 -41.96 
L 514.661461 -41.96 
L 515.166847 -41.96 
L 515.672232 -41.96 
L 516.177618 -41.96 
L 516.683003 -41.96 
L 517.188388 -41.96 
L 517.693774 -41.96 
L 518.199159 -41.96 
L 518.704545 -41.96 
L 519.20993 -41.96 
L 519.715315 -41.96 
L 520.220701 -41.96 
L 520.726086 -41.96 
L 521.231471 -41.96 
L 521.736857 -41.96 
L 522.242242 -41.96 
L 522.747628 -41.96 
L 523.253013 -41.96 
L 523.758398 -41.96 
L 524.263784 -41.96 
L 524.769169 -41.96 
L 525.274555 -41.96 
L 525.77994 -41.96 
L 526.285325 -41.96 
L 526.790711 -41.96 
L 527.296096 -41.96 
L 527.801481 -41.96 
L 528.306867 -41.96 
L 528.812252 -41.96 
L 529.317638 -41.96 
L 529.823023 -41.96 
L 530.328408 -41.96 
L 530.833794 -41.96 
L 531.339179 -41.96 
L 531.844565 -41.96 
L 532.34995 -41.96 
L 532.855335 -41.96 
L 533.360721 -41.96 
L 533.866106 -41.96 
L 534.371491 -41.96 
L 534.876877 -41.96 
L 535.382262 -41.96 
L 535.887648 -41.96 
L 536.393033 -41.96 
L 536.898418 -41.96 
L 537.403804 -41.96 
L 537.909189 -41.96 
L 538.414575 -41.96 
L 538.91996 -41.96 
L 539.425345 -41.96 
L 539.930731 -41.96 
L 540.436116 -41.96 
L 540.941502 -41.96 
L 541.446887 -41.96 
L 541.952272 -41.96 
L 542.457658 -41.96 
L 542.963043 -41.96 
L 543.468428 -41.96 
L 543.973814 -41.96 
L 544.479199 -41.96 
L 544.984585 -41.96 
L 545.48997 -41.96 
L 545.995355 -41.96 
L 546.500741 -41.96 
L 547.006126 -41.96 
L 547.511512 -41.96 
L 548.016897 -41.96 
L 548.522282 -41.96 
L 549.027668 -41.96 
L 549.533053 -41.96 
L 550.038438 -41.96 
L 550.543824 -41.96 
L 551.049209 -41.96 
L 551.554595 -41.96 
L 552.05998 -41.96 
L 552.565365 -41.96 
L 553.070751 -41.96 
L 553.576136 -41.96 
L 554.081522 -41.96 
L 554.586907 -41.96 
L 555.092292 -41.96 
L 555.597678 -41.96 
L 556.103063 -41.96 
L 556.608448 -41.96 
L 557.113834 -41.96 
L 557.619219 -41.96 
L 558.124605 -41.96 
L 558.62999 -41.96 
L 559.135375 -41.96 
L 559.640761 -41.96 
L 560.146146 -41.96 
L 560.651532 -41.96 
L 561.156917 -41.96 
L 561.662302 -41.96 
L 562.167688 -41.96 
L 562.673073 -41.96 
L 563.178458 -41.96 
L 563.683844 -41.96 
L 564.189229 -41.96 
L 564.694615 -41.96 
L 565.2 -41.96 
L 565.2 -209.480545 
L 565.2 -209.480545 
L 564.694615 -209.813903 
L 564.189229 -210.144058 
L 563.683844 -210.47099 
L 563.178458 -210.794676 
L 562.673073 -211.115096 
L 562.167688 -211.432229 
L 561.662302 -211.746054 
L 561.156917 -212.05655 
L 560.651532 -212.363698 
L 560.146146 -212.667477 
L 559.640761 -212.967866 
L 559.135375 -213.264847 
L 558.62999 -213.558399 
L 558.124605 -213.848503 
L 557.619219 -214.135141 
L 557.113834 -214.418292 
L 556.608448 -214.697939 
L 556.103063 -214.974063 
L 555.597678 -215.246645 
L 555.092292 -215.515667 
L 554.586907 -215.781112 
L 554.081522 -216.042961 
L 553.576136 -216.301198 
L 553.070751 -216.555804 
L 552.565365 -216.806764 
L 552.05998 -217.05406 
L 551.554595 -217.297675 
L 551.049209 -217.537594 
L 550.543824 -217.7738 
L 550.038438 -218.006278 
L 549.533053 -218.235011 
L 549.027668 -218.459985 
L 548.522282 -218.681183 
L 548.016897 -218.898593 
L 547.511512 -219.112197 
L 547.006126 -219.321983 
L 546.500741 -219.527936 
L 545.995355 -219.730043 
L 545.48997 -219.928288 
L 544.984585 -220.12266 
L 544.479199 -220.313144 
L 543.973814 -220.499729 
L 543.468428 -220.682401 
L 542.963043 -220.861147 
L 542.457658 -221.035957 
L 541.952272 -221.206817 
L 541.446887 -221.373716 
L 540.941502 -221.536644 
L 540.436116 -221.695588 
L 539.930731 -221.850538 
L 539.425345 -222.001483 
L 538.91996 -222.148414 
L 538.414575 -222.291319 
L 537.909189 -222.43019 
L 537.403804 -222.565016 
L 536.898418 -222.695789 
L 536.393033 -222.8225 
L 535.887648 -222.945139 
L 535.382262 -223.063699 
L 534.876877 -223.178172 
L 534.371491 -223.288549 
L 533.866106 -223.394823 
L 533.360721 -223.496986 
L 532.855335 -223.595033 
L 532.34995 -223.688955 
L 531.844565 -223.778747 
L 531.339179 -223.864402 
L 530.833794 -223.945914 
L 530.328408 -224.023278 
L 529.823023 -224.096489 
L 529.317638 -224.165542 
L 528.812252 -224.230431 
L 528.306867 -224.291152 
L 527.801481 -224.347701 
L 527.296096 -224.400075 
L 526.790711 -224.448269 
L 526.285325 -224.49228 
L 525.77994 -224.532106 
L 525.274555 -224.567743 
L 524.769169 -224.599189 
L 524.263784 -224.626442 
L 523.758398 -224.6495 
L 523.253013 -224.668361 
L 522.747628 -224.683024 
L 522.242242 -224.693489 
L 521.736857 -224.699753 
L 521.231471 -224.701818 
L 520.726086 -224.699683 
L 520.220701 -224.693347 
L 519.715315 -224.682812 
L 519.20993 -224.668078 
L 518.704545 -224.649146 
L 518.199159 -224.626017 
L 517.693774 -224.598694 
L 517.188388 -224.567177 
L 516.683003 -224.531469 
L 516.177618 -224.491573 
L 515.672232 -224.447491 
L 515.166847 -224.399227 
L 514.661461 -224.346783 
L 514.156076 -224.290163 
L 513.650691 -224.229371 
L 513.145305 -224.164412 
L 512.63992 -224.09529 
L 512.134535 -224.022009 
L 511.629149 -223.944575 
L 511.123764 -223.862992 
L 510.618378 -223.777267 
L 510.112993 -223.687406 
L 509.607608 -223.593414 
L 509.102222 -223.495299 
L 508.596837 -223.393066 
L 508.091451 -223.286722 
L 507.586066 -223.176276 
L 507.080681 -223.061735 
L 506.575295 -222.943106 
L 506.06991 -222.820398 
L 505.564525 -222.693619 
L 505.059139 -222.562777 
L 504.553754 -222.427883 
L 504.048368 -222.288944 
L 503.542983 -222.145971 
L 503.037598 -221.998972 
L 502.532212 -221.847959 
L 502.026827 -221.692942 
L 501.521441 -221.533931 
L 501.016056 -221.370936 
L 500.510671 -221.20397 
L 500.005285 -221.033043 
L 499.4999 -220.858167 
L 498.994515 -220.679354 
L 498.489129 -220.496617 
L 497.983744 -220.309966 
L 497.478358 -220.119416 
L 496.972973 -219.924979 
L 496.467588 -219.726668 
L 495.962202 -219.524497 
L 495.456817 -219.318479 
L 494.951431 -219.108629 
L 494.446046 -218.89496 
L 493.940661 -218.677487 
L 493.435275 -218.456224 
L 492.92989 -218.231187 
L 492.424505 -218.002391 
L 491.919119 -217.76985 
L 491.413734 -217.533581 
L 490.908348 -217.2936 
L 490.402963 -217.049922 
L 489.897578 -216.802565 
L 489.392192 -216.551543 
L 488.886807 -216.296875 
L 488.381421 -216.038578 
L 487.876036 -215.776668 
L 487.370651 -215.511162 
L 486.865265 -215.24208 
L 486.35988 -214.969438 
L 485.854494 -214.693255 
L 485.349109 -214.413549 
L 484.843724 -214.130339 
L 484.338338 -213.843643 
L 483.832953 -213.55348 
L 483.327568 -213.25987 
L 482.822182 -212.962831 
L 482.316797 -212.662385 
L 481.811411 -212.358549 
L 481.306026 -212.051345 
L 480.800641 -211.740792 
L 480.295255 -211.426911 
L 479.78987 -211.109723 
L 479.284484 -210.789248 
L 478.779099 -210.465506 
L 478.273714 -210.13852 
L 477.768328 -209.808311 
L 477.262943 -209.4749 
L 476.757558 -209.138308 
L 476.252172 -208.798558 
L 475.746787 -208.455671 
L 475.241401 -208.10967 
L 474.736016 -207.760578 
L 474.230631 -207.408416 
L 473.725245 -207.053207 
L 473.21986 -206.694975 
L 472.714474 -206.333742 
L 472.209089 -205.969531 
L 471.703704 -205.602366 
L 471.198318 -205.23227 
L 470.692933 -204.859267 
L 470.187548 -204.48338 
L 469.682162 -204.104634 
L 469.176777 -203.723053 
L 468.671391 -203.33866 
L 468.166006 -202.95148 
L 467.660621 -202.561538 
L 467.155235 -202.168858 
L 466.64985 -201.773464 
L 466.144464 -201.375383 
L 465.639079 -200.974638 
L 465.133694 -200.571255 
L 464.628308 -200.165258 
L 464.122923 -199.756674 
L 463.617538 -199.345528 
L 463.112152 -198.931845 
L 462.606767 -198.515651 
L 462.101381 -198.096972 
L 461.595996 -197.675833 
L 461.090611 -197.252261 
L 460.585225 -196.826282 
L 460.07984 -196.397921 
L 459.574454 -195.967205 
L 459.069069 -195.534161 
L 458.563684 -195.098814 
L 458.058298 -194.661192 
L 457.552913 -194.22132 
L 457.047528 -193.779226 
L 456.542142 -193.334937 
L 456.036757 -192.888478 
L 455.531371 -192.439878 
L 455.025986 -191.989162 
L 454.520601 -191.536359 
L 454.015215 -191.081494 
L 453.50983 -190.624596 
L 453.004444 -190.165691 
L 452.499059 -189.704807 
L 451.993674 -189.241971 
L 451.488288 -188.77721 
L 450.982903 -188.310552 
L 450.477518 -187.842024 
L 449.972132 -187.371654 
L 449.466747 -186.899469 
L 448.961361 -186.425497 
L 448.455976 -185.949765 
L 447.950591 -185.472301 
L 447.445205 -184.993133 
L 446.93982 -184.512288 
L 446.434434 -184.029794 
L 445.929049 -183.545679 
L 445.423664 -183.059971 
L 444.918278 -182.572696 
L 444.412893 -182.083884 
L 443.907508 -181.593562 
L 443.402122 -181.101757 
L 442.896737 -180.608497 
L 442.391351 -180.113811 
L 441.885966 -179.617725 
L 441.380581 -179.120269 
L 440.875195 -178.621469 
L 440.36981 -178.121353 
L 439.864424 -177.619949 
L 439.359039 -177.117285 
L 438.853654 -176.613389 
L 438.348268 -176.108288 
L 437.842883 -175.60201 
L 437.337497 -175.094582 
L 436.832112 -174.586033 
L 436.326727 -174.076389 
L 435.821341 -173.565679 
L 435.315956 -173.05393 
L 434.810571 -172.54117 
L 434.305185 -172.027426 
L 433.7998 -171.512725 
L 433.294414 -170.997095 
L 432.789029 -170.480563 
L 432.283644 -169.963157 
L 431.778258 -169.444904 
L 431.272873 -168.92583 
L 430.767487 -168.405964 
L 430.262102 -167.885332 
L 429.756717 -167.363961 
L 429.251331 -166.841878 
L 428.745946 -166.319111 
L 428.240561 -165.795686 
L 427.735175 -165.271629 
L 427.22979 -164.746968 
L 426.724404 -164.221729 
L 426.219019 -163.695939 
L 425.713634 -163.169624 
L 425.208248 -162.64281 
L 424.702863 -162.115525 
L 424.197477 -161.587793 
L 423.692092 -161.059642 
L 423.186707 -160.531098 
L 422.681321 -160.002185 
L 422.175936 -159.472932 
L 421.670551 -158.943362 
L 421.165165 -158.413502 
L 420.65978 -157.883377 
L 420.154394 -157.353014 
L 419.649009 -156.822437 
L 419.143624 -156.291671 
L 418.638238 -155.760743 
L 418.132853 -155.229676 
L 417.627467 -154.698497 
L 417.122082 -154.167229 
L 416.616697 -153.635898 
L 416.111311 -153.104529 
L 415.605926 -152.573145 
L 415.100541 -152.041772 
L 414.595155 -151.510433 
L 414.08977 -150.979153 
L 413.584384 -150.447957 
L 413.078999 -149.916867 
L 412.573614 -149.385907 
L 412.068228 -148.855103 
L 411.562843 -148.324476 
L 411.057457 -147.79405 
L 410.552072 -147.26385 
L 410.046687 -146.733897 
L 409.541301 -146.204216 
L 409.035916 -145.674828 
L 408.530531 -145.145757 
L 408.025145 -144.617025 
L 407.51976 -144.088655 
L 407.014374 -143.56067 
L 406.508989 -143.03309 
L 406.003604 -142.50594 
L 405.498218 -141.97924 
L 404.992833 -141.453012 
L 404.487447 -140.927277 
L 403.982062 -140.402059 
L 403.476677 -139.877377 
L 402.971291 -139.353253 
L 402.465906 -138.829707 
L 401.960521 -138.306762 
L 401.455135 -137.784437 
L 400.94975 -137.262754 
L 400.444364 -136.741732 
L 399.938979 -136.221392 
L 399.433594 -135.701754 
L 398.928208 -135.182837 
L 398.422823 -134.664663 
L 397.917437 -134.14725 
L 397.412052 -133.630617 
L 396.906667 -133.114785 
L 396.401281 -132.599772 
L 395.895896 -132.085597 
L 395.390511 -131.572279 
L 394.885125 -131.059837 
L 394.37974 -130.548289 
L 393.874354 -130.037654 
L 393.368969 -129.527949 
L 392.863584 -129.019193 
L 392.358198 -128.511403 
L 391.852813 -128.004598 
L 391.347427 -127.498794 
L 390.842042 -126.994008 
L 390.336657 -126.490259 
L 389.831271 -125.987562 
L 389.325886 -125.485936 
L 388.820501 -124.985395 
L 388.315115 -124.485957 
L 387.80973 -123.987638 
L 387.304344 -123.490455 
L 386.798959 -122.994422 
L 386.293574 -122.499556 
L 385.788188 -122.005872 
L 385.282803 -121.513385 
L 384.777417 -121.022112 
L 384.272032 -120.532066 
L 383.766647 -120.043263 
L 383.261261 -119.555718 
L 382.755876 -119.069444 
L 382.25049 -118.584456 
L 381.745105 -118.100769 
L 381.23972 -117.618396 
L 380.734334 -117.137351 
L 380.228949 -116.657648 
L 379.723564 -116.179299 
L 379.218178 -115.702319 
L 378.712793 -115.226721 
L 378.207407 -114.752516 
L 377.702022 -114.279719 
L 377.196637 -113.808341 
L 376.691251 -113.338394 
L 376.185866 -112.869892 
L 375.68048 -112.402846 
L 375.175095 -111.937267 
L 374.66971 -111.473168 
L 374.164324 -111.01056 
L 373.658939 -110.549453 
L 373.153554 -110.08986 
L 372.648168 -109.631792 
L 372.142783 -109.175258 
L 371.637397 -108.720269 
L 371.132012 -108.266837 
L 370.626627 -107.81497 
L 370.121241 -107.364679 
L 369.615856 -106.915975 
L 369.11047 -106.468866 
L 368.605085 -106.023362 
L 368.0997 -105.579472 
L 367.594314 -105.137206 
L 367.088929 -104.696572 
L 366.583544 -104.25758 
L 366.078158 -103.820238 
L 365.572773 -103.384554 
L 365.067387 -102.950537 
L 364.562002 -102.518194 
L 364.056617 -102.087535 
L 363.551231 -101.658566 
L 363.045846 -101.231294 
L 362.54046 -100.805729 
L 362.035075 -100.381876 
L 361.52969 -99.959743 
L 361.024304 -99.539336 
L 360.518919 -99.120663 
L 360.013534 -98.70373 
L 359.508148 -98.288544 
L 359.002763 -97.87511 
L 358.497377 -97.463435 
L 357.991992 -97.053524 
L 357.486607 -96.645384 
L 356.981221 -96.23902 
L 356.475836 -95.834438 
L 355.97045 -95.431641 
L 355.465065 -95.030637 
L 354.95968 -94.631429 
L 354.454294 -94.234023 
L 353.948909 -93.838423 
L 353.443524 -93.444633 
L 352.938138 -93.052658 
L 352.432753 -92.662501 
L 351.927367 -92.274168 
L 351.421982 -91.887661 
L 350.916597 -91.502985 
L 350.411211 -91.120142 
L 349.905826 -90.739137 
L 349.40044 -90.359972 
L 348.895055 -89.982651 
L 348.38967 -89.607176 
L 347.884284 -89.23355 
L 347.378899 -88.861776 
L 346.873514 -88.491857 
L 346.368128 -88.123793 
L 345.862743 -87.757589 
L 345.357357 -87.393245 
L 344.851972 -87.030764 
L 344.346587 -86.670147 
L 343.841201 -86.311396 
L 343.335816 -85.954512 
L 342.83043 -85.599497 
L 342.325045 -85.246352 
L 341.81966 -84.895078 
L 341.314274 -84.545676 
L 340.808889 -84.198146 
L 340.303504 -83.85249 
L 339.798118 -83.508707 
L 339.292733 -83.166798 
L 338.787347 -82.826764 
L 338.281962 -82.488604 
L 337.776577 -82.152318 
L 337.271191 -81.817906 
L 336.765806 -81.485369 
L 336.26042 -81.154705 
L 335.755035 -80.825914 
L 335.24965 -80.498995 
L 334.744264 -80.173947 
L 334.238879 -79.850771 
L 333.733493 -79.529464 
L 333.228108 -79.210025 
L 332.722723 -78.892453 
L 332.217337 -78.576748 
L 331.711952 -78.262906 
L 331.206567 -77.950927 
L 330.701181 -77.64081 
L 330.195796 -77.332551 
L 329.69041 -77.02615 
L 329.185025 -76.721603 
L 328.67964 -76.41891 
L 328.174254 -76.118067 
L 327.668869 -75.819072 
L 327.163483 -75.521923 
L 326.658098 -75.226618 
L 326.152713 -74.933153 
L 325.647327 -74.641525 
L 325.141942 -74.351732 
L 324.636557 -74.063771 
L 324.131171 -73.777639 
L 323.625786 -73.493332 
L 323.1204 -73.210847 
L 322.615015 -72.930181 
L 322.10963 -72.65133 
L 321.604244 -72.374291 
L 321.098859 -72.09906 
L 320.593473 -71.825633 
L 320.088088 -71.554006 
L 319.582703 -71.284176 
L 319.077317 -71.016138 
L 318.571932 -70.749888 
L 318.066547 -70.485423 
L 317.561161 -70.222737 
L 317.055776 -69.961827 
L 316.55039 -69.702688 
L 316.045005 -69.445315 
L 315.53962 -69.189704 
L 315.034234 -68.93585 
L 314.528849 -68.683748 
L 314.023463 -68.433394 
L 313.518078 -68.184783 
L 313.012693 -67.937909 
z
" style="stroke: #ccffcc"/>
    </defs>
    <g clip-path="url(#p51d4199ca1)">
     <use xlink:href="#mcdc5bfd4c6" x="0" y="288" style="fill: #ccffcc; stroke: #ccffcc"/>
    </g>
   </g>
   <g id="matplotlib.axis_1">
    <g id="xtick_1">
     <g id="line2d_1">
      <defs>
       <path id="m72782c6cad" d="M 0 0 
L 0 3.5 
" style="stroke: #000000; stroke-width: 0.8"/>
      </defs>
      <g>
       <use xlink:href="#m72782c6cad" x="60.32" y="246.04" style="stroke: #000000; stroke-width: 0.8"/>
      </g>
     </g>
     <g id="text_1">
      <!-- 0 -->
      <g transform="translate(57.13875 260.638438) scale(0.1 -0.1)">
       <defs>
        <path id="DejaVuSans-30" d="M 2034 4250 
Q 1547 4250 1301 3770 
Q 1056 3291 1056 2328 
Q 1056 1369 1301 889 
Q 1547 409 2034 409 
Q 2525 409 2770 889 
Q 3016 1369 3016 2328 
Q 3016 3291 2770 3770 
Q 2525 4250 2034 4250 
z
M 2034 4750 
Q 2819 4750 3233 4129 
Q 3647 3509 3647 2328 
Q 3647 1150 3233 529 
Q 2819 -91 2034 -91 
Q 1250 -91 836 529 
Q 422 1150 422 2328 
Q 422 3509 836 4129 
Q 1250 4750 2034 4750 
z
" transform="scale(0.015625)"/>
       </defs>
       <use xlink:href="#DejaVuSans-30"/>
      </g>
     </g>
    </g>
    <g id="xtick_2">
     <g id="line2d_2">
      <g>
       <use xlink:href="#m72782c6cad" x="117.04809" y="246.04" style="stroke: #000000; stroke-width: 0.8"/>
      </g>
     </g>
     <g id="text_2">
      <!-- 20 -->
      <g transform="translate(110.68559 260.638438) scale(0.1 -0.1)">
       <defs>
        <path id="DejaVuSans-32" d="M 1228 531 
L 3431 531 
L 3431 0 
L 469 0 
L 469 531 
Q 828 903 1448 1529 
Q 2069 2156 2228 2338 
Q 2531 2678 2651 2914 
Q 2772 3150 2772 3378 
Q 2772 3750 2511 3984 
Q 2250 4219 1831 4219 
Q 1534 4219 1204 4116 
Q 875 4013 500 3803 
L 500 4441 
Q 881 4594 1212 4672 
Q 1544 4750 1819 4750 
Q 2544 4750 2975 4387 
Q 3406 4025 3406 3419 
Q 3406 3131 3298 2873 
Q 3191 2616 2906 2266 
Q 2828 2175 2409 1742 
Q 1991 1309 1228 531 
z
" transform="scale(0.015625)"/>
       </defs>
       <use xlink:href="#DejaVuSans-32"/>
       <use xlink:href="#DejaVuSans-30" transform="translate(63.623047 0)"/>
      </g>
     </g>
    </g>
    <g id="xtick_3">
     <g id="line2d_3">
      <g>
       <use xlink:href="#m72782c6cad" x="173.77618" y="246.04" style="stroke: #000000; stroke-width: 0.8"/>
      </g>
     </g>
     <g id="text_3">
      <!-- 40 -->
      <g transform="translate(167.41368 260.638438) scale(0.1 -0.1)">
       <defs>
        <path id="DejaVuSans-34" d="M 2419 4116 
L 825 1625 
L 2419 1625 
L 2419 4116 
z
M 2253 4666 
L 3047 4666 
L 3047 1625 
L 3713 1625 
L 3713 1100 
L 3047 1100 
L 3047 0 
L 2419 0 
L 2419 1100 
L 313 1100 
L 313 1709 
L 2253 4666 
z
" transform="scale(0.015625)"/>
       </defs>
       <use xlink:href="#DejaVuSans-34"/>
       <use xlink:href="#DejaVuSans-30" transform="translate(63.623047 0)"/>
      </g>
     </g>
    </g>
    <g id="xtick_4">
     <g id="line2d_4">
      <g>
       <use xlink:href="#m72782c6cad" x="230.50427" y="246.04" style="stroke: #000000; stroke-width: 0.8"/>
      </g>
     </g>
     <g id="text_4">
      <!-- 60 -->
      <g transform="translate(224.14177 260.638438) scale(0.1 -0.1)">
       <defs>
        <path id="DejaVuSans-36" d="M 2113 2584 
Q 1688 2584 1439 2293 
Q 1191 2003 1191 1497 
Q 1191 994 1439 701 
Q 1688 409 2113 409 
Q 2538 409 2786 701 
Q 3034 994 3034 1497 
Q 3034 2003 2786 2293 
Q 2538 2584 2113 2584 
z
M 3366 4563 
L 3366 3988 
Q 3128 4100 2886 4159 
Q 2644 4219 2406 4219 
Q 1781 4219 1451 3797 
Q 1122 3375 1075 2522 
Q 1259 2794 1537 2939 
Q 1816 3084 2150 3084 
Q 2853 3084 3261 2657 
Q 3669 2231 3669 1497 
Q 3669 778 3244 343 
Q 2819 -91 2113 -91 
Q 1303 -91 875 529 
Q 447 1150 447 2328 
Q 447 3434 972 4092 
Q 1497 4750 2381 4750 
Q 2619 4750 2861 4703 
Q 3103 4656 3366 4563 
z
" transform="scale(0.015625)"/>
       </defs>
       <use xlink:href="#DejaVuSans-36"/>
       <use xlink:href="#DejaVuSans-30" transform="translate(63.623047 0)"/>
      </g>
     </g>
    </g>
    <g id="xtick_5">
     <g id="line2d_5">
      <g>
       <use xlink:href="#m72782c6cad" x="287.23236" y="246.04" style="stroke: #000000; stroke-width: 0.8"/>
      </g>
     </g>
     <g id="text_5">
      <!-- 80 -->
      <g transform="translate(280.86986 260.638438) scale(0.1 -0.1)">
       <defs>
        <path id="DejaVuSans-38" d="M 2034 2216 
Q 1584 2216 1326 1975 
Q 1069 1734 1069 1313 
Q 1069 891 1326 650 
Q 1584 409 2034 409 
Q 2484 409 2743 651 
Q 3003 894 3003 1313 
Q 3003 1734 2745 1975 
Q 2488 2216 2034 2216 
z
M 1403 2484 
Q 997 2584 770 2862 
Q 544 3141 544 3541 
Q 544 4100 942 4425 
Q 1341 4750 2034 4750 
Q 2731 4750 3128 4425 
Q 3525 4100 3525 3541 
Q 3525 3141 3298 2862 
Q 3072 2584 2669 2484 
Q 3125 2378 3379 2068 
Q 3634 1759 3634 1313 
Q 3634 634 3220 271 
Q 2806 -91 2034 -91 
Q 1263 -91 848 271 
Q 434 634 434 1313 
Q 434 1759 690 2068 
Q 947 2378 1403 2484 
z
M 1172 3481 
Q 1172 3119 1398 2916 
Q 1625 2713 2034 2713 
Q 2441 2713 2670 2916 
Q 2900 3119 2900 3481 
Q 2900 3844 2670 4047 
Q 2441 4250 2034 4250 
Q 1625 4250 1398 4047 
Q 1172 3844 1172 3481 
z
" transform="scale(0.015625)"/>
       </defs>
       <use xlink:href="#DejaVuSans-38"/>
       <use xlink:href="#DejaVuSans-30" transform="translate(63.623047 0)"/>
      </g>
     </g>
    </g>
    <g id="xtick_6">
     <g id="line2d_6">
      <g>
       <use xlink:href="#m72782c6cad" x="343.960449" y="246.04" style="stroke: #000000; stroke-width: 0.8"/>
      </g>
     </g>
     <g id="text_6">
      <!-- 100 -->
      <g transform="translate(334.416699 260.638438) scale(0.1 -0.1)">
       <defs>
        <path id="DejaVuSans-31" d="M 794 531 
L 1825 531 
L 1825 4091 
L 703 3866 
L 703 4441 
L 1819 4666 
L 2450 4666 
L 2450 531 
L 3481 531 
L 3481 0 
L 794 0 
L 794 531 
z
" transform="scale(0.015625)"/>
       </defs>
       <use xlink:href="#DejaVuSans-31"/>
       <use xlink:href="#DejaVuSans-30" transform="translate(63.623047 0)"/>
       <use xlink:href="#DejaVuSans-30" transform="translate(127.246094 0)"/>
      </g>
     </g>
    </g>
    <g id="xtick_7">
     <g id="line2d_7">
      <g>
       <use xlink:href="#m72782c6cad" x="400.688539" y="246.04" style="stroke: #000000; stroke-width: 0.8"/>
      </g>
     </g>
     <g id="text_7">
      <!-- 120 -->
      <g transform="translate(391.144789 260.638438) scale(0.1 -0.1)">
       <use xlink:href="#DejaVuSans-31"/>
       <use xlink:href="#DejaVuSans-32" transform="translate(63.623047 0)"/>
       <use xlink:href="#DejaVuSans-30" transform="translate(127.246094 0)"/>
      </g>
     </g>
    </g>
    <g id="xtick_8">
     <g id="line2d_8">
      <g>
       <use xlink:href="#m72782c6cad" x="457.416629" y="246.04" style="stroke: #000000; stroke-width: 0.8"/>
      </g>
     </g>
     <g id="text_8">
      <!-- 140 -->
      <g transform="translate(447.872879 260.638438) scale(0.1 -0.1)">
       <use xlink:href="#DejaVuSans-31"/>
       <use xlink:href="#DejaVuSans-34" transform="translate(63.623047 0)"/>
       <use xlink:href="#DejaVuSans-30" transform="translate(127.246094 0)"/>
      </g>
     </g>
    </g>
    <g id="xtick_9">
     <g id="line2d_9">
      <g>
       <use xlink:href="#m72782c6cad" x="514.144719" y="246.04" style="stroke: #000000; stroke-width: 0.8"/>
      </g>
     </g>
     <g id="text_9">
      <!-- 160 -->
      <g transform="translate(504.600969 260.638438) scale(0.1 -0.1)">
       <use xlink:href="#DejaVuSans-31"/>
       <use xlink:href="#DejaVuSans-36" transform="translate(63.623047 0)"/>
       <use xlink:href="#DejaVuSans-30" transform="translate(127.246094 0)"/>
      </g>
     </g>
    </g>
    <g id="text_10">
     <!-- Estadstico W -->
     <g transform="translate(279.113125 274.316562) scale(0.1 -0.1)">
      <defs>
       <path id="DejaVuSans-45" d="M 628 4666 
L 3578 4666 
L 3578 4134 
L 1259 4134 
L 1259 2753 
L 3481 2753 
L 3481 2222 
L 1259 2222 
L 1259 531 
L 3634 531 
L 3634 0 
L 628 0 
L 628 4666 
z
" transform="scale(0.015625)"/>
       <path id="DejaVuSans-73" d="M 2834 3397 
L 2834 2853 
Q 2591 2978 2328 3040 
Q 2066 3103 1784 3103 
Q 1356 3103 1142 2972 
Q 928 2841 928 2578 
Q 928 2378 1081 2264 
Q 1234 2150 1697 2047 
L 1894 2003 
Q 2506 1872 2764 1633 
Q 3022 1394 3022 966 
Q 3022 478 2636 193 
Q 2250 -91 1575 -91 
Q 1294 -91 989 -36 
Q 684 19 347 128 
L 347 722 
Q 666 556 975 473 
Q 1284 391 1588 391 
Q 1994 391 2212 530 
Q 2431 669 2431 922 
Q 2431 1156 2273 1281 
Q 2116 1406 1581 1522 
L 1381 1569 
Q 847 1681 609 1914 
Q 372 2147 372 2553 
Q 372 3047 722 3315 
Q 1072 3584 1716 3584 
Q 2034 3584 2315 3537 
Q 2597 3491 2834 3397 
z
" transform="scale(0.015625)"/>
       <path id="DejaVuSans-74" d="M 1172 4494 
L 1172 3500 
L 2356 3500 
L 2356 3053 
L 1172 3053 
L 1172 1153 
Q 1172 725 1289 603 
Q 1406 481 1766 481 
L 2356 481 
L 2356 0 
L 1766 0 
Q 1100 0 847 248 
Q 594 497 594 1153 
L 594 3053 
L 172 3053 
L 172 3500 
L 594 3500 
L 594 4494 
L 1172 4494 
z
" transform="scale(0.015625)"/>
       <path id="DejaVuSans-61" d="M 2194 1759 
Q 1497 1759 1228 1600 
Q 959 1441 959 1056 
Q 959 750 1161 570 
Q 1363 391 1709 391 
Q 2188 391 2477 730 
Q 2766 1069 2766 1631 
L 2766 1759 
L 2194 1759 
z
M 3341 1997 
L 3341 0 
L 2766 0 
L 2766 531 
Q 2569 213 2275 61 
Q 1981 -91 1556 -91 
Q 1019 -91 701 211 
Q 384 513 384 1019 
Q 384 1609 779 1909 
Q 1175 2209 1959 2209 
L 2766 2209 
L 2766 2266 
Q 2766 2663 2505 2880 
Q 2244 3097 1772 3097 
Q 1472 3097 1187 3025 
Q 903 2953 641 2809 
L 641 3341 
Q 956 3463 1253 3523 
Q 1550 3584 1831 3584 
Q 2591 3584 2966 3190 
Q 3341 2797 3341 1997 
z
" transform="scale(0.015625)"/>
       <path id="DejaVuSans-64" d="M 2906 2969 
L 2906 4863 
L 3481 4863 
L 3481 0 
L 2906 0 
L 2906 525 
Q 2725 213 2448 61 
Q 2172 -91 1784 -91 
Q 1150 -91 751 415 
Q 353 922 353 1747 
Q 353 2572 751 3078 
Q 1150 3584 1784 3584 
Q 2172 3584 2448 3432 
Q 2725 3281 2906 2969 
z
M 947 1747 
Q 947 1113 1208 752 
Q 1469 391 1925 391 
Q 2381 391 2643 752 
Q 2906 1113 2906 1747 
Q 2906 2381 2643 2742 
Q 2381 3103 1925 3103 
Q 1469 3103 1208 2742 
Q 947 2381 947 1747 
z
" transform="scale(0.015625)"/>
       <path id="DejaVuSans-ed" d="M 1322 5119 
L 1944 5119 
L 926 3944 
L 447 3944 
L 1322 5119 
z
M 603 3500 
L 1178 3500 
L 1178 0 
L 603 0 
L 603 3500 
z
M 891 3584 
L 891 3584 
z
" transform="scale(0.015625)"/>
       <path id="DejaVuSans-69" d="M 603 3500 
L 1178 3500 
L 1178 0 
L 603 0 
L 603 3500 
z
M 603 4863 
L 1178 4863 
L 1178 4134 
L 603 4134 
L 603 4863 
z
" transform="scale(0.015625)"/>
       <path id="DejaVuSans-63" d="M 3122 3366 
L 3122 2828 
Q 2878 2963 2633 3030 
Q 2388 3097 2138 3097 
Q 1578 3097 1268 2742 
Q 959 2388 959 1747 
Q 959 1106 1268 751 
Q 1578 397 2138 397 
Q 2388 397 2633 464 
Q 2878 531 3122 666 
L 3122 134 
Q 2881 22 2623 -34 
Q 2366 -91 2075 -91 
Q 1284 -91 818 406 
Q 353 903 353 1747 
Q 353 2603 823 3093 
Q 1294 3584 2113 3584 
Q 2378 3584 2631 3529 
Q 2884 3475 3122 3366 
z
" transform="scale(0.015625)"/>
       <path id="DejaVuSans-6f" d="M 1959 3097 
Q 1497 3097 1228 2736 
Q 959 2375 959 1747 
Q 959 1119 1226 758 
Q 1494 397 1959 397 
Q 2419 397 2687 759 
Q 2956 1122 2956 1747 
Q 2956 2369 2687 2733 
Q 2419 3097 1959 3097 
z
M 1959 3584 
Q 2709 3584 3137 3096 
Q 3566 2609 3566 1747 
Q 3566 888 3137 398 
Q 2709 -91 1959 -91 
Q 1206 -91 779 398 
Q 353 888 353 1747 
Q 353 2609 779 3096 
Q 1206 3584 1959 3584 
z
" transform="scale(0.015625)"/>
       <path id="DejaVuSans-20" transform="scale(0.015625)"/>
       <path id="DejaVuSans-57" d="M 213 4666 
L 850 4666 
L 1831 722 
L 2809 4666 
L 3519 4666 
L 4500 722 
L 5478 4666 
L 6119 4666 
L 4947 0 
L 4153 0 
L 3169 4050 
L 2175 0 
L 1381 0 
L 213 4666 
z
" transform="scale(0.015625)"/>
      </defs>
      <use xlink:href="#DejaVuSans-45"/>
      <use xlink:href="#DejaVuSans-73" transform="translate(63.183594 0)"/>
      <use xlink:href="#DejaVuSans-74" transform="translate(115.283203 0)"/>
      <use xlink:href="#DejaVuSans-61" transform="translate(154.492188 0)"/>
      <use xlink:href="#DejaVuSans-64" transform="translate(215.771484 0)"/>
      <use xlink:href="#DejaVuSans-ed" transform="translate(279.248047 0)"/>
      <use xlink:href="#DejaVuSans-73" transform="translate(307.03125 0)"/>
      <use xlink:href="#DejaVuSans-74" transform="translate(359.130859 0)"/>
      <use xlink:href="#DejaVuSans-69" transform="translate(398.339844 0)"/>
      <use xlink:href="#DejaVuSans-63" transform="translate(426.123047 0)"/>
      <use xlink:href="#DejaVuSans-6f" transform="translate(481.103516 0)"/>
      <use xlink:href="#DejaVuSans-20" transform="translate(542.285156 0)"/>
      <use xlink:href="#DejaVuSans-57" transform="translate(574.072266 0)"/>
     </g>
    </g>
   </g>
   <g id="matplotlib.axis_2">
    <g id="ytick_1">
     <g id="line2d_10">
      <defs>
       <path id="mfdffb39a30" d="M 0 0 
L -3.5 0 
" style="stroke: #000000; stroke-width: 0.8"/>
      </defs>
      <g>
       <use xlink:href="#mfdffb39a30" x="60.32" y="246.04" style="stroke: #000000; stroke-width: 0.8"/>
      </g>
     </g>
     <g id="text_11">
      <!-- 0.000 -->
      <g transform="translate(24.691875 249.839219) scale(0.1 -0.1)">
       <defs>
        <path id="DejaVuSans-2e" d="M 684 794 
L 1344 794 
L 1344 0 
L 684 0 
L 684 794 
z
" transform="scale(0.015625)"/>
       </defs>
       <use xlink:href="#DejaVuSans-30"/>
       <use xlink:href="#DejaVuSans-2e" transform="translate(63.623047 0)"/>
       <use xlink:href="#DejaVuSans-30" transform="translate(95.410156 0)"/>
       <use xlink:href="#DejaVuSans-30" transform="translate(159.033203 0)"/>
       <use xlink:href="#DejaVuSans-30" transform="translate(222.65625 0)"/>
      </g>
     </g>
    </g>
    <g id="ytick_2">
     <g id="line2d_11">
      <g>
       <use xlink:href="#mfdffb39a30" x="60.32" y="211.991811" style="stroke: #000000; stroke-width: 0.8"/>
      </g>
     </g>
     <g id="text_12">
      <!-- 0.002 -->
      <g transform="translate(24.691875 215.79103) scale(0.1 -0.1)">
       <use xlink:href="#DejaVuSans-30"/>
       <use xlink:href="#DejaVuSans-2e" transform="translate(63.623047 0)"/>
       <use xlink:href="#DejaVuSans-30" transform="translate(95.410156 0)"/>
       <use xlink:href="#DejaVuSans-30" transform="translate(159.033203 0)"/>
       <use xlink:href="#DejaVuSans-32" transform="translate(222.65625 0)"/>
      </g>
     </g>
    </g>
    <g id="ytick_3">
     <g id="line2d_12">
      <g>
       <use xlink:href="#mfdffb39a30" x="60.32" y="177.943622" style="stroke: #000000; stroke-width: 0.8"/>
      </g>
     </g>
     <g id="text_13">
      <!-- 0.004 -->
      <g transform="translate(24.691875 181.742841) scale(0.1 -0.1)">
       <use xlink:href="#DejaVuSans-30"/>
       <use xlink:href="#DejaVuSans-2e" transform="translate(63.623047 0)"/>
       <use xlink:href="#DejaVuSans-30" transform="translate(95.410156 0)"/>
       <use xlink:href="#DejaVuSans-30" transform="translate(159.033203 0)"/>
       <use xlink:href="#DejaVuSans-34" transform="translate(222.65625 0)"/>
      </g>
     </g>
    </g>
    <g id="ytick_4">
     <g id="line2d_13">
      <g>
       <use xlink:href="#mfdffb39a30" x="60.32" y="143.895433" style="stroke: #000000; stroke-width: 0.8"/>
      </g>
     </g>
     <g id="text_14">
      <!-- 0.006 -->
      <g transform="translate(24.691875 147.694652) scale(0.1 -0.1)">
       <use xlink:href="#DejaVuSans-30"/>
       <use xlink:href="#DejaVuSans-2e" transform="translate(63.623047 0)"/>
       <use xlink:href="#DejaVuSans-30" transform="translate(95.410156 0)"/>
       <use xlink:href="#DejaVuSans-30" transform="translate(159.033203 0)"/>
       <use xlink:href="#DejaVuSans-36" transform="translate(222.65625 0)"/>
      </g>
     </g>
    </g>
    <g id="ytick_5">
     <g id="line2d_14">
      <g>
       <use xlink:href="#mfdffb39a30" x="60.32" y="109.847244" style="stroke: #000000; stroke-width: 0.8"/>
      </g>
     </g>
     <g id="text_15">
      <!-- 0.008 -->
      <g transform="translate(24.691875 113.646463) scale(0.1 -0.1)">
       <use xlink:href="#DejaVuSans-30"/>
       <use xlink:href="#DejaVuSans-2e" transform="translate(63.623047 0)"/>
       <use xlink:href="#DejaVuSans-30" transform="translate(95.410156 0)"/>
       <use xlink:href="#DejaVuSans-30" transform="translate(159.033203 0)"/>
       <use xlink:href="#DejaVuSans-38" transform="translate(222.65625 0)"/>
      </g>
     </g>
    </g>
    <g id="ytick_6">
     <g id="line2d_15">
      <g>
       <use xlink:href="#mfdffb39a30" x="60.32" y="75.799055" style="stroke: #000000; stroke-width: 0.8"/>
      </g>
     </g>
     <g id="text_16">
      <!-- 0.010 -->
      <g transform="translate(24.691875 79.598274) scale(0.1 -0.1)">
       <use xlink:href="#DejaVuSans-30"/>
       <use xlink:href="#DejaVuSans-2e" transform="translate(63.623047 0)"/>
       <use xlink:href="#DejaVuSans-30" transform="translate(95.410156 0)"/>
       <use xlink:href="#DejaVuSans-31" transform="translate(159.033203 0)"/>
       <use xlink:href="#DejaVuSans-30" transform="translate(222.65625 0)"/>
      </g>
     </g>
    </g>
    <g id="text_17">
     <!-- Probabilidad (aprox.) -->
     <g transform="translate(18.612188 197.577312) rotate(-90) scale(0.1 -0.1)">
      <defs>
       <path id="DejaVuSans-50" d="M 1259 4147 
L 1259 2394 
L 2053 2394 
Q 2494 2394 2734 2622 
Q 2975 2850 2975 3272 
Q 2975 3691 2734 3919 
Q 2494 4147 2053 4147 
L 1259 4147 
z
M 628 4666 
L 2053 4666 
Q 2838 4666 3239 4311 
Q 3641 3956 3641 3272 
Q 3641 2581 3239 2228 
Q 2838 1875 2053 1875 
L 1259 1875 
L 1259 0 
L 628 0 
L 628 4666 
z
" transform="scale(0.015625)"/>
       <path id="DejaVuSans-72" d="M 2631 2963 
Q 2534 3019 2420 3045 
Q 2306 3072 2169 3072 
Q 1681 3072 1420 2755 
Q 1159 2438 1159 1844 
L 1159 0 
L 581 0 
L 581 3500 
L 1159 3500 
L 1159 2956 
Q 1341 3275 1631 3429 
Q 1922 3584 2338 3584 
Q 2397 3584 2469 3576 
Q 2541 3569 2628 3553 
L 2631 2963 
z
" transform="scale(0.015625)"/>
       <path id="DejaVuSans-62" d="M 3116 1747 
Q 3116 2381 2855 2742 
Q 2594 3103 2138 3103 
Q 1681 3103 1420 2742 
Q 1159 2381 1159 1747 
Q 1159 1113 1420 752 
Q 1681 391 2138 391 
Q 2594 391 2855 752 
Q 3116 1113 3116 1747 
z
M 1159 2969 
Q 1341 3281 1617 3432 
Q 1894 3584 2278 3584 
Q 2916 3584 3314 3078 
Q 3713 2572 3713 1747 
Q 3713 922 3314 415 
Q 2916 -91 2278 -91 
Q 1894 -91 1617 61 
Q 1341 213 1159 525 
L 1159 0 
L 581 0 
L 581 4863 
L 1159 4863 
L 1159 2969 
z
" transform="scale(0.015625)"/>
       <path id="DejaVuSans-6c" d="M 603 4863 
L 1178 4863 
L 1178 0 
L 603 0 
L 603 4863 
z
" transform="scale(0.015625)"/>
       <path id="DejaVuSans-28" d="M 1984 4856 
Q 1566 4138 1362 3434 
Q 1159 2731 1159 2009 
Q 1159 1288 1364 580 
Q 1569 -128 1984 -844 
L 1484 -844 
Q 1016 -109 783 600 
Q 550 1309 550 2009 
Q 550 2706 781 3412 
Q 1013 4119 1484 4856 
L 1984 4856 
z
" transform="scale(0.015625)"/>
       <path id="DejaVuSans-70" d="M 1159 525 
L 1159 -1331 
L 581 -1331 
L 581 3500 
L 1159 3500 
L 1159 2969 
Q 1341 3281 1617 3432 
Q 1894 3584 2278 3584 
Q 2916 3584 3314 3078 
Q 3713 2572 3713 1747 
Q 3713 922 3314 415 
Q 2916 -91 2278 -91 
Q 1894 -91 1617 61 
Q 1341 213 1159 525 
z
M 3116 1747 
Q 3116 2381 2855 2742 
Q 2594 3103 2138 3103 
Q 1681 3103 1420 2742 
Q 1159 2381 1159 1747 
Q 1159 1113 1420 752 
Q 1681 391 2138 391 
Q 2594 391 2855 752 
Q 3116 1113 3116 1747 
z
" transform="scale(0.015625)"/>
       <path id="DejaVuSans-78" d="M 3513 3500 
L 2247 1797 
L 3578 0 
L 2900 0 
L 1881 1375 
L 863 0 
L 184 0 
L 1544 1831 
L 300 3500 
L 978 3500 
L 1906 2253 
L 2834 3500 
L 3513 3500 
z
" transform="scale(0.015625)"/>
       <path id="DejaVuSans-29" d="M 513 4856 
L 1013 4856 
Q 1481 4119 1714 3412 
Q 1947 2706 1947 2009 
Q 1947 1309 1714 600 
Q 1481 -109 1013 -844 
L 513 -844 
Q 928 -128 1133 580 
Q 1338 1288 1338 2009 
Q 1338 2731 1133 3434 
Q 928 4138 513 4856 
z
" transform="scale(0.015625)"/>
      </defs>
      <use xlink:href="#DejaVuSans-50"/>
      <use xlink:href="#DejaVuSans-72" transform="translate(58.552734 0)"/>
      <use xlink:href="#DejaVuSans-6f" transform="translate(97.416016 0)"/>
      <use xlink:href="#DejaVuSans-62" transform="translate(158.597656 0)"/>
      <use xlink:href="#DejaVuSans-61" transform="translate(222.074219 0)"/>
      <use xlink:href="#DejaVuSans-62" transform="translate(283.353516 0)"/>
      <use xlink:href="#DejaVuSans-69" transform="translate(346.830078 0)"/>
      <use xlink:href="#DejaVuSans-6c" transform="translate(374.613281 0)"/>
      <use xlink:href="#DejaVuSans-69" transform="translate(402.396484 0)"/>
      <use xlink:href="#DejaVuSans-64" transform="translate(430.179688 0)"/>
      <use xlink:href="#DejaVuSans-61" transform="translate(493.65625 0)"/>
      <use xlink:href="#DejaVuSans-64" transform="translate(554.935547 0)"/>
      <use xlink:href="#DejaVuSans-20" transform="translate(618.412109 0)"/>
      <use xlink:href="#DejaVuSans-28" transform="translate(650.199219 0)"/>
      <use xlink:href="#DejaVuSans-61" transform="translate(689.212891 0)"/>
      <use xlink:href="#DejaVuSans-70" transform="translate(750.492188 0)"/>
      <use xlink:href="#DejaVuSans-72" transform="translate(813.96875 0)"/>
      <use xlink:href="#DejaVuSans-6f" transform="translate(852.832031 0)"/>
      <use xlink:href="#DejaVuSans-78" transform="translate(910.888672 0)"/>
      <use xlink:href="#DejaVuSans-2e" transform="translate(970.068359 0)"/>
      <use xlink:href="#DejaVuSans-29" transform="translate(1001.855469 0)"/>
     </g>
    </g>
   </g>
   <g id="line2d_16">
    <path d="M 60.32 246.027103 
L 125.514715 245.880845 
L 154.827067 245.605128 
L 175.547868 245.19532 
L 191.7202 244.659387 
L 205.365606 243.98808 
L 216.989469 243.201987 
L 227.602563 242.264203 
L 237.204885 241.193808 
L 245.796436 240.023715 
L 253.882603 238.710138 
L 261.463383 237.266318 
L 269.044164 235.592268 
L 276.11956 233.800047 
L 282.68957 231.91871 
L 289.25958 229.811364 
L 295.82959 227.46184 
L 301.894214 225.064656 
L 307.958839 222.436409 
L 314.023463 219.566606 
L 320.088088 216.445994 
L 326.152713 213.066847 
L 332.217337 209.423252 
L 338.281962 205.511396 
L 344.346587 201.329853 
L 350.411211 196.879858 
L 356.475836 192.165562 
L 363.045846 186.768706 
L 369.615856 181.084025 
L 376.691251 174.661606 
L 384.272032 167.467934 
L 392.358198 159.488597 
L 401.960521 149.693238 
L 416.111311 134.895471 
L 432.789029 117.519437 
L 441.380581 108.879731 
L 448.455976 102.050235 
L 455.025986 96.010838 
L 461.090611 90.747739 
L 466.64985 86.226536 
L 471.703704 82.397634 
L 476.757558 78.861692 
L 481.306026 75.948655 
L 485.854494 73.306745 
L 489.897578 71.197435 
L 493.940661 69.322513 
L 497.983744 67.690034 
L 502.026827 66.307058 
L 506.06991 65.179602 
L 509.607608 64.406586 
L 513.145305 63.835588 
L 516.683003 63.468531 
L 520.220701 63.306653 
L 523.758398 63.3505 
L 527.296096 63.599925 
L 530.833794 64.054086 
L 534.371491 64.711451 
L 537.909189 65.56981 
L 541.952272 66.793183 
L 545.995355 68.269957 
L 550.038438 69.993722 
L 554.081522 71.957039 
L 558.124605 74.151497 
L 562.673073 76.884904 
L 565.2 78.519455 
L 565.2 78.519455 
" clip-path="url(#p51d4199ca1)" style="fill: none; stroke: #000000; stroke-width: 2; stroke-linecap: square"/>
   </g>
   <g id="line2d_17">
    <path d="M 312.76 246.04 
L 312.76 45.024 
" clip-path="url(#p51d4199ca1)" style="fill: none; stroke-dasharray: 7.4,3.2; stroke-dashoffset: 0; stroke: #ff0000; stroke-width: 2"/>
   </g>
   <g id="line2d_18">
    <path d="M 60.32 246.04 
L 60.32 45.024 
" clip-path="url(#p51d4199ca1)" style="fill: none; stroke: #0000ff; stroke-width: 2; stroke-linecap: square"/>
   </g>
   <g id="patch_3">
    <path d="M 60.32 246.04 
L 60.32 45.024 
" style="fill: none; stroke: #000000; stroke-width: 0.8; stroke-linejoin: miter; stroke-linecap: square"/>
   </g>
   <g id="patch_4">
    <path d="M 565.2 246.04 
L 565.2 45.024 
" style="fill: none; stroke: #000000; stroke-width: 0.8; stroke-linejoin: miter; stroke-linecap: square"/>
   </g>
   <g id="patch_5">
    <path d="M 60.32 246.04 
L 565.2 246.04 
" style="fill: none; stroke: #000000; stroke-width: 0.8; stroke-linejoin: miter; stroke-linecap: square"/>
   </g>
   <g id="patch_6">
    <path d="M 60.32 45.024 
L 565.2 45.024 
" style="fill: none; stroke: #000000; stroke-width: 0.8; stroke-linejoin: miter; stroke-linecap: square"/>
   </g>
   <g id="text_18">
    <!-- Wc = 89 -->
    <g style="fill: #ff0000" transform="translate(323.296327 99.846545) rotate(-90) scale(0.12 -0.12)">
     <defs>
      <path id="DejaVuSans-3d" d="M 678 2906 
L 4684 2906 
L 4684 2381 
L 678 2381 
L 678 2906 
z
M 678 1631 
L 4684 1631 
L 4684 1100 
L 678 1100 
L 678 1631 
z
" transform="scale(0.015625)"/>
      <path id="DejaVuSans-39" d="M 703 97 
L 703 672 
Q 941 559 1184 500 
Q 1428 441 1663 441 
Q 2288 441 2617 861 
Q 2947 1281 2994 2138 
Q 2813 1869 2534 1725 
Q 2256 1581 1919 1581 
Q 1219 1581 811 2004 
Q 403 2428 403 3163 
Q 403 3881 828 4315 
Q 1253 4750 1959 4750 
Q 2769 4750 3195 4129 
Q 3622 3509 3622 2328 
Q 3622 1225 3098 567 
Q 2575 -91 1691 -91 
Q 1453 -91 1209 -44 
Q 966 3 703 97 
z
M 1959 2075 
Q 2384 2075 2632 2365 
Q 2881 2656 2881 3163 
Q 2881 3666 2632 3958 
Q 2384 4250 1959 4250 
Q 1534 4250 1286 3958 
Q 1038 3666 1038 3163 
Q 1038 2656 1286 2365 
Q 1534 2075 1959 2075 
z
" transform="scale(0.015625)"/>
     </defs>
     <use xlink:href="#DejaVuSans-57"/>
     <use xlink:href="#DejaVuSans-63" transform="translate(98.876953 0)"/>
     <use xlink:href="#DejaVuSans-20" transform="translate(153.857422 0)"/>
     <use xlink:href="#DejaVuSans-3d" transform="translate(185.644531 0)"/>
     <use xlink:href="#DejaVuSans-20" transform="translate(269.433594 0)"/>
     <use xlink:href="#DejaVuSans-38" transform="translate(301.220703 0)"/>
     <use xlink:href="#DejaVuSans-39" transform="translate(364.84375 0)"/>
    </g>
   </g>
   <g id="text_19">
    <!-- W = 0 -->
    <g style="fill: #0000ff" transform="translate(70.856327 136.394909) rotate(-90) scale(0.12 -0.12)">
     <use xlink:href="#DejaVuSans-57"/>
     <use xlink:href="#DejaVuSans-20" transform="translate(98.876953 0)"/>
     <use xlink:href="#DejaVuSans-3d" transform="translate(130.664062 0)"/>
     <use xlink:href="#DejaVuSans-20" transform="translate(214.453125 0)"/>
     <use xlink:href="#DejaVuSans-30" transform="translate(246.240234 0)"/>
    </g>
   </g>
   <g id="text_20">
    <!-- Prueba de Wilcoxon - Nivel Bajo -->
    <g transform="translate(193.874453 22.227281) scale(0.15 -0.15)">
     <defs>
      <path id="DejaVuSans-75" d="M 544 1381 
L 544 3500 
L 1119 3500 
L 1119 1403 
Q 1119 906 1312 657 
Q 1506 409 1894 409 
Q 2359 409 2629 706 
Q 2900 1003 2900 1516 
L 2900 3500 
L 3475 3500 
L 3475 0 
L 2900 0 
L 2900 538 
Q 2691 219 2414 64 
Q 2138 -91 1772 -91 
Q 1169 -91 856 284 
Q 544 659 544 1381 
z
M 1991 3584 
L 1991 3584 
z
" transform="scale(0.015625)"/>
      <path id="DejaVuSans-65" d="M 3597 1894 
L 3597 1613 
L 953 1613 
Q 991 1019 1311 708 
Q 1631 397 2203 397 
Q 2534 397 2845 478 
Q 3156 559 3463 722 
L 3463 178 
Q 3153 47 2828 -22 
Q 2503 -91 2169 -91 
Q 1331 -91 842 396 
Q 353 884 353 1716 
Q 353 2575 817 3079 
Q 1281 3584 2069 3584 
Q 2775 3584 3186 3129 
Q 3597 2675 3597 1894 
z
M 3022 2063 
Q 3016 2534 2758 2815 
Q 2500 3097 2075 3097 
Q 1594 3097 1305 2825 
Q 1016 2553 972 2059 
L 3022 2063 
z
" transform="scale(0.015625)"/>
      <path id="DejaVuSans-6e" d="M 3513 2113 
L 3513 0 
L 2938 0 
L 2938 2094 
Q 2938 2591 2744 2837 
Q 2550 3084 2163 3084 
Q 1697 3084 1428 2787 
Q 1159 2491 1159 1978 
L 1159 0 
L 581 0 
L 581 3500 
L 1159 3500 
L 1159 2956 
Q 1366 3272 1645 3428 
Q 1925 3584 2291 3584 
Q 2894 3584 3203 3211 
Q 3513 2838 3513 2113 
z
" transform="scale(0.015625)"/>
      <path id="DejaVuSans-2d" d="M 313 2009 
L 1997 2009 
L 1997 1497 
L 313 1497 
L 313 2009 
z
" transform="scale(0.015625)"/>
      <path id="DejaVuSans-4e" d="M 628 4666 
L 1478 4666 
L 3547 763 
L 3547 4666 
L 4159 4666 
L 4159 0 
L 3309 0 
L 1241 3903 
L 1241 0 
L 628 0 
L 628 4666 
z
" transform="scale(0.015625)"/>
      <path id="DejaVuSans-76" d="M 191 3500 
L 800 3500 
L 1894 563 
L 2988 3500 
L 3597 3500 
L 2284 0 
L 1503 0 
L 191 3500 
z
" transform="scale(0.015625)"/>
      <path id="DejaVuSans-42" d="M 1259 2228 
L 1259 519 
L 2272 519 
Q 2781 519 3026 730 
Q 3272 941 3272 1375 
Q 3272 1813 3026 2020 
Q 2781 2228 2272 2228 
L 1259 2228 
z
M 1259 4147 
L 1259 2741 
L 2194 2741 
Q 2656 2741 2882 2914 
Q 3109 3088 3109 3444 
Q 3109 3797 2882 3972 
Q 2656 4147 2194 4147 
L 1259 4147 
z
M 628 4666 
L 2241 4666 
Q 2963 4666 3353 4366 
Q 3744 4066 3744 3513 
Q 3744 3084 3544 2831 
Q 3344 2578 2956 2516 
Q 3422 2416 3680 2098 
Q 3938 1781 3938 1306 
Q 3938 681 3513 340 
Q 3088 0 2303 0 
L 628 0 
L 628 4666 
z
" transform="scale(0.015625)"/>
      <path id="DejaVuSans-6a" d="M 603 3500 
L 1178 3500 
L 1178 -63 
Q 1178 -731 923 -1031 
Q 669 -1331 103 -1331 
L -116 -1331 
L -116 -844 
L 38 -844 
Q 366 -844 484 -692 
Q 603 -541 603 -63 
L 603 3500 
z
M 603 4863 
L 1178 4863 
L 1178 4134 
L 603 4134 
L 603 4863 
z
" transform="scale(0.015625)"/>
     </defs>
     <use xlink:href="#DejaVuSans-50"/>
     <use xlink:href="#DejaVuSans-72" transform="translate(58.552734 0)"/>
     <use xlink:href="#DejaVuSans-75" transform="translate(99.666016 0)"/>
     <use xlink:href="#DejaVuSans-65" transform="translate(163.044922 0)"/>
     <use xlink:href="#DejaVuSans-62" transform="translate(224.568359 0)"/>
     <use xlink:href="#DejaVuSans-61" transform="translate(288.044922 0)"/>
     <use xlink:href="#DejaVuSans-20" transform="translate(349.324219 0)"/>
     <use xlink:href="#DejaVuSans-64" transform="translate(381.111328 0)"/>
     <use xlink:href="#DejaVuSans-65" transform="translate(444.587891 0)"/>
     <use xlink:href="#DejaVuSans-20" transform="translate(506.111328 0)"/>
     <use xlink:href="#DejaVuSans-57" transform="translate(537.898438 0)"/>
     <use xlink:href="#DejaVuSans-69" transform="translate(634.525391 0)"/>
     <use xlink:href="#DejaVuSans-6c" transform="translate(662.308594 0)"/>
     <use xlink:href="#DejaVuSans-63" transform="translate(690.091797 0)"/>
     <use xlink:href="#DejaVuSans-6f" transform="translate(745.072266 0)"/>
     <use xlink:href="#DejaVuSans-78" transform="translate(803.128906 0)"/>
     <use xlink:href="#DejaVuSans-6f" transform="translate(859.183594 0)"/>
     <use xlink:href="#DejaVuSans-6e" transform="translate(920.365234 0)"/>
     <use xlink:href="#DejaVuSans-20" transform="translate(983.744141 0)"/>
     <use xlink:href="#DejaVuSans-2d" transform="translate(1015.53125 0)"/>
     <use xlink:href="#DejaVuSans-20" transform="translate(1051.615234 0)"/>
     <use xlink:href="#DejaVuSans-4e" transform="translate(1083.402344 0)"/>
     <use xlink:href="#DejaVuSans-69" transform="translate(1158.207031 0)"/>
     <use xlink:href="#DejaVuSans-76" transform="translate(1185.990234 0)"/>
     <use xlink:href="#DejaVuSans-65" transform="translate(1245.169922 0)"/>
     <use xlink:href="#DejaVuSans-6c" transform="translate(1306.693359 0)"/>
     <use xlink:href="#DejaVuSans-20" transform="translate(1334.476562 0)"/>
     <use xlink:href="#DejaVuSans-42" transform="translate(1366.263672 0)"/>
     <use xlink:href="#DejaVuSans-61" transform="translate(1434.867188 0)"/>
     <use xlink:href="#DejaVuSans-6a" transform="translate(1496.146484 0)"/>
     <use xlink:href="#DejaVuSans-6f" transform="translate(1523.929688 0)"/>
    </g>
    <!-- (n=25, p=1e-05) -->
    <g transform="translate(248.876406 39.024) scale(0.15 -0.15)">
     <defs>
      <path id="DejaVuSans-35" d="M 691 4666 
L 3169 4666 
L 3169 4134 
L 1269 4134 
L 1269 2991 
Q 1406 3038 1543 3061 
Q 1681 3084 1819 3084 
Q 2600 3084 3056 2656 
Q 3513 2228 3513 1497 
Q 3513 744 3044 326 
Q 2575 -91 1722 -91 
Q 1428 -91 1123 -41 
Q 819 9 494 109 
L 494 744 
Q 775 591 1075 516 
Q 1375 441 1709 441 
Q 2250 441 2565 725 
Q 2881 1009 2881 1497 
Q 2881 1984 2565 2268 
Q 2250 2553 1709 2553 
Q 1456 2553 1204 2497 
Q 953 2441 691 2322 
L 691 4666 
z
" transform="scale(0.015625)"/>
      <path id="DejaVuSans-2c" d="M 750 794 
L 1409 794 
L 1409 256 
L 897 -744 
L 494 -744 
L 750 256 
L 750 794 
z
" transform="scale(0.015625)"/>
     </defs>
     <use xlink:href="#DejaVuSans-28"/>
     <use xlink:href="#DejaVuSans-6e" transform="translate(39.013672 0)"/>
     <use xlink:href="#DejaVuSans-3d" transform="translate(102.392578 0)"/>
     <use xlink:href="#DejaVuSans-32" transform="translate(186.181641 0)"/>
     <use xlink:href="#DejaVuSans-35" transform="translate(249.804688 0)"/>
     <use xlink:href="#DejaVuSans-2c" transform="translate(313.427734 0)"/>
     <use xlink:href="#DejaVuSans-20" transform="translate(345.214844 0)"/>
     <use xlink:href="#DejaVuSans-70" transform="translate(377.001953 0)"/>
     <use xlink:href="#DejaVuSans-3d" transform="translate(440.478516 0)"/>
     <use xlink:href="#DejaVuSans-31" transform="translate(524.267578 0)"/>
     <use xlink:href="#DejaVuSans-65" transform="translate(587.890625 0)"/>
     <use xlink:href="#DejaVuSans-2d" transform="translate(649.414062 0)"/>
     <use xlink:href="#DejaVuSans-30" transform="translate(685.498047 0)"/>
     <use xlink:href="#DejaVuSans-35" transform="translate(749.121094 0)"/>
     <use xlink:href="#DejaVuSans-29" transform="translate(812.744141 0)"/>
    </g>
   </g>
   <g id="legend_1">
    <g id="patch_7">
     <path d="M 376.273437 127.214625 
L 558.2 127.214625 
Q 560.2 127.214625 560.2 125.214625 
L 560.2 52.024 
Q 560.2 50.024 558.2 50.024 
L 376.273437 50.024 
Q 374.273437 50.024 374.273437 52.024 
L 374.273437 125.214625 
Q 374.273437 127.214625 376.273437 127.214625 
z
" style="fill: #ffffff; opacity: 0.8; stroke: #cccccc; stroke-linejoin: miter"/>
    </g>
    <g id="patch_8">
     <path d="M 378.273437 61.622437 
L 398.273437 61.622437 
L 398.273437 54.622437 
L 378.273437 54.622437 
z
" style="fill: #ffcccc; stroke: #ffcccc; stroke-linejoin: miter"/>
    </g>
    <g id="text_21">
     <!-- Zona de rechazo -->
     <g transform="translate(406.273437 61.622437) scale(0.1 -0.1)">
      <defs>
       <path id="DejaVuSans-5a" d="M 359 4666 
L 4025 4666 
L 4025 4184 
L 1075 531 
L 4097 531 
L 4097 0 
L 288 0 
L 288 481 
L 3238 4134 
L 359 4134 
L 359 4666 
z
" transform="scale(0.015625)"/>
       <path id="DejaVuSans-68" d="M 3513 2113 
L 3513 0 
L 2938 0 
L 2938 2094 
Q 2938 2591 2744 2837 
Q 2550 3084 2163 3084 
Q 1697 3084 1428 2787 
Q 1159 2491 1159 1978 
L 1159 0 
L 581 0 
L 581 4863 
L 1159 4863 
L 1159 2956 
Q 1366 3272 1645 3428 
Q 1925 3584 2291 3584 
Q 2894 3584 3203 3211 
Q 3513 2838 3513 2113 
z
" transform="scale(0.015625)"/>
       <path id="DejaVuSans-7a" d="M 353 3500 
L 3084 3500 
L 3084 2975 
L 922 459 
L 3084 459 
L 3084 0 
L 275 0 
L 275 525 
L 2438 3041 
L 353 3041 
L 353 3500 
z
" transform="scale(0.015625)"/>
      </defs>
      <use xlink:href="#DejaVuSans-5a"/>
      <use xlink:href="#DejaVuSans-6f" transform="translate(68.505859 0)"/>
      <use xlink:href="#DejaVuSans-6e" transform="translate(129.6875 0)"/>
      <use xlink:href="#DejaVuSans-61" transform="translate(193.066406 0)"/>
      <use xlink:href="#DejaVuSans-20" transform="translate(254.345703 0)"/>
      <use xlink:href="#DejaVuSans-64" transform="translate(286.132812 0)"/>
      <use xlink:href="#DejaVuSans-65" transform="translate(349.609375 0)"/>
      <use xlink:href="#DejaVuSans-20" transform="translate(411.132812 0)"/>
      <use xlink:href="#DejaVuSans-72" transform="translate(442.919922 0)"/>
      <use xlink:href="#DejaVuSans-65" transform="translate(481.783203 0)"/>
      <use xlink:href="#DejaVuSans-63" transform="translate(543.306641 0)"/>
      <use xlink:href="#DejaVuSans-68" transform="translate(598.287109 0)"/>
      <use xlink:href="#DejaVuSans-61" transform="translate(661.666016 0)"/>
      <use xlink:href="#DejaVuSans-7a" transform="translate(722.945312 0)"/>
      <use xlink:href="#DejaVuSans-6f" transform="translate(775.435547 0)"/>
     </g>
    </g>
    <g id="patch_9">
     <path d="M 378.273437 76.700562 
L 398.273437 76.700562 
L 398.273437 69.700562 
L 378.273437 69.700562 
z
" style="fill: #ccffcc; stroke: #ccffcc; stroke-linejoin: miter"/>
    </g>
    <g id="text_22">
     <!-- Zona de aceptacin -->
     <g transform="translate(406.273437 76.700562) scale(0.1 -0.1)">
      <defs>
       <path id="DejaVuSans-f3" d="M 1959 3097 
Q 1497 3097 1228 2736 
Q 959 2375 959 1747 
Q 959 1119 1226 758 
Q 1494 397 1959 397 
Q 2419 397 2687 759 
Q 2956 1122 2956 1747 
Q 2956 2369 2687 2733 
Q 2419 3097 1959 3097 
z
M 1959 3584 
Q 2709 3584 3137 3096 
Q 3566 2609 3566 1747 
Q 3566 888 3137 398 
Q 2709 -91 1959 -91 
Q 1206 -91 779 398 
Q 353 888 353 1747 
Q 353 2609 779 3096 
Q 1206 3584 1959 3584 
z
M 2394 5119 
L 3016 5119 
L 1998 3944 
L 1519 3944 
L 2394 5119 
z
" transform="scale(0.015625)"/>
      </defs>
      <use xlink:href="#DejaVuSans-5a"/>
      <use xlink:href="#DejaVuSans-6f" transform="translate(68.505859 0)"/>
      <use xlink:href="#DejaVuSans-6e" transform="translate(129.6875 0)"/>
      <use xlink:href="#DejaVuSans-61" transform="translate(193.066406 0)"/>
      <use xlink:href="#DejaVuSans-20" transform="translate(254.345703 0)"/>
      <use xlink:href="#DejaVuSans-64" transform="translate(286.132812 0)"/>
      <use xlink:href="#DejaVuSans-65" transform="translate(349.609375 0)"/>
      <use xlink:href="#DejaVuSans-20" transform="translate(411.132812 0)"/>
      <use xlink:href="#DejaVuSans-61" transform="translate(442.919922 0)"/>
      <use xlink:href="#DejaVuSans-63" transform="translate(504.199219 0)"/>
      <use xlink:href="#DejaVuSans-65" transform="translate(559.179688 0)"/>
      <use xlink:href="#DejaVuSans-70" transform="translate(620.703125 0)"/>
      <use xlink:href="#DejaVuSans-74" transform="translate(684.179688 0)"/>
      <use xlink:href="#DejaVuSans-61" transform="translate(723.388672 0)"/>
      <use xlink:href="#DejaVuSans-63" transform="translate(784.667969 0)"/>
      <use xlink:href="#DejaVuSans-69" transform="translate(839.648438 0)"/>
      <use xlink:href="#DejaVuSans-f3" transform="translate(867.431641 0)"/>
      <use xlink:href="#DejaVuSans-6e" transform="translate(928.613281 0)"/>
     </g>
    </g>
    <g id="line2d_19">
     <path d="M 378.273437 88.278687 
L 388.273437 88.278687 
L 398.273437 88.278687 
" style="fill: none; stroke: #000000; stroke-width: 2; stroke-linecap: square"/>
    </g>
    <g id="text_23">
     <!-- Distribucin Wilcoxon (aprox.) -->
     <g transform="translate(406.273437 91.778687) scale(0.1 -0.1)">
      <defs>
       <path id="DejaVuSans-44" d="M 1259 4147 
L 1259 519 
L 2022 519 
Q 2988 519 3436 956 
Q 3884 1394 3884 2338 
Q 3884 3275 3436 3711 
Q 2988 4147 2022 4147 
L 1259 4147 
z
M 628 4666 
L 1925 4666 
Q 3281 4666 3915 4102 
Q 4550 3538 4550 2338 
Q 4550 1131 3912 565 
Q 3275 0 1925 0 
L 628 0 
L 628 4666 
z
" transform="scale(0.015625)"/>
      </defs>
      <use xlink:href="#DejaVuSans-44"/>
      <use xlink:href="#DejaVuSans-69" transform="translate(77.001953 0)"/>
      <use xlink:href="#DejaVuSans-73" transform="translate(104.785156 0)"/>
      <use xlink:href="#DejaVuSans-74" transform="translate(156.884766 0)"/>
      <use xlink:href="#DejaVuSans-72" transform="translate(196.09375 0)"/>
      <use xlink:href="#DejaVuSans-69" transform="translate(237.207031 0)"/>
      <use xlink:href="#DejaVuSans-62" transform="translate(264.990234 0)"/>
      <use xlink:href="#DejaVuSans-75" transform="translate(328.466797 0)"/>
      <use xlink:href="#DejaVuSans-63" transform="translate(391.845703 0)"/>
      <use xlink:href="#DejaVuSans-69" transform="translate(446.826172 0)"/>
      <use xlink:href="#DejaVuSans-f3" transform="translate(474.609375 0)"/>
      <use xlink:href="#DejaVuSans-6e" transform="translate(535.791016 0)"/>
      <use xlink:href="#DejaVuSans-20" transform="translate(599.169922 0)"/>
      <use xlink:href="#DejaVuSans-57" transform="translate(630.957031 0)"/>
      <use xlink:href="#DejaVuSans-69" transform="translate(727.583984 0)"/>
      <use xlink:href="#DejaVuSans-6c" transform="translate(755.367188 0)"/>
      <use xlink:href="#DejaVuSans-63" transform="translate(783.150391 0)"/>
      <use xlink:href="#DejaVuSans-6f" transform="translate(838.130859 0)"/>
      <use xlink:href="#DejaVuSans-78" transform="translate(896.1875 0)"/>
      <use xlink:href="#DejaVuSans-6f" transform="translate(952.242188 0)"/>
      <use xlink:href="#DejaVuSans-6e" transform="translate(1013.423828 0)"/>
      <use xlink:href="#DejaVuSans-20" transform="translate(1076.802734 0)"/>
      <use xlink:href="#DejaVuSans-28" transform="translate(1108.589844 0)"/>
      <use xlink:href="#DejaVuSans-61" transform="translate(1147.603516 0)"/>
      <use xlink:href="#DejaVuSans-70" transform="translate(1208.882812 0)"/>
      <use xlink:href="#DejaVuSans-72" transform="translate(1272.359375 0)"/>
      <use xlink:href="#DejaVuSans-6f" transform="translate(1311.222656 0)"/>
      <use xlink:href="#DejaVuSans-78" transform="translate(1369.279297 0)"/>
      <use xlink:href="#DejaVuSans-2e" transform="translate(1428.458984 0)"/>
      <use xlink:href="#DejaVuSans-29" transform="translate(1460.246094 0)"/>
     </g>
    </g>
    <g id="line2d_20">
     <path d="M 378.273437 102.956812 
L 388.273437 102.956812 
L 398.273437 102.956812 
" style="fill: none; stroke-dasharray: 7.4,3.2; stroke-dashoffset: 0; stroke: #ff0000; stroke-width: 2"/>
    </g>
    <g id="text_24">
     <!-- Wc = 89 -->
     <g transform="translate(406.273437 106.456812) scale(0.1 -0.1)">
      <use xlink:href="#DejaVuSans-57"/>
      <use xlink:href="#DejaVuSans-63" transform="translate(98.876953 0)"/>
      <use xlink:href="#DejaVuSans-20" transform="translate(153.857422 0)"/>
      <use xlink:href="#DejaVuSans-3d" transform="translate(185.644531 0)"/>
      <use xlink:href="#DejaVuSans-20" transform="translate(269.433594 0)"/>
      <use xlink:href="#DejaVuSans-38" transform="translate(301.220703 0)"/>
      <use xlink:href="#DejaVuSans-39" transform="translate(364.84375 0)"/>
     </g>
    </g>
    <g id="line2d_21">
     <path d="M 378.273437 117.634937 
L 388.273437 117.634937 
L 398.273437 117.634937 
" style="fill: none; stroke: #0000ff; stroke-width: 2; stroke-linecap: square"/>
    </g>
    <g id="text_25">
     <!-- W = 0 -->
     <g transform="translate(406.273437 121.134937) scale(0.1 -0.1)">
      <use xlink:href="#DejaVuSans-57"/>
      <use xlink:href="#DejaVuSans-20" transform="translate(98.876953 0)"/>
      <use xlink:href="#DejaVuSans-3d" transform="translate(130.664062 0)"/>
      <use xlink:href="#DejaVuSans-20" transform="translate(214.453125 0)"/>
      <use xlink:href="#DejaVuSans-30" transform="translate(246.240234 0)"/>
     </g>
    </g>
   </g>
  </g>
 </g>
 <defs>
  <clipPath id="p51d4199ca1">
   <rect x="60.32" y="45.024" width="504.88" height="201.016"/>
  </clipPath>
 </defs>
</svg>
