<?xml version="1.0" encoding="utf-8" standalone="no"?>
<!DOCTYPE svg PUBLIC "-//W3C//DTD SVG 1.1//EN"
  "http://www.w3.org/Graphics/SVG/1.1/DTD/svg11.dtd">
<svg xmlns:xlink="http://www.w3.org/1999/xlink" width="576pt" height="288pt" viewBox="0 0 576 288" xmlns="http://www.w3.org/2000/svg" version="1.1">
 <metadata>
  <rdf:RDF xmlns:dc="http://purl.org/dc/elements/1.1/" xmlns:cc="http://creativecommons.org/ns#" xmlns:rdf="http://www.w3.org/1999/02/22-rdf-syntax-ns#">
   <cc:Work>
    <dc:type rdf:resource="http://purl.org/dc/dcmitype/StillImage"/>
    <dc:date>2025-05-16T18:50:45.866744</dc:date>
    <dc:format>image/svg+xml</dc:format>
    <dc:creator>
     <cc:Agent>
      <dc:title>Matplotlib v3.10.1, https://matplotlib.org/</dc:title>
     </cc:Agent>
    </dc:creator>
   </cc:Work>
  </rdf:RDF>
 </metadata>
 <defs>
  <style type="text/css">*{stroke-linejoin: round; stroke-linecap: butt}</style>
 </defs>
 <g id="figure_1">
  <g id="patch_1">
   <path d="M 0 288 
L 576 288 
L 576 0 
L 0 0 
z
" style="fill: #ffffff"/>
  </g>
  <g id="axes_1">
   <g id="patch_2">
    <path d="M 60.32 246.04 
L 562.005 246.04 
L 562.005 45.024 
L 60.32 45.024 
z
" style="fill: #ffffff"/>
   </g>
   <g id="FillBetweenPolyCollection_1">
    <defs>
     <path id="m08c0f62f50" d="M 60.32 -73.252187 
L 60.32 -41.96 
L 60.822187 -41.96 
L 61.324374 -41.96 
L 61.826562 -41.96 
L 62.328749 -41.96 
L 62.830936 -41.96 
L 63.333123 -41.96 
L 63.83531 -41.96 
L 64.337497 -41.96 
L 64.839685 -41.96 
L 65.341872 -41.96 
L 65.844059 -41.96 
L 66.346246 -41.96 
L 66.848433 -41.96 
L 67.350621 -41.96 
L 67.852808 -41.96 
L 68.354995 -41.96 
L 68.857182 -41.96 
L 69.359369 -41.96 
L 69.861557 -41.96 
L 70.363744 -41.96 
L 70.865931 -41.96 
L 71.368118 -41.96 
L 71.870305 -41.96 
L 72.372492 -41.96 
L 72.87468 -41.96 
L 73.376867 -41.96 
L 73.879054 -41.96 
L 74.381241 -41.96 
L 74.883428 -41.96 
L 75.385616 -41.96 
L 75.887803 -41.96 
L 76.38999 -41.96 
L 76.892177 -41.96 
L 77.394364 -41.96 
L 77.896552 -41.96 
L 78.398739 -41.96 
L 78.900926 -41.96 
L 79.403113 -41.96 
L 79.9053 -41.96 
L 80.407487 -41.96 
L 80.909675 -41.96 
L 81.411862 -41.96 
L 81.914049 -41.96 
L 82.416236 -41.96 
L 82.918423 -41.96 
L 83.420611 -41.96 
L 83.922798 -41.96 
L 84.424985 -41.96 
L 84.927172 -41.96 
L 85.429359 -41.96 
L 85.931547 -41.96 
L 86.433734 -41.96 
L 86.935921 -41.96 
L 87.438108 -41.96 
L 87.940295 -41.96 
L 88.442482 -41.96 
L 88.94467 -41.96 
L 89.446857 -41.96 
L 89.949044 -41.96 
L 90.451231 -41.96 
L 90.953418 -41.96 
L 91.455606 -41.96 
L 91.957793 -41.96 
L 92.45998 -41.96 
L 92.962167 -41.96 
L 93.464354 -41.96 
L 93.966542 -41.96 
L 94.468729 -41.96 
L 94.970916 -41.96 
L 95.473103 -41.96 
L 95.97529 -41.96 
L 96.477477 -41.96 
L 96.979665 -41.96 
L 97.481852 -41.96 
L 97.984039 -41.96 
L 98.486226 -41.96 
L 98.988413 -41.96 
L 99.490601 -41.96 
L 99.992788 -41.96 
L 100.494975 -41.96 
L 100.997162 -41.96 
L 101.499349 -41.96 
L 102.001537 -41.96 
L 102.503724 -41.96 
L 103.005911 -41.96 
L 103.508098 -41.96 
L 104.010285 -41.96 
L 104.512472 -41.96 
L 105.01466 -41.96 
L 105.516847 -41.96 
L 106.019034 -41.96 
L 106.521221 -41.96 
L 107.023408 -41.96 
L 107.525596 -41.96 
L 108.027783 -41.96 
L 108.52997 -41.96 
L 109.032157 -41.96 
L 109.534344 -41.96 
L 110.036532 -41.96 
L 110.538719 -41.96 
L 111.040906 -41.96 
L 111.543093 -41.96 
L 112.04528 -41.96 
L 112.547467 -41.96 
L 113.049655 -41.96 
L 113.551842 -41.96 
L 114.054029 -41.96 
L 114.556216 -41.96 
L 115.058403 -41.96 
L 115.560591 -41.96 
L 116.062778 -41.96 
L 116.564965 -41.96 
L 117.067152 -41.96 
L 117.569339 -41.96 
L 118.071527 -41.96 
L 118.573714 -41.96 
L 119.075901 -41.96 
L 119.578088 -41.96 
L 120.080275 -41.96 
L 120.582462 -41.96 
L 121.08465 -41.96 
L 121.586837 -41.96 
L 122.089024 -41.96 
L 122.591211 -41.96 
L 123.093398 -41.96 
L 123.595586 -41.96 
L 124.097773 -41.96 
L 124.59996 -41.96 
L 125.102147 -41.96 
L 125.604334 -41.96 
L 126.106522 -41.96 
L 126.608709 -41.96 
L 127.110896 -41.96 
L 127.613083 -41.96 
L 128.11527 -41.96 
L 128.617457 -41.96 
L 129.119645 -41.96 
L 129.621832 -41.96 
L 130.124019 -41.96 
L 130.626206 -41.96 
L 131.128393 -41.96 
L 131.630581 -41.96 
L 132.132768 -41.96 
L 132.634955 -41.96 
L 133.137142 -41.96 
L 133.639329 -41.96 
L 134.141517 -41.96 
L 134.643704 -41.96 
L 135.145891 -41.96 
L 135.648078 -41.96 
L 136.150265 -41.96 
L 136.652452 -41.96 
L 137.15464 -41.96 
L 137.656827 -41.96 
L 138.159014 -41.96 
L 138.661201 -41.96 
L 139.163388 -41.96 
L 139.665576 -41.96 
L 140.167763 -41.96 
L 140.66995 -41.96 
L 141.172137 -41.96 
L 141.674324 -41.96 
L 142.176512 -41.96 
L 142.678699 -41.96 
L 143.180886 -41.96 
L 143.683073 -41.96 
L 144.18526 -41.96 
L 144.687447 -41.96 
L 145.189635 -41.96 
L 145.691822 -41.96 
L 146.194009 -41.96 
L 146.696196 -41.96 
L 147.198383 -41.96 
L 147.700571 -41.96 
L 148.202758 -41.96 
L 148.704945 -41.96 
L 149.207132 -41.96 
L 149.709319 -41.96 
L 150.211507 -41.96 
L 150.713694 -41.96 
L 151.215881 -41.96 
L 151.718068 -41.96 
L 152.220255 -41.96 
L 152.722442 -41.96 
L 153.22463 -41.96 
L 153.726817 -41.96 
L 154.229004 -41.96 
L 154.731191 -41.96 
L 155.233378 -41.96 
L 155.735566 -41.96 
L 156.237753 -41.96 
L 156.73994 -41.96 
L 157.242127 -41.96 
L 157.744314 -41.96 
L 158.246502 -41.96 
L 158.748689 -41.96 
L 159.250876 -41.96 
L 159.753063 -41.96 
L 160.25525 -41.96 
L 160.757437 -41.96 
L 161.259625 -41.96 
L 161.761812 -41.96 
L 162.263999 -41.96 
L 162.766186 -41.96 
L 163.268373 -41.96 
L 163.770561 -41.96 
L 164.272748 -41.96 
L 164.774935 -41.96 
L 165.277122 -41.96 
L 165.779309 -41.96 
L 166.281496 -41.96 
L 166.783684 -41.96 
L 167.285871 -41.96 
L 167.788058 -41.96 
L 168.290245 -41.96 
L 168.792432 -41.96 
L 169.29462 -41.96 
L 169.796807 -41.96 
L 170.298994 -41.96 
L 170.801181 -41.96 
L 171.303368 -41.96 
L 171.805556 -41.96 
L 172.307743 -41.96 
L 172.80993 -41.96 
L 173.312117 -41.96 
L 173.814304 -41.96 
L 174.316491 -41.96 
L 174.818679 -41.96 
L 175.320866 -41.96 
L 175.823053 -41.96 
L 176.32524 -41.96 
L 176.827427 -41.96 
L 177.329615 -41.96 
L 177.831802 -41.96 
L 178.333989 -41.96 
L 178.836176 -41.96 
L 179.338363 -41.96 
L 179.840551 -41.96 
L 180.342738 -41.96 
L 180.844925 -41.96 
L 181.347112 -41.96 
L 181.849299 -41.96 
L 182.351486 -41.96 
L 182.853674 -41.96 
L 183.355861 -41.96 
L 183.858048 -41.96 
L 184.360235 -41.96 
L 184.862422 -41.96 
L 185.36461 -41.96 
L 185.866797 -41.96 
L 186.368984 -41.96 
L 186.871171 -41.96 
L 187.373358 -41.96 
L 187.875546 -41.96 
L 188.377733 -41.96 
L 188.87992 -41.96 
L 189.382107 -41.96 
L 189.884294 -41.96 
L 190.386481 -41.96 
L 190.888669 -41.96 
L 191.390856 -41.96 
L 191.893043 -41.96 
L 192.39523 -41.96 
L 192.897417 -41.96 
L 193.399605 -41.96 
L 193.901792 -41.96 
L 194.403979 -41.96 
L 194.906166 -41.96 
L 195.408353 -41.96 
L 195.910541 -41.96 
L 196.412728 -41.96 
L 196.914915 -41.96 
L 197.417102 -41.96 
L 197.919289 -41.96 
L 198.421476 -41.96 
L 198.923664 -41.96 
L 199.425851 -41.96 
L 199.928038 -41.96 
L 200.430225 -41.96 
L 200.932412 -41.96 
L 201.4346 -41.96 
L 201.936787 -41.96 
L 202.438974 -41.96 
L 202.941161 -41.96 
L 203.443348 -41.96 
L 203.945536 -41.96 
L 204.447723 -41.96 
L 204.94991 -41.96 
L 205.452097 -41.96 
L 205.954284 -41.96 
L 206.456471 -41.96 
L 206.958659 -41.96 
L 207.460846 -41.96 
L 207.963033 -41.96 
L 208.46522 -41.96 
L 208.967407 -41.96 
L 209.469595 -41.96 
L 209.971782 -41.96 
L 210.473969 -41.96 
L 210.976156 -41.96 
L 211.478343 -41.96 
L 211.980531 -41.96 
L 212.482718 -41.96 
L 212.984905 -41.96 
L 213.487092 -41.96 
L 213.989279 -41.96 
L 214.491466 -41.96 
L 214.993654 -41.96 
L 215.495841 -41.96 
L 215.998028 -41.96 
L 216.500215 -41.96 
L 217.002402 -41.96 
L 217.50459 -41.96 
L 218.006777 -41.96 
L 218.508964 -41.96 
L 219.011151 -41.96 
L 219.513338 -41.96 
L 220.015526 -41.96 
L 220.517713 -41.96 
L 221.0199 -41.96 
L 221.522087 -41.96 
L 222.024274 -41.96 
L 222.526461 -41.96 
L 223.028649 -41.96 
L 223.530836 -41.96 
L 224.033023 -41.96 
L 224.53521 -41.96 
L 225.037397 -41.96 
L 225.539585 -41.96 
L 226.041772 -41.96 
L 226.543959 -41.96 
L 227.046146 -41.96 
L 227.548333 -41.96 
L 228.050521 -41.96 
L 228.552708 -41.96 
L 229.054895 -41.96 
L 229.557082 -41.96 
L 230.059269 -41.96 
L 230.561456 -41.96 
L 231.063644 -41.96 
L 231.565831 -41.96 
L 232.068018 -41.96 
L 232.570205 -41.96 
L 233.072392 -41.96 
L 233.57458 -41.96 
L 234.076767 -41.96 
L 234.578954 -41.96 
L 235.081141 -41.96 
L 235.583328 -41.96 
L 236.085516 -41.96 
L 236.587703 -41.96 
L 237.08989 -41.96 
L 237.592077 -41.96 
L 238.094264 -41.96 
L 238.596451 -41.96 
L 239.098639 -41.96 
L 239.600826 -41.96 
L 240.103013 -41.96 
L 240.6052 -41.96 
L 241.107387 -41.96 
L 241.609575 -41.96 
L 242.111762 -41.96 
L 242.613949 -41.96 
L 243.116136 -41.96 
L 243.618323 -41.96 
L 244.120511 -41.96 
L 244.622698 -41.96 
L 245.124885 -41.96 
L 245.627072 -41.96 
L 246.129259 -41.96 
L 246.631446 -41.96 
L 247.133634 -41.96 
L 247.635821 -41.96 
L 248.138008 -41.96 
L 248.640195 -41.96 
L 249.142382 -41.96 
L 249.64457 -41.96 
L 250.146757 -41.96 
L 250.648944 -41.96 
L 251.151131 -41.96 
L 251.653318 -41.96 
L 252.155506 -41.96 
L 252.657693 -41.96 
L 253.15988 -41.96 
L 253.662067 -41.96 
L 254.164254 -41.96 
L 254.666441 -41.96 
L 255.168629 -41.96 
L 255.670816 -41.96 
L 256.173003 -41.96 
L 256.67519 -41.96 
L 257.177377 -41.96 
L 257.679565 -41.96 
L 258.181752 -41.96 
L 258.683939 -41.96 
L 259.186126 -41.96 
L 259.688313 -41.96 
L 260.190501 -41.96 
L 260.692688 -41.96 
L 261.194875 -41.96 
L 261.697062 -41.96 
L 262.199249 -41.96 
L 262.701436 -41.96 
L 263.203624 -41.96 
L 263.705811 -41.96 
L 264.207998 -41.96 
L 264.710185 -41.96 
L 265.212372 -41.96 
L 265.71456 -41.96 
L 266.216747 -41.96 
L 266.718934 -41.96 
L 267.221121 -41.96 
L 267.723308 -41.96 
L 268.225495 -41.96 
L 268.727683 -41.96 
L 269.22987 -41.96 
L 269.732057 -41.96 
L 270.234244 -41.96 
L 270.736431 -41.96 
L 271.238619 -41.96 
L 271.740806 -41.96 
L 272.242993 -41.96 
L 272.74518 -41.96 
L 273.247367 -41.96 
L 273.749555 -41.96 
L 274.251742 -41.96 
L 274.753929 -41.96 
L 275.256116 -41.96 
L 275.758303 -41.96 
L 276.26049 -41.96 
L 276.762678 -41.96 
L 277.264865 -41.96 
L 277.767052 -41.96 
L 278.269239 -41.96 
L 278.771426 -41.96 
L 279.273614 -41.96 
L 279.775801 -41.96 
L 280.277988 -41.96 
L 280.780175 -41.96 
L 281.282362 -41.96 
L 281.78455 -41.96 
L 282.286737 -41.96 
L 282.788924 -41.96 
L 283.291111 -41.96 
L 283.793298 -41.96 
L 284.295485 -41.96 
L 284.797673 -41.96 
L 285.29986 -41.96 
L 285.802047 -41.96 
L 286.304234 -41.96 
L 286.806421 -41.96 
L 287.308609 -41.96 
L 287.810796 -41.96 
L 288.312983 -41.96 
L 288.81517 -41.96 
L 289.317357 -41.96 
L 289.819545 -41.96 
L 290.321732 -41.96 
L 290.823919 -41.96 
L 291.326106 -41.96 
L 291.828293 -41.96 
L 292.33048 -41.96 
L 292.832668 -41.96 
L 293.334855 -41.96 
L 293.837042 -41.96 
L 294.339229 -41.96 
L 294.841416 -41.96 
L 295.343604 -41.96 
L 295.845791 -41.96 
L 296.347978 -41.96 
L 296.850165 -41.96 
L 297.352352 -41.96 
L 297.85454 -41.96 
L 298.356727 -41.96 
L 298.858914 -41.96 
L 299.361101 -41.96 
L 299.863288 -41.96 
L 300.365475 -41.96 
L 300.867663 -41.96 
L 301.36985 -41.96 
L 301.872037 -41.96 
L 302.374224 -41.96 
L 302.876411 -41.96 
L 303.378599 -41.96 
L 303.880786 -41.96 
L 304.382973 -41.96 
L 304.88516 -41.96 
L 305.387347 -41.96 
L 305.889535 -41.96 
L 306.391722 -41.96 
L 306.893909 -41.96 
L 307.396096 -41.96 
L 307.898283 -41.96 
L 308.40047 -41.96 
L 308.902658 -41.96 
L 309.404845 -41.96 
L 309.907032 -41.96 
L 310.409219 -41.96 
L 310.911406 -41.96 
L 310.911406 -124.482696 
L 310.911406 -124.482696 
L 310.409219 -124.336992 
L 309.907032 -124.191488 
L 309.404845 -124.046182 
L 308.902658 -123.901075 
L 308.40047 -123.756167 
L 307.898283 -123.611457 
L 307.396096 -123.466946 
L 306.893909 -123.322633 
L 306.391722 -123.178518 
L 305.889535 -123.034601 
L 305.387347 -122.890882 
L 304.88516 -122.74736 
L 304.382973 -122.604036 
L 303.880786 -122.460909 
L 303.378599 -122.317979 
L 302.876411 -122.175247 
L 302.374224 -122.032711 
L 301.872037 -121.890372 
L 301.36985 -121.74823 
L 300.867663 -121.606284 
L 300.365475 -121.464534 
L 299.863288 -121.32298 
L 299.361101 -121.181623 
L 298.858914 -121.040461 
L 298.356727 -120.899495 
L 297.85454 -120.758725 
L 297.352352 -120.61815 
L 296.850165 -120.47777 
L 296.347978 -120.337585 
L 295.845791 -120.197595 
L 295.343604 -120.0578 
L 294.841416 -119.9182 
L 294.339229 -119.778794 
L 293.837042 -119.639583 
L 293.334855 -119.500566 
L 292.832668 -119.361742 
L 292.33048 -119.223113 
L 291.828293 -119.084677 
L 291.326106 -118.946435 
L 290.823919 -118.808387 
L 290.321732 -118.670532 
L 289.819545 -118.532869 
L 289.317357 -118.3954 
L 288.81517 -118.258124 
L 288.312983 -118.12104 
L 287.810796 -117.984149 
L 287.308609 -117.84745 
L 286.806421 -117.710944 
L 286.304234 -117.574629 
L 285.802047 -117.438507 
L 285.29986 -117.302576 
L 284.797673 -117.166837 
L 284.295485 -117.031289 
L 283.793298 -116.895932 
L 283.291111 -116.760767 
L 282.788924 -116.625793 
L 282.286737 -116.491009 
L 281.78455 -116.356416 
L 281.282362 -116.222014 
L 280.780175 -116.087802 
L 280.277988 -115.953781 
L 279.775801 -115.819949 
L 279.273614 -115.686307 
L 278.771426 -115.552855 
L 278.269239 -115.419593 
L 277.767052 -115.28652 
L 277.264865 -115.153637 
L 276.762678 -115.020942 
L 276.26049 -114.888437 
L 275.758303 -114.75612 
L 275.256116 -114.623992 
L 274.753929 -114.492053 
L 274.251742 -114.360302 
L 273.749555 -114.228739 
L 273.247367 -114.097364 
L 272.74518 -113.966177 
L 272.242993 -113.835178 
L 271.740806 -113.704366 
L 271.238619 -113.573742 
L 270.736431 -113.443305 
L 270.234244 -113.313055 
L 269.732057 -113.182992 
L 269.22987 -113.053116 
L 268.727683 -112.923427 
L 268.225495 -112.793924 
L 267.723308 -112.664607 
L 267.221121 -112.535477 
L 266.718934 -112.406532 
L 266.216747 -112.277774 
L 265.71456 -112.149201 
L 265.212372 -112.020813 
L 264.710185 -111.892611 
L 264.207998 -111.764595 
L 263.705811 -111.636763 
L 263.203624 -111.509116 
L 262.701436 -111.381654 
L 262.199249 -111.254377 
L 261.697062 -111.127284 
L 261.194875 -111.000375 
L 260.692688 -110.87365 
L 260.190501 -110.747109 
L 259.688313 -110.620753 
L 259.186126 -110.494579 
L 258.683939 -110.368589 
L 258.181752 -110.242783 
L 257.679565 -110.11716 
L 257.177377 -109.991719 
L 256.67519 -109.866462 
L 256.173003 -109.741387 
L 255.670816 -109.616495 
L 255.168629 -109.491785 
L 254.666441 -109.367257 
L 254.164254 -109.242911 
L 253.662067 -109.118747 
L 253.15988 -108.994765 
L 252.657693 -108.870965 
L 252.155506 -108.747346 
L 251.653318 -108.623908 
L 251.151131 -108.500651 
L 250.648944 -108.377575 
L 250.146757 -108.25468 
L 249.64457 -108.131965 
L 249.142382 -108.009431 
L 248.640195 -107.887077 
L 248.138008 -107.764903 
L 247.635821 -107.642909 
L 247.133634 -107.521095 
L 246.631446 -107.399461 
L 246.129259 -107.278006 
L 245.627072 -107.15673 
L 245.124885 -107.035634 
L 244.622698 -106.914717 
L 244.120511 -106.793978 
L 243.618323 -106.673418 
L 243.116136 -106.553036 
L 242.613949 -106.432833 
L 242.111762 -106.312808 
L 241.609575 -106.192961 
L 241.107387 -106.073292 
L 240.6052 -105.953801 
L 240.103013 -105.834487 
L 239.600826 -105.71535 
L 239.098639 -105.596391 
L 238.596451 -105.477608 
L 238.094264 -105.359003 
L 237.592077 -105.240574 
L 237.08989 -105.122322 
L 236.587703 -105.004246 
L 236.085516 -104.886346 
L 235.583328 -104.768623 
L 235.081141 -104.651075 
L 234.578954 -104.533703 
L 234.076767 -104.416507 
L 233.57458 -104.299486 
L 233.072392 -104.182641 
L 232.570205 -104.06597 
L 232.068018 -103.949474 
L 231.565831 -103.833153 
L 231.063644 -103.717007 
L 230.561456 -103.601035 
L 230.059269 -103.485237 
L 229.557082 -103.369614 
L 229.054895 -103.254164 
L 228.552708 -103.138889 
L 228.050521 -103.023786 
L 227.548333 -102.908858 
L 227.046146 -102.794102 
L 226.543959 -102.67952 
L 226.041772 -102.56511 
L 225.539585 -102.450874 
L 225.037397 -102.33681 
L 224.53521 -102.222918 
L 224.033023 -102.109199 
L 223.530836 -101.995652 
L 223.028649 -101.882277 
L 222.526461 -101.769073 
L 222.024274 -101.656041 
L 221.522087 -101.543181 
L 221.0199 -101.430492 
L 220.517713 -101.317974 
L 220.015526 -101.205628 
L 219.513338 -101.093452 
L 219.011151 -100.981446 
L 218.508964 -100.869611 
L 218.006777 -100.757947 
L 217.50459 -100.646453 
L 217.002402 -100.535128 
L 216.500215 -100.423974 
L 215.998028 -100.312989 
L 215.495841 -100.202173 
L 214.993654 -100.091527 
L 214.491466 -99.98105 
L 213.989279 -99.870742 
L 213.487092 -99.760603 
L 212.984905 -99.650633 
L 212.482718 -99.540831 
L 211.980531 -99.431197 
L 211.478343 -99.321732 
L 210.976156 -99.212434 
L 210.473969 -99.103305 
L 209.971782 -98.994343 
L 209.469595 -98.885548 
L 208.967407 -98.776921 
L 208.46522 -98.668461 
L 207.963033 -98.560169 
L 207.460846 -98.452042 
L 206.958659 -98.344083 
L 206.456471 -98.23629 
L 205.954284 -98.128664 
L 205.452097 -98.021203 
L 204.94991 -97.913909 
L 204.447723 -97.806781 
L 203.945536 -97.699818 
L 203.443348 -97.593021 
L 202.941161 -97.486389 
L 202.438974 -97.379922 
L 201.936787 -97.27362 
L 201.4346 -97.167483 
L 200.932412 -97.061511 
L 200.430225 -96.955704 
L 199.928038 -96.85006 
L 199.425851 -96.744581 
L 198.923664 -96.639266 
L 198.421476 -96.534115 
L 197.919289 -96.429127 
L 197.417102 -96.324303 
L 196.914915 -96.219643 
L 196.412728 -96.115145 
L 195.910541 -96.010811 
L 195.408353 -95.906639 
L 194.906166 -95.80263 
L 194.403979 -95.698784 
L 193.901792 -95.595099 
L 193.399605 -95.491578 
L 192.897417 -95.388218 
L 192.39523 -95.28502 
L 191.893043 -95.181983 
L 191.390856 -95.079109 
L 190.888669 -94.976395 
L 190.386481 -94.873843 
L 189.884294 -94.771452 
L 189.382107 -94.669221 
L 188.87992 -94.567151 
L 188.377733 -94.465242 
L 187.875546 -94.363493 
L 187.373358 -94.261905 
L 186.871171 -94.160476 
L 186.368984 -94.059207 
L 185.866797 -93.958098 
L 185.36461 -93.857149 
L 184.862422 -93.756358 
L 184.360235 -93.655727 
L 183.858048 -93.555255 
L 183.355861 -93.454942 
L 182.853674 -93.354787 
L 182.351486 -93.254791 
L 181.849299 -93.154954 
L 181.347112 -93.055274 
L 180.844925 -92.955753 
L 180.342738 -92.856389 
L 179.840551 -92.757183 
L 179.338363 -92.658135 
L 178.836176 -92.559244 
L 178.333989 -92.46051 
L 177.831802 -92.361933 
L 177.329615 -92.263513 
L 176.827427 -92.165249 
L 176.32524 -92.067143 
L 175.823053 -91.969192 
L 175.320866 -91.871398 
L 174.818679 -91.773759 
L 174.316491 -91.676277 
L 173.814304 -91.57895 
L 173.312117 -91.481779 
L 172.80993 -91.384763 
L 172.307743 -91.287902 
L 171.805556 -91.191196 
L 171.303368 -91.094645 
L 170.801181 -90.998249 
L 170.298994 -90.902007 
L 169.796807 -90.805919 
L 169.29462 -90.709986 
L 168.792432 -90.614207 
L 168.290245 -90.518581 
L 167.788058 -90.423109 
L 167.285871 -90.327791 
L 166.783684 -90.232626 
L 166.281496 -90.137614 
L 165.779309 -90.042755 
L 165.277122 -89.948049 
L 164.774935 -89.853496 
L 164.272748 -89.759095 
L 163.770561 -89.664847 
L 163.268373 -89.57075 
L 162.766186 -89.476806 
L 162.263999 -89.383013 
L 161.761812 -89.289372 
L 161.259625 -89.195883 
L 160.757437 -89.102545 
L 160.25525 -89.009358 
L 159.753063 -88.916322 
L 159.250876 -88.823437 
L 158.748689 -88.730703 
L 158.246502 -88.638119 
L 157.744314 -88.545685 
L 157.242127 -88.453402 
L 156.73994 -88.361268 
L 156.237753 -88.269285 
L 155.735566 -88.177451 
L 155.233378 -88.085766 
L 154.731191 -87.994231 
L 154.229004 -87.902845 
L 153.726817 -87.811608 
L 153.22463 -87.72052 
L 152.722442 -87.62958 
L 152.220255 -87.538789 
L 151.718068 -87.448146 
L 151.215881 -87.357651 
L 150.713694 -87.267305 
L 150.211507 -87.177106 
L 149.709319 -87.087055 
L 149.207132 -86.997151 
L 148.704945 -86.907395 
L 148.202758 -86.817786 
L 147.700571 -86.728323 
L 147.198383 -86.639008 
L 146.696196 -86.549839 
L 146.194009 -86.460817 
L 145.691822 -86.371941 
L 145.189635 -86.283211 
L 144.687447 -86.194627 
L 144.18526 -86.106189 
L 143.683073 -86.017897 
L 143.180886 -85.92975 
L 142.678699 -85.841749 
L 142.176512 -85.753892 
L 141.674324 -85.666181 
L 141.172137 -85.578614 
L 140.66995 -85.491192 
L 140.167763 -85.403915 
L 139.665576 -85.316782 
L 139.163388 -85.229793 
L 138.661201 -85.142948 
L 138.159014 -85.056247 
L 137.656827 -84.969689 
L 137.15464 -84.883275 
L 136.652452 -84.797004 
L 136.150265 -84.710877 
L 135.648078 -84.624892 
L 135.145891 -84.53905 
L 134.643704 -84.453351 
L 134.141517 -84.367795 
L 133.639329 -84.282381 
L 133.137142 -84.197108 
L 132.634955 -84.111978 
L 132.132768 -84.02699 
L 131.630581 -83.942144 
L 131.128393 -83.857438 
L 130.626206 -83.772875 
L 130.124019 -83.688452 
L 129.621832 -83.60417 
L 129.119645 -83.52003 
L 128.617457 -83.436029 
L 128.11527 -83.35217 
L 127.613083 -83.268451 
L 127.110896 -83.184871 
L 126.608709 -83.101432 
L 126.106522 -83.018133 
L 125.604334 -82.934974 
L 125.102147 -82.851953 
L 124.59996 -82.769073 
L 124.097773 -82.686331 
L 123.595586 -82.603729 
L 123.093398 -82.521265 
L 122.591211 -82.43894 
L 122.089024 -82.356753 
L 121.586837 -82.274705 
L 121.08465 -82.192795 
L 120.582462 -82.111023 
L 120.080275 -82.029389 
L 119.578088 -81.947893 
L 119.075901 -81.866534 
L 118.573714 -81.785313 
L 118.071527 -81.704228 
L 117.569339 -81.623281 
L 117.067152 -81.542471 
L 116.564965 -81.461797 
L 116.062778 -81.38126 
L 115.560591 -81.300859 
L 115.058403 -81.220595 
L 114.556216 -81.140466 
L 114.054029 -81.060474 
L 113.551842 -80.980617 
L 113.049655 -80.900895 
L 112.547467 -80.821309 
L 112.04528 -80.741859 
L 111.543093 -80.662543 
L 111.040906 -80.583362 
L 110.538719 -80.504316 
L 110.036532 -80.425405 
L 109.534344 -80.346628 
L 109.032157 -80.267985 
L 108.52997 -80.189476 
L 108.027783 -80.111101 
L 107.525596 -80.03286 
L 107.023408 -79.954752 
L 106.521221 -79.876778 
L 106.019034 -79.798938 
L 105.516847 -79.72123 
L 105.01466 -79.643655 
L 104.512472 -79.566213 
L 104.010285 -79.488903 
L 103.508098 -79.411726 
L 103.005911 -79.334682 
L 102.503724 -79.257769 
L 102.001537 -79.180989 
L 101.499349 -79.10434 
L 100.997162 -79.027822 
L 100.494975 -78.951437 
L 99.992788 -78.875182 
L 99.490601 -78.799059 
L 98.988413 -78.723066 
L 98.486226 -78.647205 
L 97.984039 -78.571474 
L 97.481852 -78.495873 
L 96.979665 -78.420403 
L 96.477477 -78.345063 
L 95.97529 -78.269853 
L 95.473103 -78.194773 
L 94.970916 -78.119823 
L 94.468729 -78.045002 
L 93.966542 -77.97031 
L 93.464354 -77.895748 
L 92.962167 -77.821315 
L 92.45998 -77.74701 
L 91.957793 -77.672834 
L 91.455606 -77.598787 
L 90.953418 -77.524868 
L 90.451231 -77.451077 
L 89.949044 -77.377415 
L 89.446857 -77.30388 
L 88.94467 -77.230473 
L 88.442482 -77.157193 
L 87.940295 -77.084041 
L 87.438108 -77.011017 
L 86.935921 -76.938119 
L 86.433734 -76.865348 
L 85.931547 -76.792704 
L 85.429359 -76.720186 
L 84.927172 -76.647795 
L 84.424985 -76.575531 
L 83.922798 -76.503392 
L 83.420611 -76.431379 
L 82.918423 -76.359493 
L 82.416236 -76.287731 
L 81.914049 -76.216096 
L 81.411862 -76.144585 
L 80.909675 -76.0732 
L 80.407487 -76.00194 
L 79.9053 -75.930804 
L 79.403113 -75.859793 
L 78.900926 -75.788907 
L 78.398739 -75.718145 
L 77.896552 -75.647507 
L 77.394364 -75.576994 
L 76.892177 -75.506604 
L 76.38999 -75.436338 
L 75.887803 -75.366195 
L 75.385616 -75.296176 
L 74.883428 -75.22628 
L 74.381241 -75.156507 
L 73.879054 -75.086857 
L 73.376867 -75.01733 
L 72.87468 -74.947925 
L 72.372492 -74.878643 
L 71.870305 -74.809483 
L 71.368118 -74.740445 
L 70.865931 -74.671529 
L 70.363744 -74.602735 
L 69.861557 -74.534063 
L 69.359369 -74.465512 
L 68.857182 -74.397082 
L 68.354995 -74.328774 
L 67.852808 -74.260586 
L 67.350621 -74.192519 
L 66.848433 -74.124574 
L 66.346246 -74.056748 
L 65.844059 -73.989043 
L 65.341872 -73.921458 
L 64.839685 -73.853994 
L 64.337497 -73.786649 
L 63.83531 -73.719423 
L 63.333123 -73.652318 
L 62.830936 -73.585332 
L 62.328749 -73.518465 
L 61.826562 -73.451717 
L 61.324374 -73.385088 
L 60.822187 -73.318578 
L 60.32 -73.252187 
z
" style="stroke: #ffcccc"/>
    </defs>
    <g clip-path="url(#pf95bf6a2a0)">
     <use xlink:href="#m08c0f62f50" x="0" y="288" style="fill: #ffcccc; stroke: #ffcccc"/>
    </g>
   </g>
   <g id="FillBetweenPolyCollection_2">
    <defs>
     <path id="mbe7d4720d1" d="M 311.413594 -124.628599 
L 311.413594 -41.96 
L 311.915781 -41.96 
L 312.417968 -41.96 
L 312.920155 -41.96 
L 313.422342 -41.96 
L 313.92453 -41.96 
L 314.426717 -41.96 
L 314.928904 -41.96 
L 315.431091 -41.96 
L 315.933278 -41.96 
L 316.435465 -41.96 
L 316.937653 -41.96 
L 317.43984 -41.96 
L 317.942027 -41.96 
L 318.444214 -41.96 
L 318.946401 -41.96 
L 319.448589 -41.96 
L 319.950776 -41.96 
L 320.452963 -41.96 
L 320.95515 -41.96 
L 321.457337 -41.96 
L 321.959525 -41.96 
L 322.461712 -41.96 
L 322.963899 -41.96 
L 323.466086 -41.96 
L 323.968273 -41.96 
L 324.47046 -41.96 
L 324.972648 -41.96 
L 325.474835 -41.96 
L 325.977022 -41.96 
L 326.479209 -41.96 
L 326.981396 -41.96 
L 327.483584 -41.96 
L 327.985771 -41.96 
L 328.487958 -41.96 
L 328.990145 -41.96 
L 329.492332 -41.96 
L 329.99452 -41.96 
L 330.496707 -41.96 
L 330.998894 -41.96 
L 331.501081 -41.96 
L 332.003268 -41.96 
L 332.505455 -41.96 
L 333.007643 -41.96 
L 333.50983 -41.96 
L 334.012017 -41.96 
L 334.514204 -41.96 
L 335.016391 -41.96 
L 335.518579 -41.96 
L 336.020766 -41.96 
L 336.522953 -41.96 
L 337.02514 -41.96 
L 337.527327 -41.96 
L 338.029515 -41.96 
L 338.531702 -41.96 
L 339.033889 -41.96 
L 339.536076 -41.96 
L 340.038263 -41.96 
L 340.54045 -41.96 
L 341.042638 -41.96 
L 341.544825 -41.96 
L 342.047012 -41.96 
L 342.549199 -41.96 
L 343.051386 -41.96 
L 343.553574 -41.96 
L 344.055761 -41.96 
L 344.557948 -41.96 
L 345.060135 -41.96 
L 345.562322 -41.96 
L 346.06451 -41.96 
L 346.566697 -41.96 
L 347.068884 -41.96 
L 347.571071 -41.96 
L 348.073258 -41.96 
L 348.575445 -41.96 
L 349.077633 -41.96 
L 349.57982 -41.96 
L 350.082007 -41.96 
L 350.584194 -41.96 
L 351.086381 -41.96 
L 351.588569 -41.96 
L 352.090756 -41.96 
L 352.592943 -41.96 
L 353.09513 -41.96 
L 353.597317 -41.96 
L 354.099505 -41.96 
L 354.601692 -41.96 
L 355.103879 -41.96 
L 355.606066 -41.96 
L 356.108253 -41.96 
L 356.61044 -41.96 
L 357.112628 -41.96 
L 357.614815 -41.96 
L 358.117002 -41.96 
L 358.619189 -41.96 
L 359.121376 -41.96 
L 359.623564 -41.96 
L 360.125751 -41.96 
L 360.627938 -41.96 
L 361.130125 -41.96 
L 361.632312 -41.96 
L 362.134499 -41.96 
L 362.636687 -41.96 
L 363.138874 -41.96 
L 363.641061 -41.96 
L 364.143248 -41.96 
L 364.645435 -41.96 
L 365.147623 -41.96 
L 365.64981 -41.96 
L 366.151997 -41.96 
L 366.654184 -41.96 
L 367.156371 -41.96 
L 367.658559 -41.96 
L 368.160746 -41.96 
L 368.662933 -41.96 
L 369.16512 -41.96 
L 369.667307 -41.96 
L 370.169494 -41.96 
L 370.671682 -41.96 
L 371.173869 -41.96 
L 371.676056 -41.96 
L 372.178243 -41.96 
L 372.68043 -41.96 
L 373.182618 -41.96 
L 373.684805 -41.96 
L 374.186992 -41.96 
L 374.689179 -41.96 
L 375.191366 -41.96 
L 375.693554 -41.96 
L 376.195741 -41.96 
L 376.697928 -41.96 
L 377.200115 -41.96 
L 377.702302 -41.96 
L 378.204489 -41.96 
L 378.706677 -41.96 
L 379.208864 -41.96 
L 379.711051 -41.96 
L 380.213238 -41.96 
L 380.715425 -41.96 
L 381.217613 -41.96 
L 381.7198 -41.96 
L 382.221987 -41.96 
L 382.724174 -41.96 
L 383.226361 -41.96 
L 383.728549 -41.96 
L 384.230736 -41.96 
L 384.732923 -41.96 
L 385.23511 -41.96 
L 385.737297 -41.96 
L 386.239484 -41.96 
L 386.741672 -41.96 
L 387.243859 -41.96 
L 387.746046 -41.96 
L 388.248233 -41.96 
L 388.75042 -41.96 
L 389.252608 -41.96 
L 389.754795 -41.96 
L 390.256982 -41.96 
L 390.759169 -41.96 
L 391.261356 -41.96 
L 391.763544 -41.96 
L 392.265731 -41.96 
L 392.767918 -41.96 
L 393.270105 -41.96 
L 393.772292 -41.96 
L 394.274479 -41.96 
L 394.776667 -41.96 
L 395.278854 -41.96 
L 395.781041 -41.96 
L 396.283228 -41.96 
L 396.785415 -41.96 
L 397.287603 -41.96 
L 397.78979 -41.96 
L 398.291977 -41.96 
L 398.794164 -41.96 
L 399.296351 -41.96 
L 399.798539 -41.96 
L 400.300726 -41.96 
L 400.802913 -41.96 
L 401.3051 -41.96 
L 401.807287 -41.96 
L 402.309474 -41.96 
L 402.811662 -41.96 
L 403.313849 -41.96 
L 403.816036 -41.96 
L 404.318223 -41.96 
L 404.82041 -41.96 
L 405.322598 -41.96 
L 405.824785 -41.96 
L 406.326972 -41.96 
L 406.829159 -41.96 
L 407.331346 -41.96 
L 407.833534 -41.96 
L 408.335721 -41.96 
L 408.837908 -41.96 
L 409.340095 -41.96 
L 409.842282 -41.96 
L 410.344469 -41.96 
L 410.846657 -41.96 
L 411.348844 -41.96 
L 411.851031 -41.96 
L 412.353218 -41.96 
L 412.855405 -41.96 
L 413.357593 -41.96 
L 413.85978 -41.96 
L 414.361967 -41.96 
L 414.864154 -41.96 
L 415.366341 -41.96 
L 415.868529 -41.96 
L 416.370716 -41.96 
L 416.872903 -41.96 
L 417.37509 -41.96 
L 417.877277 -41.96 
L 418.379464 -41.96 
L 418.881652 -41.96 
L 419.383839 -41.96 
L 419.886026 -41.96 
L 420.388213 -41.96 
L 420.8904 -41.96 
L 421.392588 -41.96 
L 421.894775 -41.96 
L 422.396962 -41.96 
L 422.899149 -41.96 
L 423.401336 -41.96 
L 423.903524 -41.96 
L 424.405711 -41.96 
L 424.907898 -41.96 
L 425.410085 -41.96 
L 425.912272 -41.96 
L 426.414459 -41.96 
L 426.916647 -41.96 
L 427.418834 -41.96 
L 427.921021 -41.96 
L 428.423208 -41.96 
L 428.925395 -41.96 
L 429.427583 -41.96 
L 429.92977 -41.96 
L 430.431957 -41.96 
L 430.934144 -41.96 
L 431.436331 -41.96 
L 431.938519 -41.96 
L 432.440706 -41.96 
L 432.942893 -41.96 
L 433.44508 -41.96 
L 433.947267 -41.96 
L 434.449454 -41.96 
L 434.951642 -41.96 
L 435.453829 -41.96 
L 435.956016 -41.96 
L 436.458203 -41.96 
L 436.96039 -41.96 
L 437.462578 -41.96 
L 437.964765 -41.96 
L 438.466952 -41.96 
L 438.969139 -41.96 
L 439.471326 -41.96 
L 439.973514 -41.96 
L 440.475701 -41.96 
L 440.977888 -41.96 
L 441.480075 -41.96 
L 441.982262 -41.96 
L 442.484449 -41.96 
L 442.986637 -41.96 
L 443.488824 -41.96 
L 443.991011 -41.96 
L 444.493198 -41.96 
L 444.995385 -41.96 
L 445.497573 -41.96 
L 445.99976 -41.96 
L 446.501947 -41.96 
L 447.004134 -41.96 
L 447.506321 -41.96 
L 448.008509 -41.96 
L 448.510696 -41.96 
L 449.012883 -41.96 
L 449.51507 -41.96 
L 450.017257 -41.96 
L 450.519444 -41.96 
L 451.021632 -41.96 
L 451.523819 -41.96 
L 452.026006 -41.96 
L 452.528193 -41.96 
L 453.03038 -41.96 
L 453.532568 -41.96 
L 454.034755 -41.96 
L 454.536942 -41.96 
L 455.039129 -41.96 
L 455.541316 -41.96 
L 456.043504 -41.96 
L 456.545691 -41.96 
L 457.047878 -41.96 
L 457.550065 -41.96 
L 458.052252 -41.96 
L 458.554439 -41.96 
L 459.056627 -41.96 
L 459.558814 -41.96 
L 460.061001 -41.96 
L 460.563188 -41.96 
L 461.065375 -41.96 
L 461.567563 -41.96 
L 462.06975 -41.96 
L 462.571937 -41.96 
L 463.074124 -41.96 
L 463.576311 -41.96 
L 464.078498 -41.96 
L 464.580686 -41.96 
L 465.082873 -41.96 
L 465.58506 -41.96 
L 466.087247 -41.96 
L 466.589434 -41.96 
L 467.091622 -41.96 
L 467.593809 -41.96 
L 468.095996 -41.96 
L 468.598183 -41.96 
L 469.10037 -41.96 
L 469.602558 -41.96 
L 470.104745 -41.96 
L 470.606932 -41.96 
L 471.109119 -41.96 
L 471.611306 -41.96 
L 472.113493 -41.96 
L 472.615681 -41.96 
L 473.117868 -41.96 
L 473.620055 -41.96 
L 474.122242 -41.96 
L 474.624429 -41.96 
L 475.126617 -41.96 
L 475.628804 -41.96 
L 476.130991 -41.96 
L 476.633178 -41.96 
L 477.135365 -41.96 
L 477.637553 -41.96 
L 478.13974 -41.96 
L 478.641927 -41.96 
L 479.144114 -41.96 
L 479.646301 -41.96 
L 480.148488 -41.96 
L 480.650676 -41.96 
L 481.152863 -41.96 
L 481.65505 -41.96 
L 482.157237 -41.96 
L 482.659424 -41.96 
L 483.161612 -41.96 
L 483.663799 -41.96 
L 484.165986 -41.96 
L 484.668173 -41.96 
L 485.17036 -41.96 
L 485.672548 -41.96 
L 486.174735 -41.96 
L 486.676922 -41.96 
L 487.179109 -41.96 
L 487.681296 -41.96 
L 488.183483 -41.96 
L 488.685671 -41.96 
L 489.187858 -41.96 
L 489.690045 -41.96 
L 490.192232 -41.96 
L 490.694419 -41.96 
L 491.196607 -41.96 
L 491.698794 -41.96 
L 492.200981 -41.96 
L 492.703168 -41.96 
L 493.205355 -41.96 
L 493.707543 -41.96 
L 494.20973 -41.96 
L 494.711917 -41.96 
L 495.214104 -41.96 
L 495.716291 -41.96 
L 496.218478 -41.96 
L 496.720666 -41.96 
L 497.222853 -41.96 
L 497.72504 -41.96 
L 498.227227 -41.96 
L 498.729414 -41.96 
L 499.231602 -41.96 
L 499.733789 -41.96 
L 500.235976 -41.96 
L 500.738163 -41.96 
L 501.24035 -41.96 
L 501.742538 -41.96 
L 502.244725 -41.96 
L 502.746912 -41.96 
L 503.249099 -41.96 
L 503.751286 -41.96 
L 504.253473 -41.96 
L 504.755661 -41.96 
L 505.257848 -41.96 
L 505.760035 -41.96 
L 506.262222 -41.96 
L 506.764409 -41.96 
L 507.266597 -41.96 
L 507.768784 -41.96 
L 508.270971 -41.96 
L 508.773158 -41.96 
L 509.275345 -41.96 
L 509.777533 -41.96 
L 510.27972 -41.96 
L 510.781907 -41.96 
L 511.284094 -41.96 
L 511.786281 -41.96 
L 512.288468 -41.96 
L 512.790656 -41.96 
L 513.292843 -41.96 
L 513.79503 -41.96 
L 514.297217 -41.96 
L 514.799404 -41.96 
L 515.301592 -41.96 
L 515.803779 -41.96 
L 516.305966 -41.96 
L 516.808153 -41.96 
L 517.31034 -41.96 
L 517.812528 -41.96 
L 518.314715 -41.96 
L 518.816902 -41.96 
L 519.319089 -41.96 
L 519.821276 -41.96 
L 520.323463 -41.96 
L 520.825651 -41.96 
L 521.327838 -41.96 
L 521.830025 -41.96 
L 522.332212 -41.96 
L 522.834399 -41.96 
L 523.336587 -41.96 
L 523.838774 -41.96 
L 524.340961 -41.96 
L 524.843148 -41.96 
L 525.345335 -41.96 
L 525.847523 -41.96 
L 526.34971 -41.96 
L 526.851897 -41.96 
L 527.354084 -41.96 
L 527.856271 -41.96 
L 528.358458 -41.96 
L 528.860646 -41.96 
L 529.362833 -41.96 
L 529.86502 -41.96 
L 530.367207 -41.96 
L 530.869394 -41.96 
L 531.371582 -41.96 
L 531.873769 -41.96 
L 532.375956 -41.96 
L 532.878143 -41.96 
L 533.38033 -41.96 
L 533.882518 -41.96 
L 534.384705 -41.96 
L 534.886892 -41.96 
L 535.389079 -41.96 
L 535.891266 -41.96 
L 536.393453 -41.96 
L 536.895641 -41.96 
L 537.397828 -41.96 
L 537.900015 -41.96 
L 538.402202 -41.96 
L 538.904389 -41.96 
L 539.406577 -41.96 
L 539.908764 -41.96 
L 540.410951 -41.96 
L 540.913138 -41.96 
L 541.415325 -41.96 
L 541.917513 -41.96 
L 542.4197 -41.96 
L 542.921887 -41.96 
L 543.424074 -41.96 
L 543.926261 -41.96 
L 544.428448 -41.96 
L 544.930636 -41.96 
L 545.432823 -41.96 
L 545.93501 -41.96 
L 546.437197 -41.96 
L 546.939384 -41.96 
L 547.441572 -41.96 
L 547.943759 -41.96 
L 548.445946 -41.96 
L 548.948133 -41.96 
L 549.45032 -41.96 
L 549.952508 -41.96 
L 550.454695 -41.96 
L 550.956882 -41.96 
L 551.459069 -41.96 
L 551.961256 -41.96 
L 552.463443 -41.96 
L 552.965631 -41.96 
L 553.467818 -41.96 
L 553.970005 -41.96 
L 554.472192 -41.96 
L 554.974379 -41.96 
L 555.476567 -41.96 
L 555.978754 -41.96 
L 556.480941 -41.96 
L 556.983128 -41.96 
L 557.485315 -41.96 
L 557.987503 -41.96 
L 558.48969 -41.96 
L 558.991877 -41.96 
L 559.494064 -41.96 
L 559.996251 -41.96 
L 560.498438 -41.96 
L 561.000626 -41.96 
L 561.502813 -41.96 
L 562.005 -41.96 
L 562.005 -224.701818 
L 562.005 -224.701818 
L 561.502813 -224.443689 
L 561.000626 -224.185796 
L 560.498438 -223.928139 
L 559.996251 -223.670717 
L 559.494064 -223.413532 
L 558.991877 -223.156582 
L 558.48969 -222.899868 
L 557.987503 -222.64339 
L 557.485315 -222.387147 
L 556.983128 -222.131141 
L 556.480941 -221.875371 
L 555.978754 -221.619837 
L 555.476567 -221.364539 
L 554.974379 -221.109477 
L 554.472192 -220.854651 
L 553.970005 -220.600061 
L 553.467818 -220.345707 
L 552.965631 -220.091589 
L 552.463443 -219.837708 
L 551.961256 -219.584063 
L 551.459069 -219.330654 
L 550.956882 -219.077481 
L 550.454695 -218.824545 
L 549.952508 -218.571845 
L 549.45032 -218.319381 
L 548.948133 -218.067153 
L 548.445946 -217.815162 
L 547.943759 -217.563408 
L 547.441572 -217.311889 
L 546.939384 -217.060607 
L 546.437197 -216.809562 
L 545.93501 -216.558753 
L 545.432823 -216.30818 
L 544.930636 -216.057844 
L 544.428448 -215.807744 
L 543.926261 -215.557881 
L 543.424074 -215.308254 
L 542.921887 -215.058864 
L 542.4197 -214.80971 
L 541.917513 -214.560793 
L 541.415325 -214.312113 
L 540.913138 -214.063669 
L 540.410951 -213.815461 
L 539.908764 -213.567491 
L 539.406577 -213.319756 
L 538.904389 -213.072259 
L 538.402202 -212.824998 
L 537.900015 -212.577973 
L 537.397828 -212.331186 
L 536.895641 -212.084635 
L 536.393453 -211.83832 
L 535.891266 -211.592242 
L 535.389079 -211.346401 
L 534.886892 -211.100796 
L 534.384705 -210.855429 
L 533.882518 -210.610297 
L 533.38033 -210.365403 
L 532.878143 -210.120745 
L 532.375956 -209.876324 
L 531.873769 -209.632139 
L 531.371582 -209.388191 
L 530.869394 -209.14448 
L 530.367207 -208.901006 
L 529.86502 -208.657768 
L 529.362833 -208.414767 
L 528.860646 -208.172002 
L 528.358458 -207.929474 
L 527.856271 -207.687183 
L 527.354084 -207.445129 
L 526.851897 -207.203311 
L 526.34971 -206.96173 
L 525.847523 -206.720385 
L 525.345335 -206.479277 
L 524.843148 -206.238406 
L 524.340961 -205.997771 
L 523.838774 -205.757373 
L 523.336587 -205.517212 
L 522.834399 -205.277287 
L 522.332212 -205.037599 
L 521.830025 -204.798148 
L 521.327838 -204.558933 
L 520.825651 -204.319954 
L 520.323463 -204.081213 
L 519.821276 -203.842707 
L 519.319089 -203.604439 
L 518.816902 -203.366406 
L 518.314715 -203.128611 
L 517.812528 -202.891052 
L 517.31034 -202.653729 
L 516.808153 -202.416643 
L 516.305966 -202.179793 
L 515.803779 -201.94318 
L 515.301592 -201.706803 
L 514.799404 -201.470663 
L 514.297217 -201.234759 
L 513.79503 -200.999091 
L 513.292843 -200.76366 
L 512.790656 -200.528465 
L 512.288468 -200.293507 
L 511.786281 -200.058785 
L 511.284094 -199.824299 
L 510.781907 -199.590049 
L 510.27972 -199.356036 
L 509.777533 -199.122259 
L 509.275345 -198.888718 
L 508.773158 -198.655414 
L 508.270971 -198.422345 
L 507.768784 -198.189513 
L 507.266597 -197.956917 
L 506.764409 -197.724557 
L 506.262222 -197.492433 
L 505.760035 -197.260545 
L 505.257848 -197.028894 
L 504.755661 -196.797478 
L 504.253473 -196.566298 
L 503.751286 -196.335354 
L 503.249099 -196.104647 
L 502.746912 -195.874175 
L 502.244725 -195.643939 
L 501.742538 -195.413939 
L 501.24035 -195.184174 
L 500.738163 -194.954646 
L 500.235976 -194.725353 
L 499.733789 -194.496296 
L 499.231602 -194.267475 
L 498.729414 -194.03889 
L 498.227227 -193.81054 
L 497.72504 -193.582425 
L 497.222853 -193.354547 
L 496.720666 -193.126904 
L 496.218478 -192.899496 
L 495.716291 -192.672324 
L 495.214104 -192.445388 
L 494.711917 -192.218686 
L 494.20973 -191.992221 
L 493.707543 -191.76599 
L 493.205355 -191.539995 
L 492.703168 -191.314236 
L 492.200981 -191.088711 
L 491.698794 -190.863422 
L 491.196607 -190.638368 
L 490.694419 -190.413549 
L 490.192232 -190.188965 
L 489.690045 -189.964616 
L 489.187858 -189.740503 
L 488.685671 -189.516624 
L 488.183483 -189.29298 
L 487.681296 -189.069571 
L 487.179109 -188.846397 
L 486.676922 -188.623458 
L 486.174735 -188.400754 
L 485.672548 -188.178284 
L 485.17036 -187.956049 
L 484.668173 -187.734049 
L 484.165986 -187.512284 
L 483.663799 -187.290753 
L 483.161612 -187.069456 
L 482.659424 -186.848394 
L 482.157237 -186.627567 
L 481.65505 -186.406973 
L 481.152863 -186.186615 
L 480.650676 -185.96649 
L 480.148488 -185.7466 
L 479.646301 -185.526944 
L 479.144114 -185.307522 
L 478.641927 -185.088334 
L 478.13974 -184.869381 
L 477.637553 -184.650661 
L 477.135365 -184.432175 
L 476.633178 -184.213924 
L 476.130991 -183.995906 
L 475.628804 -183.778122 
L 475.126617 -183.560572 
L 474.624429 -183.343255 
L 474.122242 -183.126172 
L 473.620055 -182.909323 
L 473.117868 -182.692707 
L 472.615681 -182.476325 
L 472.113493 -182.260177 
L 471.611306 -182.044261 
L 471.109119 -181.82858 
L 470.606932 -181.613131 
L 470.104745 -181.397916 
L 469.602558 -181.182933 
L 469.10037 -180.968184 
L 468.598183 -180.753668 
L 468.095996 -180.539385 
L 467.593809 -180.325336 
L 467.091622 -180.111518 
L 466.589434 -179.897934 
L 466.087247 -179.684583 
L 465.58506 -179.471464 
L 465.082873 -179.258578 
L 464.580686 -179.045925 
L 464.078498 -178.833504 
L 463.576311 -178.621316 
L 463.074124 -178.40936 
L 462.571937 -178.197636 
L 462.06975 -177.986145 
L 461.567563 -177.774886 
L 461.065375 -177.563859 
L 460.563188 -177.353064 
L 460.061001 -177.142502 
L 459.558814 -176.932171 
L 459.056627 -176.722073 
L 458.554439 -176.512206 
L 458.052252 -176.302571 
L 457.550065 -176.093168 
L 457.047878 -175.883996 
L 456.545691 -175.675056 
L 456.043504 -175.466348 
L 455.541316 -175.257871 
L 455.039129 -175.049625 
L 454.536942 -174.841611 
L 454.034755 -174.633828 
L 453.532568 -174.426277 
L 453.03038 -174.218956 
L 452.528193 -174.011867 
L 452.026006 -173.805008 
L 451.523819 -173.598381 
L 451.021632 -173.391984 
L 450.519444 -173.185818 
L 450.017257 -172.979883 
L 449.51507 -172.774179 
L 449.012883 -172.568705 
L 448.510696 -172.363461 
L 448.008509 -172.158449 
L 447.506321 -171.953666 
L 447.004134 -171.749114 
L 446.501947 -171.544792 
L 445.99976 -171.3407 
L 445.497573 -171.136838 
L 444.995385 -170.933206 
L 444.493198 -170.729804 
L 443.991011 -170.526632 
L 443.488824 -170.32369 
L 442.986637 -170.120977 
L 442.484449 -169.918494 
L 441.982262 -169.716241 
L 441.480075 -169.514217 
L 440.977888 -169.312422 
L 440.475701 -169.110857 
L 439.973514 -168.909521 
L 439.471326 -168.708414 
L 438.969139 -168.507536 
L 438.466952 -168.306887 
L 437.964765 -168.106467 
L 437.462578 -167.906276 
L 436.96039 -167.706314 
L 436.458203 -167.50658 
L 435.956016 -167.307075 
L 435.453829 -167.107799 
L 434.951642 -166.908751 
L 434.449454 -166.709931 
L 433.947267 -166.51134 
L 433.44508 -166.312976 
L 432.942893 -166.114841 
L 432.440706 -165.916934 
L 431.938519 -165.719255 
L 431.436331 -165.521804 
L 430.934144 -165.32458 
L 430.431957 -165.127584 
L 429.92977 -164.930816 
L 429.427583 -164.734275 
L 428.925395 -164.537962 
L 428.423208 -164.341876 
L 427.921021 -164.146017 
L 427.418834 -163.950385 
L 426.916647 -163.754981 
L 426.414459 -163.559803 
L 425.912272 -163.364853 
L 425.410085 -163.170129 
L 424.907898 -162.975632 
L 424.405711 -162.781361 
L 423.903524 -162.587317 
L 423.401336 -162.3935 
L 422.899149 -162.199909 
L 422.396962 -162.006544 
L 421.894775 -161.813405 
L 421.392588 -161.620493 
L 420.8904 -161.427806 
L 420.388213 -161.235346 
L 419.886026 -161.043111 
L 419.383839 -160.851102 
L 418.881652 -160.659319 
L 418.379464 -160.467761 
L 417.877277 -160.276428 
L 417.37509 -160.085321 
L 416.872903 -159.89444 
L 416.370716 -159.703783 
L 415.868529 -159.513352 
L 415.366341 -159.323145 
L 414.864154 -159.133163 
L 414.361967 -158.943407 
L 413.85978 -158.753874 
L 413.357593 -158.564567 
L 412.855405 -158.375484 
L 412.353218 -158.186625 
L 411.851031 -157.997991 
L 411.348844 -157.809581 
L 410.846657 -157.621395 
L 410.344469 -157.433433 
L 409.842282 -157.245695 
L 409.340095 -157.05818 
L 408.837908 -156.87089 
L 408.335721 -156.683823 
L 407.833534 -156.496979 
L 407.331346 -156.310359 
L 406.829159 -156.123963 
L 406.326972 -155.937789 
L 405.824785 -155.751839 
L 405.322598 -155.566112 
L 404.82041 -155.380607 
L 404.318223 -155.195326 
L 403.816036 -155.010267 
L 403.313849 -154.825431 
L 402.811662 -154.640817 
L 402.309474 -154.456425 
L 401.807287 -154.272256 
L 401.3051 -154.08831 
L 400.802913 -153.904585 
L 400.300726 -153.721082 
L 399.798539 -153.537801 
L 399.296351 -153.354742 
L 398.794164 -153.171905 
L 398.291977 -152.989289 
L 397.78979 -152.806894 
L 397.287603 -152.624721 
L 396.785415 -152.44277 
L 396.283228 -152.261039 
L 395.781041 -152.079529 
L 395.278854 -151.898241 
L 394.776667 -151.717173 
L 394.274479 -151.536326 
L 393.772292 -151.355699 
L 393.270105 -151.175293 
L 392.767918 -150.995107 
L 392.265731 -150.815142 
L 391.763544 -150.635397 
L 391.261356 -150.455872 
L 390.759169 -150.276567 
L 390.256982 -150.097481 
L 389.754795 -149.918616 
L 389.252608 -149.73997 
L 388.75042 -149.561543 
L 388.248233 -149.383336 
L 387.746046 -149.205348 
L 387.243859 -149.02758 
L 386.741672 -148.85003 
L 386.239484 -148.6727 
L 385.737297 -148.495588 
L 385.23511 -148.318695 
L 384.732923 -148.14202 
L 384.230736 -147.965565 
L 383.728549 -147.789327 
L 383.226361 -147.613308 
L 382.724174 -147.437507 
L 382.221987 -147.261924 
L 381.7198 -147.086559 
L 381.217613 -146.911411 
L 380.715425 -146.736482 
L 380.213238 -146.56177 
L 379.711051 -146.387275 
L 379.208864 -146.212998 
L 378.706677 -146.038938 
L 378.204489 -145.865095 
L 377.702302 -145.691469 
L 377.200115 -145.51806 
L 376.697928 -145.344868 
L 376.195741 -145.171892 
L 375.693554 -144.999133 
L 375.191366 -144.826591 
L 374.689179 -144.654264 
L 374.186992 -144.482154 
L 373.684805 -144.31026 
L 373.182618 -144.138582 
L 372.68043 -143.96712 
L 372.178243 -143.795873 
L 371.676056 -143.624842 
L 371.173869 -143.454026 
L 370.671682 -143.283426 
L 370.169494 -143.113041 
L 369.667307 -142.942871 
L 369.16512 -142.772916 
L 368.662933 -142.603176 
L 368.160746 -142.43365 
L 367.658559 -142.26434 
L 367.156371 -142.095243 
L 366.654184 -141.926361 
L 366.151997 -141.757694 
L 365.64981 -141.58924 
L 365.147623 -141.421 
L 364.645435 -141.252975 
L 364.143248 -141.085163 
L 363.641061 -140.917564 
L 363.138874 -140.750179 
L 362.636687 -140.583008 
L 362.134499 -140.41605 
L 361.632312 -140.249305 
L 361.130125 -140.082772 
L 360.627938 -139.916453 
L 360.125751 -139.750347 
L 359.623564 -139.584453 
L 359.121376 -139.418771 
L 358.619189 -139.253302 
L 358.117002 -139.088046 
L 357.614815 -138.923001 
L 357.112628 -138.758168 
L 356.61044 -138.593547 
L 356.108253 -138.429138 
L 355.606066 -138.264941 
L 355.103879 -138.100955 
L 354.601692 -137.93718 
L 354.099505 -137.773617 
L 353.597317 -137.610264 
L 353.09513 -137.447123 
L 352.592943 -137.284192 
L 352.090756 -137.121472 
L 351.588569 -136.958963 
L 351.086381 -136.796664 
L 350.584194 -136.634576 
L 350.082007 -136.472697 
L 349.57982 -136.311029 
L 349.077633 -136.149571 
L 348.575445 -135.988322 
L 348.073258 -135.827283 
L 347.571071 -135.666454 
L 347.068884 -135.505834 
L 346.566697 -135.345423 
L 346.06451 -135.185221 
L 345.562322 -135.025229 
L 345.060135 -134.865445 
L 344.557948 -134.70587 
L 344.055761 -134.546503 
L 343.553574 -134.387346 
L 343.051386 -134.228396 
L 342.549199 -134.069655 
L 342.047012 -133.911121 
L 341.544825 -133.752796 
L 341.042638 -133.594678 
L 340.54045 -133.436768 
L 340.038263 -133.279066 
L 339.536076 -133.121571 
L 339.033889 -132.964283 
L 338.531702 -132.807202 
L 338.029515 -132.650329 
L 337.527327 -132.493662 
L 337.02514 -132.337202 
L 336.522953 -132.180948 
L 336.020766 -132.024901 
L 335.518579 -131.86906 
L 335.016391 -131.713426 
L 334.514204 -131.557997 
L 334.012017 -131.402775 
L 333.50983 -131.247758 
L 333.007643 -131.092947 
L 332.505455 -130.938341 
L 332.003268 -130.78394 
L 331.501081 -130.629745 
L 330.998894 -130.475755 
L 330.496707 -130.32197 
L 329.99452 -130.168389 
L 329.492332 -130.015014 
L 328.990145 -129.861842 
L 328.487958 -129.708875 
L 327.985771 -129.556113 
L 327.483584 -129.403554 
L 326.981396 -129.2512 
L 326.479209 -129.099049 
L 325.977022 -128.947102 
L 325.474835 -128.795358 
L 324.972648 -128.643818 
L 324.47046 -128.492481 
L 323.968273 -128.341347 
L 323.466086 -128.190417 
L 322.963899 -128.039689 
L 322.461712 -127.889163 
L 321.959525 -127.73884 
L 321.457337 -127.58872 
L 320.95515 -127.438802 
L 320.452963 -127.289086 
L 319.950776 -127.139572 
L 319.448589 -126.99026 
L 318.946401 -126.84115 
L 318.444214 -126.692241 
L 317.942027 -126.543533 
L 317.43984 -126.395027 
L 316.937653 -126.246722 
L 316.435465 -126.098618 
L 315.933278 -125.950714 
L 315.431091 -125.803012 
L 314.928904 -125.65551 
L 314.426717 -125.508208 
L 313.92453 -125.361107 
L 313.422342 -125.214206 
L 312.920155 -125.067504 
L 312.417968 -124.921003 
L 311.915781 -124.774701 
L 311.413594 -124.628599 
z
" style="stroke: #ccffcc"/>
    </defs>
    <g clip-path="url(#pf95bf6a2a0)">
     <use xlink:href="#mbe7d4720d1" x="0" y="288" style="fill: #ccffcc; stroke: #ccffcc"/>
    </g>
   </g>
   <g id="matplotlib.axis_1">
    <g id="xtick_1">
     <g id="line2d_1">
      <defs>
       <path id="m1fb9c941b5" d="M 0 0 
L 0 3.5 
" style="stroke: #000000; stroke-width: 0.8"/>
      </defs>
      <g>
       <use xlink:href="#m1fb9c941b5" x="60.32" y="246.04" style="stroke: #000000; stroke-width: 0.8"/>
      </g>
     </g>
     <g id="text_1">
      <!-- 0 -->
      <g transform="translate(57.13875 260.638438) scale(0.1 -0.1)">
       <defs>
        <path id="DejaVuSans-30" d="M 2034 4250 
Q 1547 4250 1301 3770 
Q 1056 3291 1056 2328 
Q 1056 1369 1301 889 
Q 1547 409 2034 409 
Q 2525 409 2770 889 
Q 3016 1369 3016 2328 
Q 3016 3291 2770 3770 
Q 2525 4250 2034 4250 
z
M 2034 4750 
Q 2819 4750 3233 4129 
Q 3647 3509 3647 2328 
Q 3647 1150 3233 529 
Q 2819 -91 2034 -91 
Q 1250 -91 836 529 
Q 422 1150 422 2328 
Q 422 3509 836 4129 
Q 1250 4750 2034 4750 
z
" transform="scale(0.015625)"/>
       </defs>
       <use xlink:href="#DejaVuSans-30"/>
      </g>
     </g>
    </g>
    <g id="xtick_2">
     <g id="line2d_2">
      <g>
       <use xlink:href="#m1fb9c941b5" x="143.934167" y="246.04" style="stroke: #000000; stroke-width: 0.8"/>
      </g>
     </g>
     <g id="text_2">
      <!-- 1 -->
      <g transform="translate(140.752917 260.638438) scale(0.1 -0.1)">
       <defs>
        <path id="DejaVuSans-31" d="M 794 531 
L 1825 531 
L 1825 4091 
L 703 3866 
L 703 4441 
L 1819 4666 
L 2450 4666 
L 2450 531 
L 3481 531 
L 3481 0 
L 794 0 
L 794 531 
z
" transform="scale(0.015625)"/>
       </defs>
       <use xlink:href="#DejaVuSans-31"/>
      </g>
     </g>
    </g>
    <g id="xtick_3">
     <g id="line2d_3">
      <g>
       <use xlink:href="#m1fb9c941b5" x="227.548333" y="246.04" style="stroke: #000000; stroke-width: 0.8"/>
      </g>
     </g>
     <g id="text_3">
      <!-- 2 -->
      <g transform="translate(224.367083 260.638438) scale(0.1 -0.1)">
       <defs>
        <path id="DejaVuSans-32" d="M 1228 531 
L 3431 531 
L 3431 0 
L 469 0 
L 469 531 
Q 828 903 1448 1529 
Q 2069 2156 2228 2338 
Q 2531 2678 2651 2914 
Q 2772 3150 2772 3378 
Q 2772 3750 2511 3984 
Q 2250 4219 1831 4219 
Q 1534 4219 1204 4116 
Q 875 4013 500 3803 
L 500 4441 
Q 881 4594 1212 4672 
Q 1544 4750 1819 4750 
Q 2544 4750 2975 4387 
Q 3406 4025 3406 3419 
Q 3406 3131 3298 2873 
Q 3191 2616 2906 2266 
Q 2828 2175 2409 1742 
Q 1991 1309 1228 531 
z
" transform="scale(0.015625)"/>
       </defs>
       <use xlink:href="#DejaVuSans-32"/>
      </g>
     </g>
    </g>
    <g id="xtick_4">
     <g id="line2d_4">
      <g>
       <use xlink:href="#m1fb9c941b5" x="311.1625" y="246.04" style="stroke: #000000; stroke-width: 0.8"/>
      </g>
     </g>
     <g id="text_4">
      <!-- 3 -->
      <g transform="translate(307.98125 260.638438) scale(0.1 -0.1)">
       <defs>
        <path id="DejaVuSans-33" d="M 2597 2516 
Q 3050 2419 3304 2112 
Q 3559 1806 3559 1356 
Q 3559 666 3084 287 
Q 2609 -91 1734 -91 
Q 1441 -91 1130 -33 
Q 819 25 488 141 
L 488 750 
Q 750 597 1062 519 
Q 1375 441 1716 441 
Q 2309 441 2620 675 
Q 2931 909 2931 1356 
Q 2931 1769 2642 2001 
Q 2353 2234 1838 2234 
L 1294 2234 
L 1294 2753 
L 1863 2753 
Q 2328 2753 2575 2939 
Q 2822 3125 2822 3475 
Q 2822 3834 2567 4026 
Q 2313 4219 1838 4219 
Q 1578 4219 1281 4162 
Q 984 4106 628 3988 
L 628 4550 
Q 988 4650 1302 4700 
Q 1616 4750 1894 4750 
Q 2613 4750 3031 4423 
Q 3450 4097 3450 3541 
Q 3450 3153 3228 2886 
Q 3006 2619 2597 2516 
z
" transform="scale(0.015625)"/>
       </defs>
       <use xlink:href="#DejaVuSans-33"/>
      </g>
     </g>
    </g>
    <g id="xtick_5">
     <g id="line2d_5">
      <g>
       <use xlink:href="#m1fb9c941b5" x="394.776667" y="246.04" style="stroke: #000000; stroke-width: 0.8"/>
      </g>
     </g>
     <g id="text_5">
      <!-- 4 -->
      <g transform="translate(391.595417 260.638438) scale(0.1 -0.1)">
       <defs>
        <path id="DejaVuSans-34" d="M 2419 4116 
L 825 1625 
L 2419 1625 
L 2419 4116 
z
M 2253 4666 
L 3047 4666 
L 3047 1625 
L 3713 1625 
L 3713 1100 
L 3047 1100 
L 3047 0 
L 2419 0 
L 2419 1100 
L 313 1100 
L 313 1709 
L 2253 4666 
z
" transform="scale(0.015625)"/>
       </defs>
       <use xlink:href="#DejaVuSans-34"/>
      </g>
     </g>
    </g>
    <g id="xtick_6">
     <g id="line2d_6">
      <g>
       <use xlink:href="#m1fb9c941b5" x="478.390833" y="246.04" style="stroke: #000000; stroke-width: 0.8"/>
      </g>
     </g>
     <g id="text_6">
      <!-- 5 -->
      <g transform="translate(475.209583 260.638438) scale(0.1 -0.1)">
       <defs>
        <path id="DejaVuSans-35" d="M 691 4666 
L 3169 4666 
L 3169 4134 
L 1269 4134 
L 1269 2991 
Q 1406 3038 1543 3061 
Q 1681 3084 1819 3084 
Q 2600 3084 3056 2656 
Q 3513 2228 3513 1497 
Q 3513 744 3044 326 
Q 2575 -91 1722 -91 
Q 1428 -91 1123 -41 
Q 819 9 494 109 
L 494 744 
Q 775 591 1075 516 
Q 1375 441 1709 441 
Q 2250 441 2565 725 
Q 2881 1009 2881 1497 
Q 2881 1984 2565 2268 
Q 2250 2553 1709 2553 
Q 1456 2553 1204 2497 
Q 953 2441 691 2322 
L 691 4666 
z
" transform="scale(0.015625)"/>
       </defs>
       <use xlink:href="#DejaVuSans-35"/>
      </g>
     </g>
    </g>
    <g id="xtick_7">
     <g id="line2d_7">
      <g>
       <use xlink:href="#m1fb9c941b5" x="562.005" y="246.04" style="stroke: #000000; stroke-width: 0.8"/>
      </g>
     </g>
     <g id="text_7">
      <!-- 6 -->
      <g transform="translate(558.82375 260.638438) scale(0.1 -0.1)">
       <defs>
        <path id="DejaVuSans-36" d="M 2113 2584 
Q 1688 2584 1439 2293 
Q 1191 2003 1191 1497 
Q 1191 994 1439 701 
Q 1688 409 2113 409 
Q 2538 409 2786 701 
Q 3034 994 3034 1497 
Q 3034 2003 2786 2293 
Q 2538 2584 2113 2584 
z
M 3366 4563 
L 3366 3988 
Q 3128 4100 2886 4159 
Q 2644 4219 2406 4219 
Q 1781 4219 1451 3797 
Q 1122 3375 1075 2522 
Q 1259 2794 1537 2939 
Q 1816 3084 2150 3084 
Q 2853 3084 3261 2657 
Q 3669 2231 3669 1497 
Q 3669 778 3244 343 
Q 2819 -91 2113 -91 
Q 1303 -91 875 529 
Q 447 1150 447 2328 
Q 447 3434 972 4092 
Q 1497 4750 2381 4750 
Q 2619 4750 2861 4703 
Q 3103 4656 3366 4563 
z
" transform="scale(0.015625)"/>
       </defs>
       <use xlink:href="#DejaVuSans-36"/>
      </g>
     </g>
    </g>
    <g id="text_8">
     <!-- Estadstico W -->
     <g transform="translate(277.515625 274.316562) scale(0.1 -0.1)">
      <defs>
       <path id="DejaVuSans-45" d="M 628 4666 
L 3578 4666 
L 3578 4134 
L 1259 4134 
L 1259 2753 
L 3481 2753 
L 3481 2222 
L 1259 2222 
L 1259 531 
L 3634 531 
L 3634 0 
L 628 0 
L 628 4666 
z
" transform="scale(0.015625)"/>
       <path id="DejaVuSans-73" d="M 2834 3397 
L 2834 2853 
Q 2591 2978 2328 3040 
Q 2066 3103 1784 3103 
Q 1356 3103 1142 2972 
Q 928 2841 928 2578 
Q 928 2378 1081 2264 
Q 1234 2150 1697 2047 
L 1894 2003 
Q 2506 1872 2764 1633 
Q 3022 1394 3022 966 
Q 3022 478 2636 193 
Q 2250 -91 1575 -91 
Q 1294 -91 989 -36 
Q 684 19 347 128 
L 347 722 
Q 666 556 975 473 
Q 1284 391 1588 391 
Q 1994 391 2212 530 
Q 2431 669 2431 922 
Q 2431 1156 2273 1281 
Q 2116 1406 1581 1522 
L 1381 1569 
Q 847 1681 609 1914 
Q 372 2147 372 2553 
Q 372 3047 722 3315 
Q 1072 3584 1716 3584 
Q 2034 3584 2315 3537 
Q 2597 3491 2834 3397 
z
" transform="scale(0.015625)"/>
       <path id="DejaVuSans-74" d="M 1172 4494 
L 1172 3500 
L 2356 3500 
L 2356 3053 
L 1172 3053 
L 1172 1153 
Q 1172 725 1289 603 
Q 1406 481 1766 481 
L 2356 481 
L 2356 0 
L 1766 0 
Q 1100 0 847 248 
Q 594 497 594 1153 
L 594 3053 
L 172 3053 
L 172 3500 
L 594 3500 
L 594 4494 
L 1172 4494 
z
" transform="scale(0.015625)"/>
       <path id="DejaVuSans-61" d="M 2194 1759 
Q 1497 1759 1228 1600 
Q 959 1441 959 1056 
Q 959 750 1161 570 
Q 1363 391 1709 391 
Q 2188 391 2477 730 
Q 2766 1069 2766 1631 
L 2766 1759 
L 2194 1759 
z
M 3341 1997 
L 3341 0 
L 2766 0 
L 2766 531 
Q 2569 213 2275 61 
Q 1981 -91 1556 -91 
Q 1019 -91 701 211 
Q 384 513 384 1019 
Q 384 1609 779 1909 
Q 1175 2209 1959 2209 
L 2766 2209 
L 2766 2266 
Q 2766 2663 2505 2880 
Q 2244 3097 1772 3097 
Q 1472 3097 1187 3025 
Q 903 2953 641 2809 
L 641 3341 
Q 956 3463 1253 3523 
Q 1550 3584 1831 3584 
Q 2591 3584 2966 3190 
Q 3341 2797 3341 1997 
z
" transform="scale(0.015625)"/>
       <path id="DejaVuSans-64" d="M 2906 2969 
L 2906 4863 
L 3481 4863 
L 3481 0 
L 2906 0 
L 2906 525 
Q 2725 213 2448 61 
Q 2172 -91 1784 -91 
Q 1150 -91 751 415 
Q 353 922 353 1747 
Q 353 2572 751 3078 
Q 1150 3584 1784 3584 
Q 2172 3584 2448 3432 
Q 2725 3281 2906 2969 
z
M 947 1747 
Q 947 1113 1208 752 
Q 1469 391 1925 391 
Q 2381 391 2643 752 
Q 2906 1113 2906 1747 
Q 2906 2381 2643 2742 
Q 2381 3103 1925 3103 
Q 1469 3103 1208 2742 
Q 947 2381 947 1747 
z
" transform="scale(0.015625)"/>
       <path id="DejaVuSans-ed" d="M 1322 5119 
L 1944 5119 
L 926 3944 
L 447 3944 
L 1322 5119 
z
M 603 3500 
L 1178 3500 
L 1178 0 
L 603 0 
L 603 3500 
z
M 891 3584 
L 891 3584 
z
" transform="scale(0.015625)"/>
       <path id="DejaVuSans-69" d="M 603 3500 
L 1178 3500 
L 1178 0 
L 603 0 
L 603 3500 
z
M 603 4863 
L 1178 4863 
L 1178 4134 
L 603 4134 
L 603 4863 
z
" transform="scale(0.015625)"/>
       <path id="DejaVuSans-63" d="M 3122 3366 
L 3122 2828 
Q 2878 2963 2633 3030 
Q 2388 3097 2138 3097 
Q 1578 3097 1268 2742 
Q 959 2388 959 1747 
Q 959 1106 1268 751 
Q 1578 397 2138 397 
Q 2388 397 2633 464 
Q 2878 531 3122 666 
L 3122 134 
Q 2881 22 2623 -34 
Q 2366 -91 2075 -91 
Q 1284 -91 818 406 
Q 353 903 353 1747 
Q 353 2603 823 3093 
Q 1294 3584 2113 3584 
Q 2378 3584 2631 3529 
Q 2884 3475 3122 3366 
z
" transform="scale(0.015625)"/>
       <path id="DejaVuSans-6f" d="M 1959 3097 
Q 1497 3097 1228 2736 
Q 959 2375 959 1747 
Q 959 1119 1226 758 
Q 1494 397 1959 397 
Q 2419 397 2687 759 
Q 2956 1122 2956 1747 
Q 2956 2369 2687 2733 
Q 2419 3097 1959 3097 
z
M 1959 3584 
Q 2709 3584 3137 3096 
Q 3566 2609 3566 1747 
Q 3566 888 3137 398 
Q 2709 -91 1959 -91 
Q 1206 -91 779 398 
Q 353 888 353 1747 
Q 353 2609 779 3096 
Q 1206 3584 1959 3584 
z
" transform="scale(0.015625)"/>
       <path id="DejaVuSans-20" transform="scale(0.015625)"/>
       <path id="DejaVuSans-57" d="M 213 4666 
L 850 4666 
L 1831 722 
L 2809 4666 
L 3519 4666 
L 4500 722 
L 5478 4666 
L 6119 4666 
L 4947 0 
L 4153 0 
L 3169 4050 
L 2175 0 
L 1381 0 
L 213 4666 
z
" transform="scale(0.015625)"/>
      </defs>
      <use xlink:href="#DejaVuSans-45"/>
      <use xlink:href="#DejaVuSans-73" transform="translate(63.183594 0)"/>
      <use xlink:href="#DejaVuSans-74" transform="translate(115.283203 0)"/>
      <use xlink:href="#DejaVuSans-61" transform="translate(154.492188 0)"/>
      <use xlink:href="#DejaVuSans-64" transform="translate(215.771484 0)"/>
      <use xlink:href="#DejaVuSans-ed" transform="translate(279.248047 0)"/>
      <use xlink:href="#DejaVuSans-73" transform="translate(307.03125 0)"/>
      <use xlink:href="#DejaVuSans-74" transform="translate(359.130859 0)"/>
      <use xlink:href="#DejaVuSans-69" transform="translate(398.339844 0)"/>
      <use xlink:href="#DejaVuSans-63" transform="translate(426.123047 0)"/>
      <use xlink:href="#DejaVuSans-6f" transform="translate(481.103516 0)"/>
      <use xlink:href="#DejaVuSans-20" transform="translate(542.285156 0)"/>
      <use xlink:href="#DejaVuSans-57" transform="translate(574.072266 0)"/>
     </g>
    </g>
   </g>
   <g id="matplotlib.axis_2">
    <g id="ytick_1">
     <g id="line2d_8">
      <defs>
       <path id="m486b274d6d" d="M 0 0 
L -3.5 0 
" style="stroke: #000000; stroke-width: 0.8"/>
      </defs>
      <g>
       <use xlink:href="#m486b274d6d" x="60.32" y="246.04" style="stroke: #000000; stroke-width: 0.8"/>
      </g>
     </g>
     <g id="text_9">
      <!-- 0.000 -->
      <g transform="translate(24.691875 249.839219) scale(0.1 -0.1)">
       <defs>
        <path id="DejaVuSans-2e" d="M 684 794 
L 1344 794 
L 1344 0 
L 684 0 
L 684 794 
z
" transform="scale(0.015625)"/>
       </defs>
       <use xlink:href="#DejaVuSans-30"/>
       <use xlink:href="#DejaVuSans-2e" transform="translate(63.623047 0)"/>
       <use xlink:href="#DejaVuSans-30" transform="translate(95.410156 0)"/>
       <use xlink:href="#DejaVuSans-30" transform="translate(159.033203 0)"/>
       <use xlink:href="#DejaVuSans-30" transform="translate(222.65625 0)"/>
      </g>
     </g>
    </g>
    <g id="ytick_2">
     <g id="line2d_9">
      <g>
       <use xlink:href="#m486b274d6d" x="60.32" y="219.194928" style="stroke: #000000; stroke-width: 0.8"/>
      </g>
     </g>
     <g id="text_10">
      <!-- 0.002 -->
      <g transform="translate(24.691875 222.994146) scale(0.1 -0.1)">
       <use xlink:href="#DejaVuSans-30"/>
       <use xlink:href="#DejaVuSans-2e" transform="translate(63.623047 0)"/>
       <use xlink:href="#DejaVuSans-30" transform="translate(95.410156 0)"/>
       <use xlink:href="#DejaVuSans-30" transform="translate(159.033203 0)"/>
       <use xlink:href="#DejaVuSans-32" transform="translate(222.65625 0)"/>
      </g>
     </g>
    </g>
    <g id="ytick_3">
     <g id="line2d_10">
      <g>
       <use xlink:href="#m486b274d6d" x="60.32" y="192.349855" style="stroke: #000000; stroke-width: 0.8"/>
      </g>
     </g>
     <g id="text_11">
      <!-- 0.004 -->
      <g transform="translate(24.691875 196.149074) scale(0.1 -0.1)">
       <use xlink:href="#DejaVuSans-30"/>
       <use xlink:href="#DejaVuSans-2e" transform="translate(63.623047 0)"/>
       <use xlink:href="#DejaVuSans-30" transform="translate(95.410156 0)"/>
       <use xlink:href="#DejaVuSans-30" transform="translate(159.033203 0)"/>
       <use xlink:href="#DejaVuSans-34" transform="translate(222.65625 0)"/>
      </g>
     </g>
    </g>
    <g id="ytick_4">
     <g id="line2d_11">
      <g>
       <use xlink:href="#m486b274d6d" x="60.32" y="165.504783" style="stroke: #000000; stroke-width: 0.8"/>
      </g>
     </g>
     <g id="text_12">
      <!-- 0.006 -->
      <g transform="translate(24.691875 169.304001) scale(0.1 -0.1)">
       <use xlink:href="#DejaVuSans-30"/>
       <use xlink:href="#DejaVuSans-2e" transform="translate(63.623047 0)"/>
       <use xlink:href="#DejaVuSans-30" transform="translate(95.410156 0)"/>
       <use xlink:href="#DejaVuSans-30" transform="translate(159.033203 0)"/>
       <use xlink:href="#DejaVuSans-36" transform="translate(222.65625 0)"/>
      </g>
     </g>
    </g>
    <g id="ytick_5">
     <g id="line2d_12">
      <g>
       <use xlink:href="#m486b274d6d" x="60.32" y="138.65971" style="stroke: #000000; stroke-width: 0.8"/>
      </g>
     </g>
     <g id="text_13">
      <!-- 0.008 -->
      <g transform="translate(24.691875 142.458929) scale(0.1 -0.1)">
       <defs>
        <path id="DejaVuSans-38" d="M 2034 2216 
Q 1584 2216 1326 1975 
Q 1069 1734 1069 1313 
Q 1069 891 1326 650 
Q 1584 409 2034 409 
Q 2484 409 2743 651 
Q 3003 894 3003 1313 
Q 3003 1734 2745 1975 
Q 2488 2216 2034 2216 
z
M 1403 2484 
Q 997 2584 770 2862 
Q 544 3141 544 3541 
Q 544 4100 942 4425 
Q 1341 4750 2034 4750 
Q 2731 4750 3128 4425 
Q 3525 4100 3525 3541 
Q 3525 3141 3298 2862 
Q 3072 2584 2669 2484 
Q 3125 2378 3379 2068 
Q 3634 1759 3634 1313 
Q 3634 634 3220 271 
Q 2806 -91 2034 -91 
Q 1263 -91 848 271 
Q 434 634 434 1313 
Q 434 1759 690 2068 
Q 947 2378 1403 2484 
z
M 1172 3481 
Q 1172 3119 1398 2916 
Q 1625 2713 2034 2713 
Q 2441 2713 2670 2916 
Q 2900 3119 2900 3481 
Q 2900 3844 2670 4047 
Q 2441 4250 2034 4250 
Q 1625 4250 1398 4047 
Q 1172 3844 1172 3481 
z
" transform="scale(0.015625)"/>
       </defs>
       <use xlink:href="#DejaVuSans-30"/>
       <use xlink:href="#DejaVuSans-2e" transform="translate(63.623047 0)"/>
       <use xlink:href="#DejaVuSans-30" transform="translate(95.410156 0)"/>
       <use xlink:href="#DejaVuSans-30" transform="translate(159.033203 0)"/>
       <use xlink:href="#DejaVuSans-38" transform="translate(222.65625 0)"/>
      </g>
     </g>
    </g>
    <g id="ytick_6">
     <g id="line2d_13">
      <g>
       <use xlink:href="#m486b274d6d" x="60.32" y="111.814638" style="stroke: #000000; stroke-width: 0.8"/>
      </g>
     </g>
     <g id="text_14">
      <!-- 0.010 -->
      <g transform="translate(24.691875 115.613856) scale(0.1 -0.1)">
       <use xlink:href="#DejaVuSans-30"/>
       <use xlink:href="#DejaVuSans-2e" transform="translate(63.623047 0)"/>
       <use xlink:href="#DejaVuSans-30" transform="translate(95.410156 0)"/>
       <use xlink:href="#DejaVuSans-31" transform="translate(159.033203 0)"/>
       <use xlink:href="#DejaVuSans-30" transform="translate(222.65625 0)"/>
      </g>
     </g>
    </g>
    <g id="ytick_7">
     <g id="line2d_14">
      <g>
       <use xlink:href="#m486b274d6d" x="60.32" y="84.969565" style="stroke: #000000; stroke-width: 0.8"/>
      </g>
     </g>
     <g id="text_15">
      <!-- 0.012 -->
      <g transform="translate(24.691875 88.768784) scale(0.1 -0.1)">
       <use xlink:href="#DejaVuSans-30"/>
       <use xlink:href="#DejaVuSans-2e" transform="translate(63.623047 0)"/>
       <use xlink:href="#DejaVuSans-30" transform="translate(95.410156 0)"/>
       <use xlink:href="#DejaVuSans-31" transform="translate(159.033203 0)"/>
       <use xlink:href="#DejaVuSans-32" transform="translate(222.65625 0)"/>
      </g>
     </g>
    </g>
    <g id="ytick_8">
     <g id="line2d_15">
      <g>
       <use xlink:href="#m486b274d6d" x="60.32" y="58.124493" style="stroke: #000000; stroke-width: 0.8"/>
      </g>
     </g>
     <g id="text_16">
      <!-- 0.014 -->
      <g transform="translate(24.691875 61.923711) scale(0.1 -0.1)">
       <use xlink:href="#DejaVuSans-30"/>
       <use xlink:href="#DejaVuSans-2e" transform="translate(63.623047 0)"/>
       <use xlink:href="#DejaVuSans-30" transform="translate(95.410156 0)"/>
       <use xlink:href="#DejaVuSans-31" transform="translate(159.033203 0)"/>
       <use xlink:href="#DejaVuSans-34" transform="translate(222.65625 0)"/>
      </g>
     </g>
    </g>
    <g id="text_17">
     <!-- Probabilidad (aprox.) -->
     <g transform="translate(18.612188 197.577312) rotate(-90) scale(0.1 -0.1)">
      <defs>
       <path id="DejaVuSans-50" d="M 1259 4147 
L 1259 2394 
L 2053 2394 
Q 2494 2394 2734 2622 
Q 2975 2850 2975 3272 
Q 2975 3691 2734 3919 
Q 2494 4147 2053 4147 
L 1259 4147 
z
M 628 4666 
L 2053 4666 
Q 2838 4666 3239 4311 
Q 3641 3956 3641 3272 
Q 3641 2581 3239 2228 
Q 2838 1875 2053 1875 
L 1259 1875 
L 1259 0 
L 628 0 
L 628 4666 
z
" transform="scale(0.015625)"/>
       <path id="DejaVuSans-72" d="M 2631 2963 
Q 2534 3019 2420 3045 
Q 2306 3072 2169 3072 
Q 1681 3072 1420 2755 
Q 1159 2438 1159 1844 
L 1159 0 
L 581 0 
L 581 3500 
L 1159 3500 
L 1159 2956 
Q 1341 3275 1631 3429 
Q 1922 3584 2338 3584 
Q 2397 3584 2469 3576 
Q 2541 3569 2628 3553 
L 2631 2963 
z
" transform="scale(0.015625)"/>
       <path id="DejaVuSans-62" d="M 3116 1747 
Q 3116 2381 2855 2742 
Q 2594 3103 2138 3103 
Q 1681 3103 1420 2742 
Q 1159 2381 1159 1747 
Q 1159 1113 1420 752 
Q 1681 391 2138 391 
Q 2594 391 2855 752 
Q 3116 1113 3116 1747 
z
M 1159 2969 
Q 1341 3281 1617 3432 
Q 1894 3584 2278 3584 
Q 2916 3584 3314 3078 
Q 3713 2572 3713 1747 
Q 3713 922 3314 415 
Q 2916 -91 2278 -91 
Q 1894 -91 1617 61 
Q 1341 213 1159 525 
L 1159 0 
L 581 0 
L 581 4863 
L 1159 4863 
L 1159 2969 
z
" transform="scale(0.015625)"/>
       <path id="DejaVuSans-6c" d="M 603 4863 
L 1178 4863 
L 1178 0 
L 603 0 
L 603 4863 
z
" transform="scale(0.015625)"/>
       <path id="DejaVuSans-28" d="M 1984 4856 
Q 1566 4138 1362 3434 
Q 1159 2731 1159 2009 
Q 1159 1288 1364 580 
Q 1569 -128 1984 -844 
L 1484 -844 
Q 1016 -109 783 600 
Q 550 1309 550 2009 
Q 550 2706 781 3412 
Q 1013 4119 1484 4856 
L 1984 4856 
z
" transform="scale(0.015625)"/>
       <path id="DejaVuSans-70" d="M 1159 525 
L 1159 -1331 
L 581 -1331 
L 581 3500 
L 1159 3500 
L 1159 2969 
Q 1341 3281 1617 3432 
Q 1894 3584 2278 3584 
Q 2916 3584 3314 3078 
Q 3713 2572 3713 1747 
Q 3713 922 3314 415 
Q 2916 -91 2278 -91 
Q 1894 -91 1617 61 
Q 1341 213 1159 525 
z
M 3116 1747 
Q 3116 2381 2855 2742 
Q 2594 3103 2138 3103 
Q 1681 3103 1420 2742 
Q 1159 2381 1159 1747 
Q 1159 1113 1420 752 
Q 1681 391 2138 391 
Q 2594 391 2855 752 
Q 3116 1113 3116 1747 
z
" transform="scale(0.015625)"/>
       <path id="DejaVuSans-78" d="M 3513 3500 
L 2247 1797 
L 3578 0 
L 2900 0 
L 1881 1375 
L 863 0 
L 184 0 
L 1544 1831 
L 300 3500 
L 978 3500 
L 1906 2253 
L 2834 3500 
L 3513 3500 
z
" transform="scale(0.015625)"/>
       <path id="DejaVuSans-29" d="M 513 4856 
L 1013 4856 
Q 1481 4119 1714 3412 
Q 1947 2706 1947 2009 
Q 1947 1309 1714 600 
Q 1481 -109 1013 -844 
L 513 -844 
Q 928 -128 1133 580 
Q 1338 1288 1338 2009 
Q 1338 2731 1133 3434 
Q 928 4138 513 4856 
z
" transform="scale(0.015625)"/>
      </defs>
      <use xlink:href="#DejaVuSans-50"/>
      <use xlink:href="#DejaVuSans-72" transform="translate(58.552734 0)"/>
      <use xlink:href="#DejaVuSans-6f" transform="translate(97.416016 0)"/>
      <use xlink:href="#DejaVuSans-62" transform="translate(158.597656 0)"/>
      <use xlink:href="#DejaVuSans-61" transform="translate(222.074219 0)"/>
      <use xlink:href="#DejaVuSans-62" transform="translate(283.353516 0)"/>
      <use xlink:href="#DejaVuSans-69" transform="translate(346.830078 0)"/>
      <use xlink:href="#DejaVuSans-6c" transform="translate(374.613281 0)"/>
      <use xlink:href="#DejaVuSans-69" transform="translate(402.396484 0)"/>
      <use xlink:href="#DejaVuSans-64" transform="translate(430.179688 0)"/>
      <use xlink:href="#DejaVuSans-61" transform="translate(493.65625 0)"/>
      <use xlink:href="#DejaVuSans-64" transform="translate(554.935547 0)"/>
      <use xlink:href="#DejaVuSans-20" transform="translate(618.412109 0)"/>
      <use xlink:href="#DejaVuSans-28" transform="translate(650.199219 0)"/>
      <use xlink:href="#DejaVuSans-61" transform="translate(689.212891 0)"/>
      <use xlink:href="#DejaVuSans-70" transform="translate(750.492188 0)"/>
      <use xlink:href="#DejaVuSans-72" transform="translate(813.96875 0)"/>
      <use xlink:href="#DejaVuSans-6f" transform="translate(852.832031 0)"/>
      <use xlink:href="#DejaVuSans-78" transform="translate(910.888672 0)"/>
      <use xlink:href="#DejaVuSans-2e" transform="translate(970.068359 0)"/>
      <use xlink:href="#DejaVuSans-29" transform="translate(1001.855469 0)"/>
     </g>
    </g>
   </g>
   <g id="line2d_16">
    <path d="M 60.32 214.747813 
L 81.914049 211.783904 
L 103.005911 208.665318 
L 123.595586 205.396271 
L 143.683073 201.982103 
L 163.268373 198.42925 
L 182.351486 194.745209 
L 201.4346 190.832517 
L 220.015526 186.794372 
L 238.094264 182.640997 
L 256.173003 178.258613 
L 273.749555 173.771261 
L 291.326106 169.053565 
L 308.40047 164.243833 
L 325.474835 159.204642 
L 342.549199 153.930345 
L 359.121376 148.581229 
L 375.693554 143.000867 
L 392.265731 137.184858 
L 408.837908 131.12911 
L 424.907898 125.024368 
L 440.977888 118.687578 
L 457.047878 112.116004 
L 473.117868 105.307293 
L 489.187858 98.259497 
L 505.257848 90.971106 
L 521.327838 83.441067 
L 537.397828 75.668814 
L 553.467818 67.654293 
L 562.005 63.298182 
L 562.005 63.298182 
" clip-path="url(#pf95bf6a2a0)" style="fill: none; stroke: #000000; stroke-width: 2; stroke-linecap: square"/>
   </g>
   <g id="line2d_17">
    <path d="M 311.1625 246.04 
L 311.1625 45.024 
" clip-path="url(#pf95bf6a2a0)" style="fill: none; stroke-dasharray: 7.4,3.2; stroke-dashoffset: 0; stroke: #ff0000; stroke-width: 2"/>
   </g>
   <g id="line2d_18">
    <path d="M 60.32 246.04 
L 60.32 45.024 
" clip-path="url(#pf95bf6a2a0)" style="fill: none; stroke: #0000ff; stroke-width: 2; stroke-linecap: square"/>
   </g>
   <g id="patch_3">
    <path d="M 60.32 246.04 
L 60.32 45.024 
" style="fill: none; stroke: #000000; stroke-width: 0.8; stroke-linejoin: miter; stroke-linecap: square"/>
   </g>
   <g id="patch_4">
    <path d="M 562.005 246.04 
L 562.005 45.024 
" style="fill: none; stroke: #000000; stroke-width: 0.8; stroke-linejoin: miter; stroke-linecap: square"/>
   </g>
   <g id="patch_5">
    <path d="M 60.32 246.04 
L 562.005 246.04 
" style="fill: none; stroke: #000000; stroke-width: 0.8; stroke-linejoin: miter; stroke-linecap: square"/>
   </g>
   <g id="patch_6">
    <path d="M 60.32 45.024 
L 562.005 45.024 
" style="fill: none; stroke: #000000; stroke-width: 0.8; stroke-linejoin: miter; stroke-linecap: square"/>
   </g>
   <g id="text_18">
    <!-- Wc = 3 -->
    <g style="fill: #ff0000" transform="translate(362.087708 99.846545) rotate(-90) scale(0.12 -0.12)">
     <defs>
      <path id="DejaVuSans-3d" d="M 678 2906 
L 4684 2906 
L 4684 2381 
L 678 2381 
L 678 2906 
z
M 678 1631 
L 4684 1631 
L 4684 1100 
L 678 1100 
L 678 1631 
z
" transform="scale(0.015625)"/>
     </defs>
     <use xlink:href="#DejaVuSans-57"/>
     <use xlink:href="#DejaVuSans-63" transform="translate(98.876953 0)"/>
     <use xlink:href="#DejaVuSans-20" transform="translate(153.857422 0)"/>
     <use xlink:href="#DejaVuSans-3d" transform="translate(185.644531 0)"/>
     <use xlink:href="#DejaVuSans-20" transform="translate(269.433594 0)"/>
     <use xlink:href="#DejaVuSans-33" transform="translate(301.220703 0)"/>
    </g>
   </g>
   <g id="text_19">
    <!-- W = 0 -->
    <g style="fill: #0000ff" transform="translate(111.245208 136.394909) rotate(-90) scale(0.12 -0.12)">
     <use xlink:href="#DejaVuSans-57"/>
     <use xlink:href="#DejaVuSans-20" transform="translate(98.876953 0)"/>
     <use xlink:href="#DejaVuSans-3d" transform="translate(130.664062 0)"/>
     <use xlink:href="#DejaVuSans-20" transform="translate(214.453125 0)"/>
     <use xlink:href="#DejaVuSans-30" transform="translate(246.240234 0)"/>
    </g>
   </g>
   <g id="text_20">
    <!-- Prueba de Wilcoxon - Nivel Alto -->
    <g transform="translate(193.948047 22.227281) scale(0.15 -0.15)">
     <defs>
      <path id="DejaVuSans-75" d="M 544 1381 
L 544 3500 
L 1119 3500 
L 1119 1403 
Q 1119 906 1312 657 
Q 1506 409 1894 409 
Q 2359 409 2629 706 
Q 2900 1003 2900 1516 
L 2900 3500 
L 3475 3500 
L 3475 0 
L 2900 0 
L 2900 538 
Q 2691 219 2414 64 
Q 2138 -91 1772 -91 
Q 1169 -91 856 284 
Q 544 659 544 1381 
z
M 1991 3584 
L 1991 3584 
z
" transform="scale(0.015625)"/>
      <path id="DejaVuSans-65" d="M 3597 1894 
L 3597 1613 
L 953 1613 
Q 991 1019 1311 708 
Q 1631 397 2203 397 
Q 2534 397 2845 478 
Q 3156 559 3463 722 
L 3463 178 
Q 3153 47 2828 -22 
Q 2503 -91 2169 -91 
Q 1331 -91 842 396 
Q 353 884 353 1716 
Q 353 2575 817 3079 
Q 1281 3584 2069 3584 
Q 2775 3584 3186 3129 
Q 3597 2675 3597 1894 
z
M 3022 2063 
Q 3016 2534 2758 2815 
Q 2500 3097 2075 3097 
Q 1594 3097 1305 2825 
Q 1016 2553 972 2059 
L 3022 2063 
z
" transform="scale(0.015625)"/>
      <path id="DejaVuSans-6e" d="M 3513 2113 
L 3513 0 
L 2938 0 
L 2938 2094 
Q 2938 2591 2744 2837 
Q 2550 3084 2163 3084 
Q 1697 3084 1428 2787 
Q 1159 2491 1159 1978 
L 1159 0 
L 581 0 
L 581 3500 
L 1159 3500 
L 1159 2956 
Q 1366 3272 1645 3428 
Q 1925 3584 2291 3584 
Q 2894 3584 3203 3211 
Q 3513 2838 3513 2113 
z
" transform="scale(0.015625)"/>
      <path id="DejaVuSans-2d" d="M 313 2009 
L 1997 2009 
L 1997 1497 
L 313 1497 
L 313 2009 
z
" transform="scale(0.015625)"/>
      <path id="DejaVuSans-4e" d="M 628 4666 
L 1478 4666 
L 3547 763 
L 3547 4666 
L 4159 4666 
L 4159 0 
L 3309 0 
L 1241 3903 
L 1241 0 
L 628 0 
L 628 4666 
z
" transform="scale(0.015625)"/>
      <path id="DejaVuSans-76" d="M 191 3500 
L 800 3500 
L 1894 563 
L 2988 3500 
L 3597 3500 
L 2284 0 
L 1503 0 
L 191 3500 
z
" transform="scale(0.015625)"/>
      <path id="DejaVuSans-41" d="M 2188 4044 
L 1331 1722 
L 3047 1722 
L 2188 4044 
z
M 1831 4666 
L 2547 4666 
L 4325 0 
L 3669 0 
L 3244 1197 
L 1141 1197 
L 716 0 
L 50 0 
L 1831 4666 
z
" transform="scale(0.015625)"/>
     </defs>
     <use xlink:href="#DejaVuSans-50"/>
     <use xlink:href="#DejaVuSans-72" transform="translate(58.552734 0)"/>
     <use xlink:href="#DejaVuSans-75" transform="translate(99.666016 0)"/>
     <use xlink:href="#DejaVuSans-65" transform="translate(163.044922 0)"/>
     <use xlink:href="#DejaVuSans-62" transform="translate(224.568359 0)"/>
     <use xlink:href="#DejaVuSans-61" transform="translate(288.044922 0)"/>
     <use xlink:href="#DejaVuSans-20" transform="translate(349.324219 0)"/>
     <use xlink:href="#DejaVuSans-64" transform="translate(381.111328 0)"/>
     <use xlink:href="#DejaVuSans-65" transform="translate(444.587891 0)"/>
     <use xlink:href="#DejaVuSans-20" transform="translate(506.111328 0)"/>
     <use xlink:href="#DejaVuSans-57" transform="translate(537.898438 0)"/>
     <use xlink:href="#DejaVuSans-69" transform="translate(634.525391 0)"/>
     <use xlink:href="#DejaVuSans-6c" transform="translate(662.308594 0)"/>
     <use xlink:href="#DejaVuSans-63" transform="translate(690.091797 0)"/>
     <use xlink:href="#DejaVuSans-6f" transform="translate(745.072266 0)"/>
     <use xlink:href="#DejaVuSans-78" transform="translate(803.128906 0)"/>
     <use xlink:href="#DejaVuSans-6f" transform="translate(859.183594 0)"/>
     <use xlink:href="#DejaVuSans-6e" transform="translate(920.365234 0)"/>
     <use xlink:href="#DejaVuSans-20" transform="translate(983.744141 0)"/>
     <use xlink:href="#DejaVuSans-2d" transform="translate(1015.53125 0)"/>
     <use xlink:href="#DejaVuSans-20" transform="translate(1051.615234 0)"/>
     <use xlink:href="#DejaVuSans-4e" transform="translate(1083.402344 0)"/>
     <use xlink:href="#DejaVuSans-69" transform="translate(1158.207031 0)"/>
     <use xlink:href="#DejaVuSans-76" transform="translate(1185.990234 0)"/>
     <use xlink:href="#DejaVuSans-65" transform="translate(1245.169922 0)"/>
     <use xlink:href="#DejaVuSans-6c" transform="translate(1306.693359 0)"/>
     <use xlink:href="#DejaVuSans-20" transform="translate(1334.476562 0)"/>
     <use xlink:href="#DejaVuSans-41" transform="translate(1366.263672 0)"/>
     <use xlink:href="#DejaVuSans-6c" transform="translate(1434.671875 0)"/>
     <use xlink:href="#DejaVuSans-74" transform="translate(1462.455078 0)"/>
     <use xlink:href="#DejaVuSans-6f" transform="translate(1501.664062 0)"/>
    </g>
    <!-- (n=8, p=0.00781) -->
    <g transform="translate(242.672266 39.024) scale(0.15 -0.15)">
     <defs>
      <path id="DejaVuSans-2c" d="M 750 794 
L 1409 794 
L 1409 256 
L 897 -744 
L 494 -744 
L 750 256 
L 750 794 
z
" transform="scale(0.015625)"/>
      <path id="DejaVuSans-37" d="M 525 4666 
L 3525 4666 
L 3525 4397 
L 1831 0 
L 1172 0 
L 2766 4134 
L 525 4134 
L 525 4666 
z
" transform="scale(0.015625)"/>
     </defs>
     <use xlink:href="#DejaVuSans-28"/>
     <use xlink:href="#DejaVuSans-6e" transform="translate(39.013672 0)"/>
     <use xlink:href="#DejaVuSans-3d" transform="translate(102.392578 0)"/>
     <use xlink:href="#DejaVuSans-38" transform="translate(186.181641 0)"/>
     <use xlink:href="#DejaVuSans-2c" transform="translate(249.804688 0)"/>
     <use xlink:href="#DejaVuSans-20" transform="translate(281.591797 0)"/>
     <use xlink:href="#DejaVuSans-70" transform="translate(313.378906 0)"/>
     <use xlink:href="#DejaVuSans-3d" transform="translate(376.855469 0)"/>
     <use xlink:href="#DejaVuSans-30" transform="translate(460.644531 0)"/>
     <use xlink:href="#DejaVuSans-2e" transform="translate(524.267578 0)"/>
     <use xlink:href="#DejaVuSans-30" transform="translate(556.054688 0)"/>
     <use xlink:href="#DejaVuSans-30" transform="translate(619.677734 0)"/>
     <use xlink:href="#DejaVuSans-37" transform="translate(683.300781 0)"/>
     <use xlink:href="#DejaVuSans-38" transform="translate(746.923828 0)"/>
     <use xlink:href="#DejaVuSans-31" transform="translate(810.546875 0)"/>
     <use xlink:href="#DejaVuSans-29" transform="translate(874.169922 0)"/>
    </g>
   </g>
   <g id="legend_1">
    <g id="patch_7">
     <path d="M 373.078437 127.214625 
L 555.005 127.214625 
Q 557.005 127.214625 557.005 125.214625 
L 557.005 52.024 
Q 557.005 50.024 555.005 50.024 
L 373.078437 50.024 
Q 371.078437 50.024 371.078437 52.024 
L 371.078437 125.214625 
Q 371.078437 127.214625 373.078437 127.214625 
z
" style="fill: #ffffff; opacity: 0.8; stroke: #cccccc; stroke-linejoin: miter"/>
    </g>
    <g id="patch_8">
     <path d="M 375.078437 61.622437 
L 395.078437 61.622437 
L 395.078437 54.622437 
L 375.078437 54.622437 
z
" style="fill: #ffcccc; stroke: #ffcccc; stroke-linejoin: miter"/>
    </g>
    <g id="text_21">
     <!-- Zona de rechazo -->
     <g transform="translate(403.078437 61.622437) scale(0.1 -0.1)">
      <defs>
       <path id="DejaVuSans-5a" d="M 359 4666 
L 4025 4666 
L 4025 4184 
L 1075 531 
L 4097 531 
L 4097 0 
L 288 0 
L 288 481 
L 3238 4134 
L 359 4134 
L 359 4666 
z
" transform="scale(0.015625)"/>
       <path id="DejaVuSans-68" d="M 3513 2113 
L 3513 0 
L 2938 0 
L 2938 2094 
Q 2938 2591 2744 2837 
Q 2550 3084 2163 3084 
Q 1697 3084 1428 2787 
Q 1159 2491 1159 1978 
L 1159 0 
L 581 0 
L 581 4863 
L 1159 4863 
L 1159 2956 
Q 1366 3272 1645 3428 
Q 1925 3584 2291 3584 
Q 2894 3584 3203 3211 
Q 3513 2838 3513 2113 
z
" transform="scale(0.015625)"/>
       <path id="DejaVuSans-7a" d="M 353 3500 
L 3084 3500 
L 3084 2975 
L 922 459 
L 3084 459 
L 3084 0 
L 275 0 
L 275 525 
L 2438 3041 
L 353 3041 
L 353 3500 
z
" transform="scale(0.015625)"/>
      </defs>
      <use xlink:href="#DejaVuSans-5a"/>
      <use xlink:href="#DejaVuSans-6f" transform="translate(68.505859 0)"/>
      <use xlink:href="#DejaVuSans-6e" transform="translate(129.6875 0)"/>
      <use xlink:href="#DejaVuSans-61" transform="translate(193.066406 0)"/>
      <use xlink:href="#DejaVuSans-20" transform="translate(254.345703 0)"/>
      <use xlink:href="#DejaVuSans-64" transform="translate(286.132812 0)"/>
      <use xlink:href="#DejaVuSans-65" transform="translate(349.609375 0)"/>
      <use xlink:href="#DejaVuSans-20" transform="translate(411.132812 0)"/>
      <use xlink:href="#DejaVuSans-72" transform="translate(442.919922 0)"/>
      <use xlink:href="#DejaVuSans-65" transform="translate(481.783203 0)"/>
      <use xlink:href="#DejaVuSans-63" transform="translate(543.306641 0)"/>
      <use xlink:href="#DejaVuSans-68" transform="translate(598.287109 0)"/>
      <use xlink:href="#DejaVuSans-61" transform="translate(661.666016 0)"/>
      <use xlink:href="#DejaVuSans-7a" transform="translate(722.945312 0)"/>
      <use xlink:href="#DejaVuSans-6f" transform="translate(775.435547 0)"/>
     </g>
    </g>
    <g id="patch_9">
     <path d="M 375.078437 76.700562 
L 395.078437 76.700562 
L 395.078437 69.700562 
L 375.078437 69.700562 
z
" style="fill: #ccffcc; stroke: #ccffcc; stroke-linejoin: miter"/>
    </g>
    <g id="text_22">
     <!-- Zona de aceptacin -->
     <g transform="translate(403.078437 76.700562) scale(0.1 -0.1)">
      <defs>
       <path id="DejaVuSans-f3" d="M 1959 3097 
Q 1497 3097 1228 2736 
Q 959 2375 959 1747 
Q 959 1119 1226 758 
Q 1494 397 1959 397 
Q 2419 397 2687 759 
Q 2956 1122 2956 1747 
Q 2956 2369 2687 2733 
Q 2419 3097 1959 3097 
z
M 1959 3584 
Q 2709 3584 3137 3096 
Q 3566 2609 3566 1747 
Q 3566 888 3137 398 
Q 2709 -91 1959 -91 
Q 1206 -91 779 398 
Q 353 888 353 1747 
Q 353 2609 779 3096 
Q 1206 3584 1959 3584 
z
M 2394 5119 
L 3016 5119 
L 1998 3944 
L 1519 3944 
L 2394 5119 
z
" transform="scale(0.015625)"/>
      </defs>
      <use xlink:href="#DejaVuSans-5a"/>
      <use xlink:href="#DejaVuSans-6f" transform="translate(68.505859 0)"/>
      <use xlink:href="#DejaVuSans-6e" transform="translate(129.6875 0)"/>
      <use xlink:href="#DejaVuSans-61" transform="translate(193.066406 0)"/>
      <use xlink:href="#DejaVuSans-20" transform="translate(254.345703 0)"/>
      <use xlink:href="#DejaVuSans-64" transform="translate(286.132812 0)"/>
      <use xlink:href="#DejaVuSans-65" transform="translate(349.609375 0)"/>
      <use xlink:href="#DejaVuSans-20" transform="translate(411.132812 0)"/>
      <use xlink:href="#DejaVuSans-61" transform="translate(442.919922 0)"/>
      <use xlink:href="#DejaVuSans-63" transform="translate(504.199219 0)"/>
      <use xlink:href="#DejaVuSans-65" transform="translate(559.179688 0)"/>
      <use xlink:href="#DejaVuSans-70" transform="translate(620.703125 0)"/>
      <use xlink:href="#DejaVuSans-74" transform="translate(684.179688 0)"/>
      <use xlink:href="#DejaVuSans-61" transform="translate(723.388672 0)"/>
      <use xlink:href="#DejaVuSans-63" transform="translate(784.667969 0)"/>
      <use xlink:href="#DejaVuSans-69" transform="translate(839.648438 0)"/>
      <use xlink:href="#DejaVuSans-f3" transform="translate(867.431641 0)"/>
      <use xlink:href="#DejaVuSans-6e" transform="translate(928.613281 0)"/>
     </g>
    </g>
    <g id="line2d_19">
     <path d="M 375.078437 88.278687 
L 385.078437 88.278687 
L 395.078437 88.278687 
" style="fill: none; stroke: #000000; stroke-width: 2; stroke-linecap: square"/>
    </g>
    <g id="text_23">
     <!-- Distribucin Wilcoxon (aprox.) -->
     <g transform="translate(403.078437 91.778687) scale(0.1 -0.1)">
      <defs>
       <path id="DejaVuSans-44" d="M 1259 4147 
L 1259 519 
L 2022 519 
Q 2988 519 3436 956 
Q 3884 1394 3884 2338 
Q 3884 3275 3436 3711 
Q 2988 4147 2022 4147 
L 1259 4147 
z
M 628 4666 
L 1925 4666 
Q 3281 4666 3915 4102 
Q 4550 3538 4550 2338 
Q 4550 1131 3912 565 
Q 3275 0 1925 0 
L 628 0 
L 628 4666 
z
" transform="scale(0.015625)"/>
      </defs>
      <use xlink:href="#DejaVuSans-44"/>
      <use xlink:href="#DejaVuSans-69" transform="translate(77.001953 0)"/>
      <use xlink:href="#DejaVuSans-73" transform="translate(104.785156 0)"/>
      <use xlink:href="#DejaVuSans-74" transform="translate(156.884766 0)"/>
      <use xlink:href="#DejaVuSans-72" transform="translate(196.09375 0)"/>
      <use xlink:href="#DejaVuSans-69" transform="translate(237.207031 0)"/>
      <use xlink:href="#DejaVuSans-62" transform="translate(264.990234 0)"/>
      <use xlink:href="#DejaVuSans-75" transform="translate(328.466797 0)"/>
      <use xlink:href="#DejaVuSans-63" transform="translate(391.845703 0)"/>
      <use xlink:href="#DejaVuSans-69" transform="translate(446.826172 0)"/>
      <use xlink:href="#DejaVuSans-f3" transform="translate(474.609375 0)"/>
      <use xlink:href="#DejaVuSans-6e" transform="translate(535.791016 0)"/>
      <use xlink:href="#DejaVuSans-20" transform="translate(599.169922 0)"/>
      <use xlink:href="#DejaVuSans-57" transform="translate(630.957031 0)"/>
      <use xlink:href="#DejaVuSans-69" transform="translate(727.583984 0)"/>
      <use xlink:href="#DejaVuSans-6c" transform="translate(755.367188 0)"/>
      <use xlink:href="#DejaVuSans-63" transform="translate(783.150391 0)"/>
      <use xlink:href="#DejaVuSans-6f" transform="translate(838.130859 0)"/>
      <use xlink:href="#DejaVuSans-78" transform="translate(896.1875 0)"/>
      <use xlink:href="#DejaVuSans-6f" transform="translate(952.242188 0)"/>
      <use xlink:href="#DejaVuSans-6e" transform="translate(1013.423828 0)"/>
      <use xlink:href="#DejaVuSans-20" transform="translate(1076.802734 0)"/>
      <use xlink:href="#DejaVuSans-28" transform="translate(1108.589844 0)"/>
      <use xlink:href="#DejaVuSans-61" transform="translate(1147.603516 0)"/>
      <use xlink:href="#DejaVuSans-70" transform="translate(1208.882812 0)"/>
      <use xlink:href="#DejaVuSans-72" transform="translate(1272.359375 0)"/>
      <use xlink:href="#DejaVuSans-6f" transform="translate(1311.222656 0)"/>
      <use xlink:href="#DejaVuSans-78" transform="translate(1369.279297 0)"/>
      <use xlink:href="#DejaVuSans-2e" transform="translate(1428.458984 0)"/>
      <use xlink:href="#DejaVuSans-29" transform="translate(1460.246094 0)"/>
     </g>
    </g>
    <g id="line2d_20">
     <path d="M 375.078437 102.956812 
L 385.078437 102.956812 
L 395.078437 102.956812 
" style="fill: none; stroke-dasharray: 7.4,3.2; stroke-dashoffset: 0; stroke: #ff0000; stroke-width: 2"/>
    </g>
    <g id="text_24">
     <!-- Wc = 3 -->
     <g transform="translate(403.078437 106.456812) scale(0.1 -0.1)">
      <use xlink:href="#DejaVuSans-57"/>
      <use xlink:href="#DejaVuSans-63" transform="translate(98.876953 0)"/>
      <use xlink:href="#DejaVuSans-20" transform="translate(153.857422 0)"/>
      <use xlink:href="#DejaVuSans-3d" transform="translate(185.644531 0)"/>
      <use xlink:href="#DejaVuSans-20" transform="translate(269.433594 0)"/>
      <use xlink:href="#DejaVuSans-33" transform="translate(301.220703 0)"/>
     </g>
    </g>
    <g id="line2d_21">
     <path d="M 375.078437 117.634937 
L 385.078437 117.634937 
L 395.078437 117.634937 
" style="fill: none; stroke: #0000ff; stroke-width: 2; stroke-linecap: square"/>
    </g>
    <g id="text_25">
     <!-- W = 0 -->
     <g transform="translate(403.078437 121.134937) scale(0.1 -0.1)">
      <use xlink:href="#DejaVuSans-57"/>
      <use xlink:href="#DejaVuSans-20" transform="translate(98.876953 0)"/>
      <use xlink:href="#DejaVuSans-3d" transform="translate(130.664062 0)"/>
      <use xlink:href="#DejaVuSans-20" transform="translate(214.453125 0)"/>
      <use xlink:href="#DejaVuSans-30" transform="translate(246.240234 0)"/>
     </g>
    </g>
   </g>
  </g>
 </g>
 <defs>
  <clipPath id="pf95bf6a2a0">
   <rect x="60.32" y="45.024" width="501.685" height="201.016"/>
  </clipPath>
 </defs>
</svg>
