<?xml version="1.0" encoding="utf-8" standalone="no"?>
<!DOCTYPE svg PUBLIC "-//W3C//DTD SVG 1.1//EN"
  "http://www.w3.org/Graphics/SVG/1.1/DTD/svg11.dtd">
<svg xmlns:xlink="http://www.w3.org/1999/xlink" width="576pt" height="288pt" viewBox="0 0 576 288" xmlns="http://www.w3.org/2000/svg" version="1.1">
 <metadata>
  <rdf:RDF xmlns:dc="http://purl.org/dc/elements/1.1/" xmlns:cc="http://creativecommons.org/ns#" xmlns:rdf="http://www.w3.org/1999/02/22-rdf-syntax-ns#">
   <cc:Work>
    <dc:type rdf:resource="http://purl.org/dc/dcmitype/StillImage"/>
    <dc:date>2025-05-16T18:50:46.182694</dc:date>
    <dc:format>image/svg+xml</dc:format>
    <dc:creator>
     <cc:Agent>
      <dc:title>Matplotlib v3.10.1, https://matplotlib.org/</dc:title>
     </cc:Agent>
    </dc:creator>
   </cc:Work>
  </rdf:RDF>
 </metadata>
 <defs>
  <style type="text/css">*{stroke-linejoin: round; stroke-linecap: butt}</style>
 </defs>
 <g id="figure_1">
  <g id="patch_1">
   <path d="M 0 288 
L 576 288 
L 576 0 
L 0 0 
z
" style="fill: #ffffff"/>
  </g>
  <g id="axes_1">
   <g id="patch_2">
    <path d="M 60.32 246.04 
L 565.2 246.04 
L 565.2 45.024 
L 60.32 45.024 
z
" style="fill: #ffffff"/>
   </g>
   <g id="FillBetweenPolyCollection_1">
    <defs>
     <path id="m908c1d0775" d="M 60.32 -42.325243 
L 60.32 -41.96 
L 60.825385 -41.96 
L 61.330771 -41.96 
L 61.836156 -41.96 
L 62.341542 -41.96 
L 62.846927 -41.96 
L 63.352312 -41.96 
L 63.857698 -41.96 
L 64.363083 -41.96 
L 64.868468 -41.96 
L 65.373854 -41.96 
L 65.879239 -41.96 
L 66.384625 -41.96 
L 66.89001 -41.96 
L 67.395395 -41.96 
L 67.900781 -41.96 
L 68.406166 -41.96 
L 68.911552 -41.96 
L 69.416937 -41.96 
L 69.922322 -41.96 
L 70.427708 -41.96 
L 70.933093 -41.96 
L 71.438478 -41.96 
L 71.943864 -41.96 
L 72.449249 -41.96 
L 72.954635 -41.96 
L 73.46002 -41.96 
L 73.965405 -41.96 
L 74.470791 -41.96 
L 74.976176 -41.96 
L 75.481562 -41.96 
L 75.986947 -41.96 
L 76.492332 -41.96 
L 76.997718 -41.96 
L 77.503103 -41.96 
L 78.008488 -41.96 
L 78.513874 -41.96 
L 79.019259 -41.96 
L 79.524645 -41.96 
L 80.03003 -41.96 
L 80.535415 -41.96 
L 81.040801 -41.96 
L 81.546186 -41.96 
L 82.051572 -41.96 
L 82.556957 -41.96 
L 83.062342 -41.96 
L 83.567728 -41.96 
L 84.073113 -41.96 
L 84.578498 -41.96 
L 85.083884 -41.96 
L 85.589269 -41.96 
L 86.094655 -41.96 
L 86.60004 -41.96 
L 87.105425 -41.96 
L 87.610811 -41.96 
L 88.116196 -41.96 
L 88.621582 -41.96 
L 89.126967 -41.96 
L 89.632352 -41.96 
L 90.137738 -41.96 
L 90.643123 -41.96 
L 91.148509 -41.96 
L 91.653894 -41.96 
L 92.159279 -41.96 
L 92.664665 -41.96 
L 93.17005 -41.96 
L 93.675435 -41.96 
L 94.180821 -41.96 
L 94.686206 -41.96 
L 95.191592 -41.96 
L 95.696977 -41.96 
L 96.202362 -41.96 
L 96.707748 -41.96 
L 97.213133 -41.96 
L 97.718519 -41.96 
L 98.223904 -41.96 
L 98.729289 -41.96 
L 99.234675 -41.96 
L 99.74006 -41.96 
L 100.245445 -41.96 
L 100.750831 -41.96 
L 101.256216 -41.96 
L 101.761602 -41.96 
L 102.266987 -41.96 
L 102.772372 -41.96 
L 103.277758 -41.96 
L 103.783143 -41.96 
L 104.288529 -41.96 
L 104.793914 -41.96 
L 105.299299 -41.96 
L 105.804685 -41.96 
L 106.31007 -41.96 
L 106.815455 -41.96 
L 107.320841 -41.96 
L 107.826226 -41.96 
L 108.331612 -41.96 
L 108.836997 -41.96 
L 109.342382 -41.96 
L 109.847768 -41.96 
L 110.353153 -41.96 
L 110.858539 -41.96 
L 111.363924 -41.96 
L 111.869309 -41.96 
L 112.374695 -41.96 
L 112.88008 -41.96 
L 113.385465 -41.96 
L 113.890851 -41.96 
L 114.396236 -41.96 
L 114.901622 -41.96 
L 115.407007 -41.96 
L 115.912392 -41.96 
L 116.417778 -41.96 
L 116.923163 -41.96 
L 117.428549 -41.96 
L 117.933934 -41.96 
L 118.439319 -41.96 
L 118.944705 -41.96 
L 119.45009 -41.96 
L 119.955475 -41.96 
L 120.460861 -41.96 
L 120.966246 -41.96 
L 121.471632 -41.96 
L 121.977017 -41.96 
L 122.482402 -41.96 
L 122.987788 -41.96 
L 123.493173 -41.96 
L 123.998559 -41.96 
L 124.503944 -41.96 
L 125.009329 -41.96 
L 125.514715 -41.96 
L 126.0201 -41.96 
L 126.525485 -41.96 
L 127.030871 -41.96 
L 127.536256 -41.96 
L 128.041642 -41.96 
L 128.547027 -41.96 
L 129.052412 -41.96 
L 129.557798 -41.96 
L 130.063183 -41.96 
L 130.568569 -41.96 
L 131.073954 -41.96 
L 131.579339 -41.96 
L 132.084725 -41.96 
L 132.59011 -41.96 
L 133.095495 -41.96 
L 133.600881 -41.96 
L 134.106266 -41.96 
L 134.611652 -41.96 
L 135.117037 -41.96 
L 135.622422 -41.96 
L 136.127808 -41.96 
L 136.633193 -41.96 
L 137.138579 -41.96 
L 137.643964 -41.96 
L 138.149349 -41.96 
L 138.654735 -41.96 
L 139.16012 -41.96 
L 139.665506 -41.96 
L 140.170891 -41.96 
L 140.676276 -41.96 
L 141.181662 -41.96 
L 141.687047 -41.96 
L 142.192432 -41.96 
L 142.697818 -41.96 
L 143.203203 -41.96 
L 143.708589 -41.96 
L 144.213974 -41.96 
L 144.719359 -41.96 
L 145.224745 -41.96 
L 145.73013 -41.96 
L 146.235516 -41.96 
L 146.740901 -41.96 
L 147.246286 -41.96 
L 147.751672 -41.96 
L 148.257057 -41.96 
L 148.762442 -41.96 
L 149.267828 -41.96 
L 149.773213 -41.96 
L 150.278599 -41.96 
L 150.783984 -41.96 
L 151.289369 -41.96 
L 151.794755 -41.96 
L 152.30014 -41.96 
L 152.805526 -41.96 
L 153.310911 -41.96 
L 153.816296 -41.96 
L 154.321682 -41.96 
L 154.827067 -41.96 
L 155.332452 -41.96 
L 155.837838 -41.96 
L 156.343223 -41.96 
L 156.848609 -41.96 
L 157.353994 -41.96 
L 157.859379 -41.96 
L 158.364765 -41.96 
L 158.87015 -41.96 
L 159.375536 -41.96 
L 159.880921 -41.96 
L 160.386306 -41.96 
L 160.891692 -41.96 
L 161.397077 -41.96 
L 161.902462 -41.96 
L 162.407848 -41.96 
L 162.913233 -41.96 
L 163.418619 -41.96 
L 163.924004 -41.96 
L 164.429389 -41.96 
L 164.934775 -41.96 
L 165.44016 -41.96 
L 165.945546 -41.96 
L 166.450931 -41.96 
L 166.956316 -41.96 
L 167.461702 -41.96 
L 167.967087 -41.96 
L 168.472472 -41.96 
L 168.977858 -41.96 
L 169.483243 -41.96 
L 169.988629 -41.96 
L 170.494014 -41.96 
L 170.999399 -41.96 
L 171.504785 -41.96 
L 172.01017 -41.96 
L 172.515556 -41.96 
L 173.020941 -41.96 
L 173.526326 -41.96 
L 174.031712 -41.96 
L 174.537097 -41.96 
L 175.042482 -41.96 
L 175.547868 -41.96 
L 176.053253 -41.96 
L 176.558639 -41.96 
L 177.064024 -41.96 
L 177.569409 -41.96 
L 178.074795 -41.96 
L 178.58018 -41.96 
L 179.085566 -41.96 
L 179.590951 -41.96 
L 180.096336 -41.96 
L 180.601722 -41.96 
L 181.107107 -41.96 
L 181.612492 -41.96 
L 182.117878 -41.96 
L 182.623263 -41.96 
L 183.128649 -41.96 
L 183.634034 -41.96 
L 184.139419 -41.96 
L 184.644805 -41.96 
L 185.15019 -41.96 
L 185.655576 -41.96 
L 186.160961 -41.96 
L 186.666346 -41.96 
L 187.171732 -41.96 
L 187.677117 -41.96 
L 188.182503 -41.96 
L 188.687888 -41.96 
L 189.193273 -41.96 
L 189.698659 -41.96 
L 190.204044 -41.96 
L 190.709429 -41.96 
L 191.214815 -41.96 
L 191.7202 -41.96 
L 192.225586 -41.96 
L 192.730971 -41.96 
L 193.236356 -41.96 
L 193.741742 -41.96 
L 194.247127 -41.96 
L 194.752513 -41.96 
L 195.257898 -41.96 
L 195.763283 -41.96 
L 196.268669 -41.96 
L 196.774054 -41.96 
L 197.279439 -41.96 
L 197.784825 -41.96 
L 198.29021 -41.96 
L 198.795596 -41.96 
L 199.300981 -41.96 
L 199.806366 -41.96 
L 200.311752 -41.96 
L 200.817137 -41.96 
L 201.322523 -41.96 
L 201.827908 -41.96 
L 202.333293 -41.96 
L 202.838679 -41.96 
L 203.344064 -41.96 
L 203.849449 -41.96 
L 204.354835 -41.96 
L 204.86022 -41.96 
L 205.365606 -41.96 
L 205.870991 -41.96 
L 206.376376 -41.96 
L 206.881762 -41.96 
L 207.387147 -41.96 
L 207.892533 -41.96 
L 208.397918 -41.96 
L 208.903303 -41.96 
L 209.408689 -41.96 
L 209.914074 -41.96 
L 210.419459 -41.96 
L 210.924845 -41.96 
L 211.43023 -41.96 
L 211.935616 -41.96 
L 212.441001 -41.96 
L 212.946386 -41.96 
L 213.451772 -41.96 
L 213.957157 -41.96 
L 214.462543 -41.96 
L 214.967928 -41.96 
L 215.473313 -41.96 
L 215.978699 -41.96 
L 216.484084 -41.96 
L 216.989469 -41.96 
L 217.494855 -41.96 
L 218.00024 -41.96 
L 218.505626 -41.96 
L 219.011011 -41.96 
L 219.516396 -41.96 
L 220.021782 -41.96 
L 220.527167 -41.96 
L 221.032553 -41.96 
L 221.537938 -41.96 
L 222.043323 -41.96 
L 222.548709 -41.96 
L 223.054094 -41.96 
L 223.559479 -41.96 
L 224.064865 -41.96 
L 224.57025 -41.96 
L 225.075636 -41.96 
L 225.581021 -41.96 
L 226.086406 -41.96 
L 226.591792 -41.96 
L 227.097177 -41.96 
L 227.602563 -41.96 
L 228.107948 -41.96 
L 228.613333 -41.96 
L 229.118719 -41.96 
L 229.624104 -41.96 
L 230.129489 -41.96 
L 230.634875 -41.96 
L 231.14026 -41.96 
L 231.645646 -41.96 
L 232.151031 -41.96 
L 232.656416 -41.96 
L 233.161802 -41.96 
L 233.667187 -41.96 
L 234.172573 -41.96 
L 234.677958 -41.96 
L 235.183343 -41.96 
L 235.688729 -41.96 
L 236.194114 -41.96 
L 236.699499 -41.96 
L 237.204885 -41.96 
L 237.71027 -41.96 
L 238.215656 -41.96 
L 238.721041 -41.96 
L 239.226426 -41.96 
L 239.731812 -41.96 
L 240.237197 -41.96 
L 240.742583 -41.96 
L 241.247968 -41.96 
L 241.753353 -41.96 
L 242.258739 -41.96 
L 242.764124 -41.96 
L 243.26951 -41.96 
L 243.774895 -41.96 
L 244.28028 -41.96 
L 244.785666 -41.96 
L 245.291051 -41.96 
L 245.796436 -41.96 
L 246.301822 -41.96 
L 246.807207 -41.96 
L 247.312593 -41.96 
L 247.817978 -41.96 
L 248.323363 -41.96 
L 248.828749 -41.96 
L 249.334134 -41.96 
L 249.83952 -41.96 
L 250.344905 -41.96 
L 250.85029 -41.96 
L 251.355676 -41.96 
L 251.861061 -41.96 
L 252.366446 -41.96 
L 252.871832 -41.96 
L 253.377217 -41.96 
L 253.882603 -41.96 
L 254.387988 -41.96 
L 254.893373 -41.96 
L 255.398759 -41.96 
L 255.904144 -41.96 
L 256.40953 -41.96 
L 256.914915 -41.96 
L 257.4203 -41.96 
L 257.925686 -41.96 
L 258.431071 -41.96 
L 258.936456 -41.96 
L 259.441842 -41.96 
L 259.947227 -41.96 
L 260.452613 -41.96 
L 260.957998 -41.96 
L 261.463383 -41.96 
L 261.968769 -41.96 
L 262.474154 -41.96 
L 262.97954 -41.96 
L 263.484925 -41.96 
L 263.99031 -41.96 
L 264.495696 -41.96 
L 265.001081 -41.96 
L 265.506466 -41.96 
L 266.011852 -41.96 
L 266.517237 -41.96 
L 267.022623 -41.96 
L 267.528008 -41.96 
L 268.033393 -41.96 
L 268.538779 -41.96 
L 269.044164 -41.96 
L 269.54955 -41.96 
L 270.054935 -41.96 
L 270.56032 -41.96 
L 271.065706 -41.96 
L 271.571091 -41.96 
L 272.076476 -41.96 
L 272.581862 -41.96 
L 273.087247 -41.96 
L 273.592633 -41.96 
L 274.098018 -41.96 
L 274.603403 -41.96 
L 275.108789 -41.96 
L 275.614174 -41.96 
L 276.11956 -41.96 
L 276.624945 -41.96 
L 277.13033 -41.96 
L 277.635716 -41.96 
L 278.141101 -41.96 
L 278.646486 -41.96 
L 279.151872 -41.96 
L 279.657257 -41.96 
L 280.162643 -41.96 
L 280.668028 -41.96 
L 281.173413 -41.96 
L 281.678799 -41.96 
L 282.184184 -41.96 
L 282.68957 -41.96 
L 283.194955 -41.96 
L 283.70034 -41.96 
L 284.205726 -41.96 
L 284.711111 -41.96 
L 285.216496 -41.96 
L 285.721882 -41.96 
L 286.227267 -41.96 
L 286.732653 -41.96 
L 287.238038 -41.96 
L 287.743423 -41.96 
L 288.248809 -41.96 
L 288.754194 -41.96 
L 289.25958 -41.96 
L 289.764965 -41.96 
L 290.27035 -41.96 
L 290.775736 -41.96 
L 291.281121 -41.96 
L 291.786507 -41.96 
L 292.291892 -41.96 
L 292.797277 -41.96 
L 293.302663 -41.96 
L 293.808048 -41.96 
L 294.313433 -41.96 
L 294.818819 -41.96 
L 295.324204 -41.96 
L 295.82959 -41.96 
L 296.334975 -41.96 
L 296.84036 -41.96 
L 297.345746 -41.96 
L 297.851131 -41.96 
L 298.356517 -41.96 
L 298.861902 -41.96 
L 299.367287 -41.96 
L 299.872673 -41.96 
L 300.378058 -41.96 
L 300.883443 -41.96 
L 301.388829 -41.96 
L 301.894214 -41.96 
L 302.3996 -41.96 
L 302.904985 -41.96 
L 303.41037 -41.96 
L 303.915756 -41.96 
L 304.421141 -41.96 
L 304.926527 -41.96 
L 305.431912 -41.96 
L 305.937297 -41.96 
L 306.442683 -41.96 
L 306.948068 -41.96 
L 307.453453 -41.96 
L 307.958839 -41.96 
L 308.464224 -41.96 
L 308.96961 -41.96 
L 309.474995 -41.96 
L 309.98038 -41.96 
L 310.485766 -41.96 
L 310.991151 -41.96 
L 311.496537 -41.96 
L 312.001922 -41.96 
L 312.507307 -41.96 
L 312.507307 -60.041028 
L 312.507307 -60.041028 
L 312.001922 -59.928771 
L 311.496537 -59.817098 
L 310.991151 -59.706004 
L 310.485766 -59.59549 
L 309.98038 -59.485551 
L 309.474995 -59.376186 
L 308.96961 -59.267393 
L 308.464224 -59.15917 
L 307.958839 -59.051515 
L 307.453453 -58.944424 
L 306.948068 -58.837897 
L 306.442683 -58.73193 
L 305.937297 -58.626523 
L 305.431912 -58.521672 
L 304.926527 -58.417375 
L 304.421141 -58.313631 
L 303.915756 -58.210436 
L 303.41037 -58.10779 
L 302.904985 -58.005689 
L 302.3996 -57.904132 
L 301.894214 -57.803117 
L 301.388829 -57.702641 
L 300.883443 -57.602702 
L 300.378058 -57.503298 
L 299.872673 -57.404427 
L 299.367287 -57.306087 
L 298.861902 -57.208276 
L 298.356517 -57.110991 
L 297.851131 -57.01423 
L 297.345746 -56.917992 
L 296.84036 -56.822274 
L 296.334975 -56.727075 
L 295.82959 -56.632391 
L 295.324204 -56.538221 
L 294.818819 -56.444563 
L 294.313433 -56.351415 
L 293.808048 -56.258774 
L 293.302663 -56.166639 
L 292.797277 -56.075007 
L 292.291892 -55.983876 
L 291.786507 -55.893245 
L 291.281121 -55.803111 
L 290.775736 -55.713472 
L 290.27035 -55.624327 
L 289.764965 -55.535672 
L 289.25958 -55.447506 
L 288.754194 -55.359828 
L 288.248809 -55.272634 
L 287.743423 -55.185923 
L 287.238038 -55.099692 
L 286.732653 -55.013941 
L 286.227267 -54.928666 
L 285.721882 -54.843866 
L 285.216496 -54.759538 
L 284.711111 -54.675681 
L 284.205726 -54.592293 
L 283.70034 -54.509372 
L 283.194955 -54.426915 
L 282.68957 -54.34492 
L 282.184184 -54.263387 
L 281.678799 -54.182311 
L 281.173413 -54.101693 
L 280.668028 -54.021529 
L 280.162643 -53.941818 
L 279.657257 -53.862558 
L 279.151872 -53.783746 
L 278.646486 -53.705381 
L 278.141101 -53.627461 
L 277.635716 -53.549983 
L 277.13033 -53.472947 
L 276.624945 -53.396349 
L 276.11956 -53.320189 
L 275.614174 -53.244463 
L 275.108789 -53.169171 
L 274.603403 -53.09431 
L 274.098018 -53.019878 
L 273.592633 -52.945873 
L 273.087247 -52.872294 
L 272.581862 -52.799138 
L 272.076476 -52.726404 
L 271.571091 -52.65409 
L 271.065706 -52.582193 
L 270.56032 -52.510713 
L 270.054935 -52.439646 
L 269.54955 -52.368991 
L 269.044164 -52.298747 
L 268.538779 -52.228911 
L 268.033393 -52.159482 
L 267.528008 -52.090457 
L 267.022623 -52.021836 
L 266.517237 -51.953615 
L 266.011852 -51.885793 
L 265.506466 -51.818368 
L 265.001081 -51.751339 
L 264.495696 -51.684703 
L 263.99031 -51.61846 
L 263.484925 -51.552606 
L 262.97954 -51.48714 
L 262.474154 -51.42206 
L 261.968769 -51.357365 
L 261.463383 -51.293053 
L 260.957998 -51.229121 
L 260.452613 -51.165569 
L 259.947227 -51.102394 
L 259.441842 -51.039594 
L 258.936456 -50.977168 
L 258.431071 -50.915114 
L 257.925686 -50.85343 
L 257.4203 -50.792115 
L 256.914915 -50.731166 
L 256.40953 -50.670582 
L 255.904144 -50.610362 
L 255.398759 -50.550503 
L 254.893373 -50.491003 
L 254.387988 -50.431861 
L 253.882603 -50.373076 
L 253.377217 -50.314645 
L 252.871832 -50.256567 
L 252.366446 -50.19884 
L 251.861061 -50.141462 
L 251.355676 -50.084432 
L 250.85029 -50.027748 
L 250.344905 -49.971408 
L 249.83952 -49.915411 
L 249.334134 -49.859755 
L 248.828749 -49.804438 
L 248.323363 -49.749458 
L 247.817978 -49.694815 
L 247.312593 -49.640505 
L 246.807207 -49.586528 
L 246.301822 -49.532882 
L 245.796436 -49.479566 
L 245.291051 -49.426577 
L 244.785666 -49.373914 
L 244.28028 -49.321575 
L 243.774895 -49.269559 
L 243.26951 -49.217864 
L 242.764124 -49.166489 
L 242.258739 -49.115432 
L 241.753353 -49.064691 
L 241.247968 -49.014265 
L 240.742583 -48.964151 
L 240.237197 -48.91435 
L 239.731812 -48.864858 
L 239.226426 -48.815675 
L 238.721041 -48.766798 
L 238.215656 -48.718227 
L 237.71027 -48.66996 
L 237.204885 -48.621994 
L 236.699499 -48.57433 
L 236.194114 -48.526964 
L 235.688729 -48.479896 
L 235.183343 -48.433123 
L 234.677958 -48.386646 
L 234.172573 -48.340461 
L 233.667187 -48.294567 
L 233.161802 -48.248964 
L 232.656416 -48.203649 
L 232.151031 -48.15862 
L 231.645646 -48.113877 
L 231.14026 -48.069418 
L 230.634875 -48.025242 
L 230.129489 -47.981346 
L 229.624104 -47.93773 
L 229.118719 -47.894392 
L 228.613333 -47.85133 
L 228.107948 -47.808544 
L 227.602563 -47.766031 
L 227.097177 -47.72379 
L 226.591792 -47.68182 
L 226.086406 -47.640119 
L 225.581021 -47.598687 
L 225.075636 -47.55752 
L 224.57025 -47.516619 
L 224.064865 -47.475981 
L 223.559479 -47.435605 
L 223.054094 -47.395491 
L 222.548709 -47.355635 
L 222.043323 -47.316038 
L 221.537938 -47.276697 
L 221.032553 -47.237611 
L 220.527167 -47.19878 
L 220.021782 -47.1602 
L 219.516396 -47.121872 
L 219.011011 -47.083794 
L 218.505626 -47.045964 
L 218.00024 -47.008381 
L 217.494855 -46.971044 
L 216.989469 -46.933951 
L 216.484084 -46.897101 
L 215.978699 -46.860492 
L 215.473313 -46.824124 
L 214.967928 -46.787996 
L 214.462543 -46.752104 
L 213.957157 -46.71645 
L 213.451772 -46.68103 
L 212.946386 -46.645844 
L 212.441001 -46.610891 
L 211.935616 -46.576169 
L 211.43023 -46.541676 
L 210.924845 -46.507413 
L 210.419459 -46.473377 
L 209.914074 -46.439566 
L 209.408689 -46.405981 
L 208.903303 -46.37262 
L 208.397918 -46.33948 
L 207.892533 -46.306562 
L 207.387147 -46.273864 
L 206.881762 -46.241384 
L 206.376376 -46.209122 
L 205.870991 -46.177076 
L 205.365606 -46.145244 
L 204.86022 -46.113627 
L 204.354835 -46.082222 
L 203.849449 -46.051028 
L 203.344064 -46.020044 
L 202.838679 -45.989269 
L 202.333293 -45.958702 
L 201.827908 -45.928342 
L 201.322523 -45.898187 
L 200.817137 -45.868236 
L 200.311752 -45.838488 
L 199.806366 -45.808941 
L 199.300981 -45.779596 
L 198.795596 -45.75045 
L 198.29021 -45.721502 
L 197.784825 -45.692752 
L 197.279439 -45.664197 
L 196.774054 -45.635838 
L 196.268669 -45.607672 
L 195.763283 -45.579699 
L 195.257898 -45.551918 
L 194.752513 -45.524327 
L 194.247127 -45.496925 
L 193.741742 -45.469711 
L 193.236356 -45.442685 
L 192.730971 -45.415845 
L 192.225586 -45.389189 
L 191.7202 -45.362718 
L 191.214815 -45.336429 
L 190.709429 -45.310322 
L 190.204044 -45.284395 
L 189.698659 -45.258648 
L 189.193273 -45.23308 
L 188.687888 -45.207689 
L 188.182503 -45.182474 
L 187.677117 -45.157435 
L 187.171732 -45.13257 
L 186.666346 -45.107878 
L 186.160961 -45.083358 
L 185.655576 -45.05901 
L 185.15019 -45.034831 
L 184.644805 -45.010822 
L 184.139419 -44.986981 
L 183.634034 -44.963307 
L 183.128649 -44.939799 
L 182.623263 -44.916457 
L 182.117878 -44.893278 
L 181.612492 -44.870263 
L 181.107107 -44.847409 
L 180.601722 -44.824717 
L 180.096336 -44.802185 
L 179.590951 -44.779812 
L 179.085566 -44.757597 
L 178.58018 -44.73554 
L 178.074795 -44.713639 
L 177.569409 -44.691893 
L 177.064024 -44.670302 
L 176.558639 -44.648864 
L 176.053253 -44.627579 
L 175.547868 -44.606445 
L 175.042482 -44.585462 
L 174.537097 -44.564628 
L 174.031712 -44.543944 
L 173.526326 -44.523407 
L 173.020941 -44.503017 
L 172.515556 -44.482773 
L 172.01017 -44.462675 
L 171.504785 -44.442721 
L 170.999399 -44.42291 
L 170.494014 -44.403241 
L 169.988629 -44.383714 
L 169.483243 -44.364328 
L 168.977858 -44.345082 
L 168.472472 -44.325974 
L 167.967087 -44.307005 
L 167.461702 -44.288172 
L 166.956316 -44.269477 
L 166.450931 -44.250916 
L 165.945546 -44.23249 
L 165.44016 -44.214198 
L 164.934775 -44.196039 
L 164.429389 -44.178013 
L 163.924004 -44.160117 
L 163.418619 -44.142352 
L 162.913233 -44.124716 
L 162.407848 -44.107209 
L 161.902462 -44.08983 
L 161.397077 -44.072579 
L 160.891692 -44.055453 
L 160.386306 -44.038454 
L 159.880921 -44.021579 
L 159.375536 -44.004827 
L 158.87015 -43.988199 
L 158.364765 -43.971694 
L 157.859379 -43.95531 
L 157.353994 -43.939046 
L 156.848609 -43.922903 
L 156.343223 -43.906879 
L 155.837838 -43.890974 
L 155.332452 -43.875186 
L 154.827067 -43.859515 
L 154.321682 -43.84396 
L 153.816296 -43.828521 
L 153.310911 -43.813196 
L 152.805526 -43.797985 
L 152.30014 -43.782888 
L 151.794755 -43.767903 
L 151.289369 -43.753029 
L 150.783984 -43.738267 
L 150.278599 -43.723615 
L 149.773213 -43.709072 
L 149.267828 -43.694639 
L 148.762442 -43.680313 
L 148.257057 -43.666095 
L 147.751672 -43.651983 
L 147.246286 -43.637978 
L 146.740901 -43.624078 
L 146.235516 -43.610282 
L 145.73013 -43.59659 
L 145.224745 -43.583002 
L 144.719359 -43.569516 
L 144.213974 -43.556132 
L 143.708589 -43.542849 
L 143.203203 -43.529666 
L 142.697818 -43.516584 
L 142.192432 -43.5036 
L 141.687047 -43.490716 
L 141.181662 -43.477928 
L 140.676276 -43.465239 
L 140.170891 -43.452645 
L 139.665506 -43.440148 
L 139.16012 -43.427746 
L 138.654735 -43.415438 
L 138.149349 -43.403225 
L 137.643964 -43.391104 
L 137.138579 -43.379077 
L 136.633193 -43.367141 
L 136.127808 -43.355297 
L 135.622422 -43.343544 
L 135.117037 -43.331881 
L 134.611652 -43.320308 
L 134.106266 -43.308824 
L 133.600881 -43.297428 
L 133.095495 -43.28612 
L 132.59011 -43.274899 
L 132.084725 -43.263765 
L 131.579339 -43.252717 
L 131.073954 -43.241754 
L 130.568569 -43.230876 
L 130.063183 -43.220082 
L 129.557798 -43.209372 
L 129.052412 -43.198745 
L 128.547027 -43.188201 
L 128.041642 -43.177739 
L 127.536256 -43.167358 
L 127.030871 -43.157057 
L 126.525485 -43.146838 
L 126.0201 -43.136697 
L 125.514715 -43.126637 
L 125.009329 -43.116654 
L 124.503944 -43.10675 
L 123.998559 -43.096923 
L 123.493173 -43.087174 
L 122.987788 -43.0775 
L 122.482402 -43.067903 
L 121.977017 -43.058381 
L 121.471632 -43.048934 
L 120.966246 -43.039561 
L 120.460861 -43.030263 
L 119.955475 -43.021037 
L 119.45009 -43.011884 
L 118.944705 -43.002804 
L 118.439319 -42.993795 
L 117.933934 -42.984858 
L 117.428549 -42.975991 
L 116.923163 -42.967195 
L 116.417778 -42.958468 
L 115.912392 -42.949811 
L 115.407007 -42.941222 
L 114.901622 -42.932702 
L 114.396236 -42.92425 
L 113.890851 -42.915865 
L 113.385465 -42.907547 
L 112.88008 -42.899295 
L 112.374695 -42.891109 
L 111.869309 -42.882988 
L 111.363924 -42.874933 
L 110.858539 -42.866942 
L 110.353153 -42.859015 
L 109.847768 -42.851152 
L 109.342382 -42.843351 
L 108.836997 -42.835614 
L 108.331612 -42.827939 
L 107.826226 -42.820325 
L 107.320841 -42.812773 
L 106.815455 -42.805282 
L 106.31007 -42.797851 
L 105.804685 -42.79048 
L 105.299299 -42.783169 
L 104.793914 -42.775916 
L 104.288529 -42.768723 
L 103.783143 -42.761588 
L 103.277758 -42.754511 
L 102.772372 -42.747491 
L 102.266987 -42.740528 
L 101.761602 -42.733622 
L 101.256216 -42.726772 
L 100.750831 -42.719978 
L 100.245445 -42.713239 
L 99.74006 -42.706556 
L 99.234675 -42.699926 
L 98.729289 -42.693351 
L 98.223904 -42.68683 
L 97.718519 -42.680362 
L 97.213133 -42.673947 
L 96.707748 -42.667585 
L 96.202362 -42.661275 
L 95.696977 -42.655017 
L 95.191592 -42.64881 
L 94.686206 -42.642654 
L 94.180821 -42.636549 
L 93.675435 -42.630495 
L 93.17005 -42.62449 
L 92.664665 -42.618535 
L 92.159279 -42.612629 
L 91.653894 -42.606772 
L 91.148509 -42.600963 
L 90.643123 -42.595202 
L 90.137738 -42.589489 
L 89.632352 -42.583824 
L 89.126967 -42.578206 
L 88.621582 -42.572634 
L 88.116196 -42.567108 
L 87.610811 -42.561629 
L 87.105425 -42.556195 
L 86.60004 -42.550807 
L 86.094655 -42.545463 
L 85.589269 -42.540164 
L 85.083884 -42.53491 
L 84.578498 -42.529699 
L 84.073113 -42.524532 
L 83.567728 -42.519408 
L 83.062342 -42.514327 
L 82.556957 -42.509289 
L 82.051572 -42.504293 
L 81.546186 -42.49934 
L 81.040801 -42.494427 
L 80.535415 -42.489557 
L 80.03003 -42.484727 
L 79.524645 -42.479938 
L 79.019259 -42.475189 
L 78.513874 -42.470481 
L 78.008488 -42.465812 
L 77.503103 -42.461183 
L 76.997718 -42.456592 
L 76.492332 -42.452041 
L 75.986947 -42.447529 
L 75.481562 -42.443054 
L 74.976176 -42.438618 
L 74.470791 -42.43422 
L 73.965405 -42.429858 
L 73.46002 -42.425534 
L 72.954635 -42.421247 
L 72.449249 -42.416997 
L 71.943864 -42.412782 
L 71.438478 -42.408604 
L 70.933093 -42.404461 
L 70.427708 -42.400354 
L 69.922322 -42.396282 
L 69.416937 -42.392245 
L 68.911552 -42.388243 
L 68.406166 -42.384274 
L 67.900781 -42.38034 
L 67.395395 -42.37644 
L 66.89001 -42.372573 
L 66.384625 -42.36874 
L 65.879239 -42.36494 
L 65.373854 -42.361172 
L 64.868468 -42.357437 
L 64.363083 -42.353734 
L 63.857698 -42.350063 
L 63.352312 -42.346424 
L 62.846927 -42.342817 
L 62.341542 -42.33924 
L 61.836156 -42.335695 
L 61.330771 -42.33218 
L 60.825385 -42.328696 
L 60.32 -42.325243 
z
" style="stroke: #ffcccc"/>
    </defs>
    <g clip-path="url(#p893abab953)">
     <use xlink:href="#m908c1d0775" x="0" y="288" style="fill: #ffcccc; stroke: #ffcccc"/>
    </g>
   </g>
   <g id="FillBetweenPolyCollection_2">
    <defs>
     <path id="m60edc761e6" d="M 313.012693 -60.15387 
L 313.012693 -41.96 
L 313.518078 -41.96 
L 314.023463 -41.96 
L 314.528849 -41.96 
L 315.034234 -41.96 
L 315.53962 -41.96 
L 316.045005 -41.96 
L 316.55039 -41.96 
L 317.055776 -41.96 
L 317.561161 -41.96 
L 318.066547 -41.96 
L 318.571932 -41.96 
L 319.077317 -41.96 
L 319.582703 -41.96 
L 320.088088 -41.96 
L 320.593473 -41.96 
L 321.098859 -41.96 
L 321.604244 -41.96 
L 322.10963 -41.96 
L 322.615015 -41.96 
L 323.1204 -41.96 
L 323.625786 -41.96 
L 324.131171 -41.96 
L 324.636557 -41.96 
L 325.141942 -41.96 
L 325.647327 -41.96 
L 326.152713 -41.96 
L 326.658098 -41.96 
L 327.163483 -41.96 
L 327.668869 -41.96 
L 328.174254 -41.96 
L 328.67964 -41.96 
L 329.185025 -41.96 
L 329.69041 -41.96 
L 330.195796 -41.96 
L 330.701181 -41.96 
L 331.206567 -41.96 
L 331.711952 -41.96 
L 332.217337 -41.96 
L 332.722723 -41.96 
L 333.228108 -41.96 
L 333.733493 -41.96 
L 334.238879 -41.96 
L 334.744264 -41.96 
L 335.24965 -41.96 
L 335.755035 -41.96 
L 336.26042 -41.96 
L 336.765806 -41.96 
L 337.271191 -41.96 
L 337.776577 -41.96 
L 338.281962 -41.96 
L 338.787347 -41.96 
L 339.292733 -41.96 
L 339.798118 -41.96 
L 340.303504 -41.96 
L 340.808889 -41.96 
L 341.314274 -41.96 
L 341.81966 -41.96 
L 342.325045 -41.96 
L 342.83043 -41.96 
L 343.335816 -41.96 
L 343.841201 -41.96 
L 344.346587 -41.96 
L 344.851972 -41.96 
L 345.357357 -41.96 
L 345.862743 -41.96 
L 346.368128 -41.96 
L 346.873514 -41.96 
L 347.378899 -41.96 
L 347.884284 -41.96 
L 348.38967 -41.96 
L 348.895055 -41.96 
L 349.40044 -41.96 
L 349.905826 -41.96 
L 350.411211 -41.96 
L 350.916597 -41.96 
L 351.421982 -41.96 
L 351.927367 -41.96 
L 352.432753 -41.96 
L 352.938138 -41.96 
L 353.443524 -41.96 
L 353.948909 -41.96 
L 354.454294 -41.96 
L 354.95968 -41.96 
L 355.465065 -41.96 
L 355.97045 -41.96 
L 356.475836 -41.96 
L 356.981221 -41.96 
L 357.486607 -41.96 
L 357.991992 -41.96 
L 358.497377 -41.96 
L 359.002763 -41.96 
L 359.508148 -41.96 
L 360.013534 -41.96 
L 360.518919 -41.96 
L 361.024304 -41.96 
L 361.52969 -41.96 
L 362.035075 -41.96 
L 362.54046 -41.96 
L 363.045846 -41.96 
L 363.551231 -41.96 
L 364.056617 -41.96 
L 364.562002 -41.96 
L 365.067387 -41.96 
L 365.572773 -41.96 
L 366.078158 -41.96 
L 366.583544 -41.96 
L 367.088929 -41.96 
L 367.594314 -41.96 
L 368.0997 -41.96 
L 368.605085 -41.96 
L 369.11047 -41.96 
L 369.615856 -41.96 
L 370.121241 -41.96 
L 370.626627 -41.96 
L 371.132012 -41.96 
L 371.637397 -41.96 
L 372.142783 -41.96 
L 372.648168 -41.96 
L 373.153554 -41.96 
L 373.658939 -41.96 
L 374.164324 -41.96 
L 374.66971 -41.96 
L 375.175095 -41.96 
L 375.68048 -41.96 
L 376.185866 -41.96 
L 376.691251 -41.96 
L 377.196637 -41.96 
L 377.702022 -41.96 
L 378.207407 -41.96 
L 378.712793 -41.96 
L 379.218178 -41.96 
L 379.723564 -41.96 
L 380.228949 -41.96 
L 380.734334 -41.96 
L 381.23972 -41.96 
L 381.745105 -41.96 
L 382.25049 -41.96 
L 382.755876 -41.96 
L 383.261261 -41.96 
L 383.766647 -41.96 
L 384.272032 -41.96 
L 384.777417 -41.96 
L 385.282803 -41.96 
L 385.788188 -41.96 
L 386.293574 -41.96 
L 386.798959 -41.96 
L 387.304344 -41.96 
L 387.80973 -41.96 
L 388.315115 -41.96 
L 388.820501 -41.96 
L 389.325886 -41.96 
L 389.831271 -41.96 
L 390.336657 -41.96 
L 390.842042 -41.96 
L 391.347427 -41.96 
L 391.852813 -41.96 
L 392.358198 -41.96 
L 392.863584 -41.96 
L 393.368969 -41.96 
L 393.874354 -41.96 
L 394.37974 -41.96 
L 394.885125 -41.96 
L 395.390511 -41.96 
L 395.895896 -41.96 
L 396.401281 -41.96 
L 396.906667 -41.96 
L 397.412052 -41.96 
L 397.917437 -41.96 
L 398.422823 -41.96 
L 398.928208 -41.96 
L 399.433594 -41.96 
L 399.938979 -41.96 
L 400.444364 -41.96 
L 400.94975 -41.96 
L 401.455135 -41.96 
L 401.960521 -41.96 
L 402.465906 -41.96 
L 402.971291 -41.96 
L 403.476677 -41.96 
L 403.982062 -41.96 
L 404.487447 -41.96 
L 404.992833 -41.96 
L 405.498218 -41.96 
L 406.003604 -41.96 
L 406.508989 -41.96 
L 407.014374 -41.96 
L 407.51976 -41.96 
L 408.025145 -41.96 
L 408.530531 -41.96 
L 409.035916 -41.96 
L 409.541301 -41.96 
L 410.046687 -41.96 
L 410.552072 -41.96 
L 411.057457 -41.96 
L 411.562843 -41.96 
L 412.068228 -41.96 
L 412.573614 -41.96 
L 413.078999 -41.96 
L 413.584384 -41.96 
L 414.08977 -41.96 
L 414.595155 -41.96 
L 415.100541 -41.96 
L 415.605926 -41.96 
L 416.111311 -41.96 
L 416.616697 -41.96 
L 417.122082 -41.96 
L 417.627467 -41.96 
L 418.132853 -41.96 
L 418.638238 -41.96 
L 419.143624 -41.96 
L 419.649009 -41.96 
L 420.154394 -41.96 
L 420.65978 -41.96 
L 421.165165 -41.96 
L 421.670551 -41.96 
L 422.175936 -41.96 
L 422.681321 -41.96 
L 423.186707 -41.96 
L 423.692092 -41.96 
L 424.197477 -41.96 
L 424.702863 -41.96 
L 425.208248 -41.96 
L 425.713634 -41.96 
L 426.219019 -41.96 
L 426.724404 -41.96 
L 427.22979 -41.96 
L 427.735175 -41.96 
L 428.240561 -41.96 
L 428.745946 -41.96 
L 429.251331 -41.96 
L 429.756717 -41.96 
L 430.262102 -41.96 
L 430.767487 -41.96 
L 431.272873 -41.96 
L 431.778258 -41.96 
L 432.283644 -41.96 
L 432.789029 -41.96 
L 433.294414 -41.96 
L 433.7998 -41.96 
L 434.305185 -41.96 
L 434.810571 -41.96 
L 435.315956 -41.96 
L 435.821341 -41.96 
L 436.326727 -41.96 
L 436.832112 -41.96 
L 437.337497 -41.96 
L 437.842883 -41.96 
L 438.348268 -41.96 
L 438.853654 -41.96 
L 439.359039 -41.96 
L 439.864424 -41.96 
L 440.36981 -41.96 
L 440.875195 -41.96 
L 441.380581 -41.96 
L 441.885966 -41.96 
L 442.391351 -41.96 
L 442.896737 -41.96 
L 443.402122 -41.96 
L 443.907508 -41.96 
L 444.412893 -41.96 
L 444.918278 -41.96 
L 445.423664 -41.96 
L 445.929049 -41.96 
L 446.434434 -41.96 
L 446.93982 -41.96 
L 447.445205 -41.96 
L 447.950591 -41.96 
L 448.455976 -41.96 
L 448.961361 -41.96 
L 449.466747 -41.96 
L 449.972132 -41.96 
L 450.477518 -41.96 
L 450.982903 -41.96 
L 451.488288 -41.96 
L 451.993674 -41.96 
L 452.499059 -41.96 
L 453.004444 -41.96 
L 453.50983 -41.96 
L 454.015215 -41.96 
L 454.520601 -41.96 
L 455.025986 -41.96 
L 455.531371 -41.96 
L 456.036757 -41.96 
L 456.542142 -41.96 
L 457.047528 -41.96 
L 457.552913 -41.96 
L 458.058298 -41.96 
L 458.563684 -41.96 
L 459.069069 -41.96 
L 459.574454 -41.96 
L 460.07984 -41.96 
L 460.585225 -41.96 
L 461.090611 -41.96 
L 461.595996 -41.96 
L 462.101381 -41.96 
L 462.606767 -41.96 
L 463.112152 -41.96 
L 463.617538 -41.96 
L 464.122923 -41.96 
L 464.628308 -41.96 
L 465.133694 -41.96 
L 465.639079 -41.96 
L 466.144464 -41.96 
L 466.64985 -41.96 
L 467.155235 -41.96 
L 467.660621 -41.96 
L 468.166006 -41.96 
L 468.671391 -41.96 
L 469.176777 -41.96 
L 469.682162 -41.96 
L 470.187548 -41.96 
L 470.692933 -41.96 
L 471.198318 -41.96 
L 471.703704 -41.96 
L 472.209089 -41.96 
L 472.714474 -41.96 
L 473.21986 -41.96 
L 473.725245 -41.96 
L 474.230631 -41.96 
L 474.736016 -41.96 
L 475.241401 -41.96 
L 475.746787 -41.96 
L 476.252172 -41.96 
L 476.757558 -41.96 
L 477.262943 -41.96 
L 477.768328 -41.96 
L 478.273714 -41.96 
L 478.779099 -41.96 
L 479.284484 -41.96 
L 479.78987 -41.96 
L 480.295255 -41.96 
L 480.800641 -41.96 
L 481.306026 -41.96 
L 481.811411 -41.96 
L 482.316797 -41.96 
L 482.822182 -41.96 
L 483.327568 -41.96 
L 483.832953 -41.96 
L 484.338338 -41.96 
L 484.843724 -41.96 
L 485.349109 -41.96 
L 485.854494 -41.96 
L 486.35988 -41.96 
L 486.865265 -41.96 
L 487.370651 -41.96 
L 487.876036 -41.96 
L 488.381421 -41.96 
L 488.886807 -41.96 
L 489.392192 -41.96 
L 489.897578 -41.96 
L 490.402963 -41.96 
L 490.908348 -41.96 
L 491.413734 -41.96 
L 491.919119 -41.96 
L 492.424505 -41.96 
L 492.92989 -41.96 
L 493.435275 -41.96 
L 493.940661 -41.96 
L 494.446046 -41.96 
L 494.951431 -41.96 
L 495.456817 -41.96 
L 495.962202 -41.96 
L 496.467588 -41.96 
L 496.972973 -41.96 
L 497.478358 -41.96 
L 497.983744 -41.96 
L 498.489129 -41.96 
L 498.994515 -41.96 
L 499.4999 -41.96 
L 500.005285 -41.96 
L 500.510671 -41.96 
L 501.016056 -41.96 
L 501.521441 -41.96 
L 502.026827 -41.96 
L 502.532212 -41.96 
L 503.037598 -41.96 
L 503.542983 -41.96 
L 504.048368 -41.96 
L 504.553754 -41.96 
L 505.059139 -41.96 
L 505.564525 -41.96 
L 506.06991 -41.96 
L 506.575295 -41.96 
L 507.080681 -41.96 
L 507.586066 -41.96 
L 508.091451 -41.96 
L 508.596837 -41.96 
L 509.102222 -41.96 
L 509.607608 -41.96 
L 510.112993 -41.96 
L 510.618378 -41.96 
L 511.123764 -41.96 
L 511.629149 -41.96 
L 512.134535 -41.96 
L 512.63992 -41.96 
L 513.145305 -41.96 
L 513.650691 -41.96 
L 514.156076 -41.96 
L 514.661461 -41.96 
L 515.166847 -41.96 
L 515.672232 -41.96 
L 516.177618 -41.96 
L 516.683003 -41.96 
L 517.188388 -41.96 
L 517.693774 -41.96 
L 518.199159 -41.96 
L 518.704545 -41.96 
L 519.20993 -41.96 
L 519.715315 -41.96 
L 520.220701 -41.96 
L 520.726086 -41.96 
L 521.231471 -41.96 
L 521.736857 -41.96 
L 522.242242 -41.96 
L 522.747628 -41.96 
L 523.253013 -41.96 
L 523.758398 -41.96 
L 524.263784 -41.96 
L 524.769169 -41.96 
L 525.274555 -41.96 
L 525.77994 -41.96 
L 526.285325 -41.96 
L 526.790711 -41.96 
L 527.296096 -41.96 
L 527.801481 -41.96 
L 528.306867 -41.96 
L 528.812252 -41.96 
L 529.317638 -41.96 
L 529.823023 -41.96 
L 530.328408 -41.96 
L 530.833794 -41.96 
L 531.339179 -41.96 
L 531.844565 -41.96 
L 532.34995 -41.96 
L 532.855335 -41.96 
L 533.360721 -41.96 
L 533.866106 -41.96 
L 534.371491 -41.96 
L 534.876877 -41.96 
L 535.382262 -41.96 
L 535.887648 -41.96 
L 536.393033 -41.96 
L 536.898418 -41.96 
L 537.403804 -41.96 
L 537.909189 -41.96 
L 538.414575 -41.96 
L 538.91996 -41.96 
L 539.425345 -41.96 
L 539.930731 -41.96 
L 540.436116 -41.96 
L 540.941502 -41.96 
L 541.446887 -41.96 
L 541.952272 -41.96 
L 542.457658 -41.96 
L 542.963043 -41.96 
L 543.468428 -41.96 
L 543.973814 -41.96 
L 544.479199 -41.96 
L 544.984585 -41.96 
L 545.48997 -41.96 
L 545.995355 -41.96 
L 546.500741 -41.96 
L 547.006126 -41.96 
L 547.511512 -41.96 
L 548.016897 -41.96 
L 548.522282 -41.96 
L 549.027668 -41.96 
L 549.533053 -41.96 
L 550.038438 -41.96 
L 550.543824 -41.96 
L 551.049209 -41.96 
L 551.554595 -41.96 
L 552.05998 -41.96 
L 552.565365 -41.96 
L 553.070751 -41.96 
L 553.576136 -41.96 
L 554.081522 -41.96 
L 554.586907 -41.96 
L 555.092292 -41.96 
L 555.597678 -41.96 
L 556.103063 -41.96 
L 556.608448 -41.96 
L 557.113834 -41.96 
L 557.619219 -41.96 
L 558.124605 -41.96 
L 558.62999 -41.96 
L 559.135375 -41.96 
L 559.640761 -41.96 
L 560.146146 -41.96 
L 560.651532 -41.96 
L 561.156917 -41.96 
L 561.662302 -41.96 
L 562.167688 -41.96 
L 562.673073 -41.96 
L 563.178458 -41.96 
L 563.683844 -41.96 
L 564.189229 -41.96 
L 564.694615 -41.96 
L 565.2 -41.96 
L 565.2 -224.701818 
L 565.2 -224.701818 
L 564.694615 -224.148702 
L 564.189229 -223.596098 
L 563.683844 -223.044013 
L 563.178458 -222.492452 
L 562.673073 -221.94142 
L 562.167688 -221.390922 
L 561.662302 -220.840965 
L 561.156917 -220.291554 
L 560.651532 -219.742693 
L 560.146146 -219.194389 
L 559.640761 -218.646646 
L 559.135375 -218.09947 
L 558.62999 -217.552866 
L 558.124605 -217.006839 
L 557.619219 -216.461394 
L 557.113834 -215.916537 
L 556.608448 -215.372272 
L 556.103063 -214.828605 
L 555.597678 -214.285541 
L 555.092292 -213.743085 
L 554.586907 -213.201241 
L 554.081522 -212.660015 
L 553.576136 -212.119412 
L 553.070751 -211.579437 
L 552.565365 -211.040094 
L 552.05998 -210.501389 
L 551.554595 -209.963326 
L 551.049209 -209.42591 
L 550.543824 -208.889146 
L 550.038438 -208.353039 
L 549.533053 -207.817593 
L 549.027668 -207.282814 
L 548.522282 -206.748705 
L 548.016897 -206.215271 
L 547.511512 -205.682518 
L 547.006126 -205.150449 
L 546.500741 -204.61907 
L 545.995355 -204.088384 
L 545.48997 -203.558397 
L 544.984585 -203.029112 
L 544.479199 -202.500535 
L 543.973814 -201.972669 
L 543.468428 -201.445519 
L 542.963043 -200.91909 
L 542.457658 -200.393386 
L 541.952272 -199.86841 
L 541.446887 -199.344168 
L 540.941502 -198.820663 
L 540.436116 -198.297901 
L 539.930731 -197.775884 
L 539.425345 -197.254618 
L 538.91996 -196.734106 
L 538.414575 -196.214352 
L 537.909189 -195.695361 
L 537.403804 -195.177137 
L 536.898418 -194.659683 
L 536.393033 -194.143004 
L 535.887648 -193.627104 
L 535.382262 -193.111986 
L 534.876877 -192.597655 
L 534.371491 -192.084114 
L 533.866106 -191.571367 
L 533.360721 -191.059418 
L 532.855335 -190.548272 
L 532.34995 -190.037931 
L 531.844565 -189.528399 
L 531.339179 -189.01968 
L 530.833794 -188.511779 
L 530.328408 -188.004697 
L 529.823023 -187.49844 
L 529.317638 -186.993011 
L 528.812252 -186.488412 
L 528.306867 -185.984649 
L 527.801481 -185.481724 
L 527.296096 -184.979641 
L 526.790711 -184.478403 
L 526.285325 -183.978014 
L 525.77994 -183.478477 
L 525.274555 -182.979796 
L 524.769169 -182.481973 
L 524.263784 -181.985013 
L 523.758398 -181.488918 
L 523.253013 -180.993692 
L 522.747628 -180.499338 
L 522.242242 -180.005859 
L 521.736857 -179.513258 
L 521.231471 -179.021539 
L 520.726086 -178.530705 
L 520.220701 -178.040759 
L 519.715315 -177.551703 
L 519.20993 -177.063541 
L 518.704545 -176.576276 
L 518.199159 -176.089911 
L 517.693774 -175.604449 
L 517.188388 -175.119892 
L 516.683003 -174.636245 
L 516.177618 -174.153508 
L 515.672232 -173.671686 
L 515.166847 -173.190782 
L 514.661461 -172.710797 
L 514.156076 -172.231735 
L 513.650691 -171.753598 
L 513.145305 -171.27639 
L 512.63992 -170.800113 
L 512.134535 -170.324768 
L 511.629149 -169.850361 
L 511.123764 -169.376891 
L 510.618378 -168.904364 
L 510.112993 -168.43278 
L 509.607608 -167.962142 
L 509.102222 -167.492453 
L 508.596837 -167.023715 
L 508.091451 -166.555931 
L 507.586066 -166.089104 
L 507.080681 -165.623234 
L 506.575295 -165.158326 
L 506.06991 -164.694381 
L 505.564525 -164.231401 
L 505.059139 -163.769389 
L 504.553754 -163.308347 
L 504.048368 -162.848277 
L 503.542983 -162.389181 
L 503.037598 -161.931062 
L 502.532212 -161.473921 
L 502.026827 -161.017762 
L 501.521441 -160.562585 
L 501.016056 -160.108393 
L 500.510671 -159.655188 
L 500.005285 -159.202972 
L 499.4999 -158.751746 
L 498.994515 -158.301514 
L 498.489129 -157.852276 
L 497.983744 -157.404035 
L 497.478358 -156.956792 
L 496.972973 -156.51055 
L 496.467588 -156.06531 
L 495.962202 -155.621074 
L 495.456817 -155.177843 
L 494.951431 -154.73562 
L 494.446046 -154.294406 
L 493.940661 -153.854203 
L 493.435275 -153.415013 
L 492.92989 -152.976836 
L 492.424505 -152.539675 
L 491.919119 -152.103532 
L 491.413734 -151.668407 
L 490.908348 -151.234303 
L 490.402963 -150.80122 
L 489.897578 -150.369161 
L 489.392192 -149.938127 
L 488.886807 -149.508119 
L 488.381421 -149.079138 
L 487.876036 -148.651187 
L 487.370651 -148.224266 
L 486.865265 -147.798377 
L 486.35988 -147.37352 
L 485.854494 -146.949698 
L 485.349109 -146.526911 
L 484.843724 -146.105161 
L 484.338338 -145.684449 
L 483.832953 -145.264777 
L 483.327568 -144.846144 
L 482.822182 -144.428553 
L 482.316797 -144.012004 
L 481.811411 -143.596499 
L 481.306026 -143.182038 
L 480.800641 -142.768623 
L 480.295255 -142.356255 
L 479.78987 -141.944934 
L 479.284484 -141.534662 
L 478.779099 -141.125439 
L 478.273714 -140.717267 
L 477.768328 -140.310146 
L 477.262943 -139.904077 
L 476.757558 -139.499062 
L 476.252172 -139.0951 
L 475.746787 -138.692192 
L 475.241401 -138.290341 
L 474.736016 -137.889545 
L 474.230631 -137.489806 
L 473.725245 -137.091124 
L 473.21986 -136.693501 
L 472.714474 -136.296937 
L 472.209089 -135.901432 
L 471.703704 -135.506987 
L 471.198318 -135.113603 
L 470.692933 -134.72128 
L 470.187548 -134.330019 
L 469.682162 -133.93982 
L 469.176777 -133.550684 
L 468.671391 -133.162611 
L 468.166006 -132.775602 
L 467.660621 -132.389657 
L 467.155235 -132.004777 
L 466.64985 -131.620961 
L 466.144464 -131.238211 
L 465.639079 -130.856526 
L 465.133694 -130.475907 
L 464.628308 -130.096354 
L 464.122923 -129.717868 
L 463.617538 -129.340448 
L 463.112152 -128.964096 
L 462.606767 -128.58881 
L 462.101381 -128.214592 
L 461.595996 -127.841442 
L 461.090611 -127.469359 
L 460.585225 -127.098344 
L 460.07984 -126.728396 
L 459.574454 -126.359517 
L 459.069069 -125.991706 
L 458.563684 -125.624962 
L 458.058298 -125.259287 
L 457.552913 -124.89468 
L 457.047528 -124.53114 
L 456.542142 -124.168669 
L 456.036757 -123.807266 
L 455.531371 -123.44693 
L 455.025986 -123.087663 
L 454.520601 -122.729463 
L 454.015215 -122.37233 
L 453.50983 -122.016265 
L 453.004444 -121.661266 
L 452.499059 -121.307335 
L 451.993674 -120.95447 
L 451.488288 -120.602672 
L 450.982903 -120.25194 
L 450.477518 -119.902274 
L 449.972132 -119.553674 
L 449.466747 -119.206138 
L 448.961361 -118.859668 
L 448.455976 -118.514263 
L 447.950591 -118.169921 
L 447.445205 -117.826644 
L 446.93982 -117.48443 
L 446.434434 -117.143278 
L 445.929049 -116.80319 
L 445.423664 -116.464163 
L 444.918278 -116.126198 
L 444.412893 -115.789294 
L 443.907508 -115.453451 
L 443.402122 -115.118668 
L 442.896737 -114.784944 
L 442.391351 -114.452279 
L 441.885966 -114.120672 
L 441.380581 -113.790123 
L 440.875195 -113.460631 
L 440.36981 -113.132195 
L 439.864424 -112.804815 
L 439.359039 -112.478491 
L 438.853654 -112.15322 
L 438.348268 -111.829003 
L 437.842883 -111.50584 
L 437.337497 -111.183728 
L 436.832112 -110.862668 
L 436.326727 -110.542658 
L 435.821341 -110.223698 
L 435.315956 -109.905787 
L 434.810571 -109.588925 
L 434.305185 -109.27311 
L 433.7998 -108.958341 
L 433.294414 -108.644618 
L 432.789029 -108.331939 
L 432.283644 -108.020304 
L 431.778258 -107.709712 
L 431.272873 -107.400163 
L 430.767487 -107.091654 
L 430.262102 -106.784185 
L 429.756717 -106.477755 
L 429.251331 -106.172363 
L 428.745946 -105.868008 
L 428.240561 -105.564689 
L 427.735175 -105.262405 
L 427.22979 -104.961155 
L 426.724404 -104.660937 
L 426.219019 -104.361751 
L 425.713634 -104.063596 
L 425.208248 -103.766471 
L 424.702863 -103.470373 
L 424.197477 -103.175303 
L 423.692092 -102.881259 
L 423.186707 -102.588239 
L 422.681321 -102.296243 
L 422.175936 -102.00527 
L 421.670551 -101.715318 
L 421.165165 -101.426386 
L 420.65978 -101.138472 
L 420.154394 -100.851576 
L 419.649009 -100.565696 
L 419.143624 -100.280831 
L 418.638238 -99.99698 
L 418.132853 -99.714141 
L 417.627467 -99.432313 
L 417.122082 -99.151495 
L 416.616697 -98.871685 
L 416.111311 -98.592881 
L 415.605926 -98.315084 
L 415.100541 -98.03829 
L 414.595155 -97.7625 
L 414.08977 -97.48771 
L 413.584384 -97.213921 
L 413.078999 -96.94113 
L 412.573614 -96.669336 
L 412.068228 -96.398537 
L 411.562843 -96.128733 
L 411.057457 -95.859921 
L 410.552072 -95.5921 
L 410.046687 -95.325269 
L 409.541301 -95.059426 
L 409.035916 -94.79457 
L 408.530531 -94.530698 
L 408.025145 -94.26781 
L 407.51976 -94.005904 
L 407.014374 -93.744978 
L 406.508989 -93.485031 
L 406.003604 -93.226061 
L 405.498218 -92.968067 
L 404.992833 -92.711046 
L 404.487447 -92.454998 
L 403.982062 -92.19992 
L 403.476677 -91.945811 
L 402.971291 -91.69267 
L 402.465906 -91.440494 
L 401.960521 -91.189282 
L 401.455135 -90.939033 
L 400.94975 -90.689744 
L 400.444364 -90.441413 
L 399.938979 -90.19404 
L 399.433594 -89.947623 
L 398.928208 -89.702159 
L 398.422823 -89.457647 
L 397.917437 -89.214085 
L 397.412052 -88.971472 
L 396.906667 -88.729805 
L 396.401281 -88.489083 
L 395.895896 -88.249304 
L 395.390511 -88.010467 
L 394.885125 -87.772569 
L 394.37974 -87.535608 
L 393.874354 -87.299583 
L 393.368969 -87.064493 
L 392.863584 -86.830334 
L 392.358198 -86.597106 
L 391.852813 -86.364806 
L 391.347427 -86.133432 
L 390.842042 -85.902983 
L 390.336657 -85.673457 
L 389.831271 -85.444852 
L 389.325886 -85.217166 
L 388.820501 -84.990397 
L 388.315115 -84.764543 
L 387.80973 -84.539602 
L 387.304344 -84.315572 
L 386.798959 -84.092452 
L 386.293574 -83.870239 
L 385.788188 -83.648932 
L 385.282803 -83.428529 
L 384.777417 -83.209026 
L 384.272032 -82.990424 
L 383.766647 -82.772719 
L 383.261261 -82.555909 
L 382.755876 -82.339993 
L 382.25049 -82.124969 
L 381.745105 -81.910834 
L 381.23972 -81.697587 
L 380.734334 -81.485226 
L 380.228949 -81.273748 
L 379.723564 -81.063151 
L 379.218178 -80.853435 
L 378.712793 -80.644595 
L 378.207407 -80.436631 
L 377.702022 -80.22954 
L 377.196637 -80.023321 
L 376.691251 -79.81797 
L 376.185866 -79.613487 
L 375.68048 -79.409869 
L 375.175095 -79.207114 
L 374.66971 -79.00522 
L 374.164324 -78.804184 
L 373.658939 -78.604005 
L 373.153554 -78.404681 
L 372.648168 -78.206209 
L 372.142783 -78.008588 
L 371.637397 -77.811815 
L 371.132012 -77.615888 
L 370.626627 -77.420805 
L 370.121241 -77.226565 
L 369.615856 -77.033163 
L 369.11047 -76.8406 
L 368.605085 -76.648872 
L 368.0997 -76.457977 
L 367.594314 -76.267913 
L 367.088929 -76.078679 
L 366.583544 -75.890271 
L 366.078158 -75.702688 
L 365.572773 -75.515927 
L 365.067387 -75.329987 
L 364.562002 -75.144865 
L 364.056617 -74.960559 
L 363.551231 -74.777067 
L 363.045846 -74.594386 
L 362.54046 -74.412515 
L 362.035075 -74.231451 
L 361.52969 -74.051193 
L 361.024304 -73.871737 
L 360.518919 -73.693081 
L 360.013534 -73.515225 
L 359.508148 -73.338164 
L 359.002763 -73.161897 
L 358.497377 -72.986423 
L 357.991992 -72.811738 
L 357.486607 -72.63784 
L 356.981221 -72.464727 
L 356.475836 -72.292398 
L 355.97045 -72.120849 
L 355.465065 -71.950078 
L 354.95968 -71.780084 
L 354.454294 -71.610864 
L 353.948909 -71.442416 
L 353.443524 -71.274737 
L 352.938138 -71.107825 
L 352.432753 -70.941679 
L 351.927367 -70.776295 
L 351.421982 -70.611672 
L 350.916597 -70.447808 
L 350.411211 -70.284699 
L 349.905826 -70.122344 
L 349.40044 -69.960741 
L 348.895055 -69.799888 
L 348.38967 -69.639781 
L 347.884284 -69.480419 
L 347.378899 -69.3218 
L 346.873514 -69.163921 
L 346.368128 -69.00678 
L 345.862743 -68.850375 
L 345.357357 -68.694703 
L 344.851972 -68.539763 
L 344.346587 -68.385552 
L 343.841201 -68.232067 
L 343.335816 -68.079307 
L 342.83043 -67.927269 
L 342.325045 -67.775951 
L 341.81966 -67.625351 
L 341.314274 -67.475466 
L 340.808889 -67.326295 
L 340.303504 -67.177834 
L 339.798118 -67.030082 
L 339.292733 -66.883036 
L 338.787347 -66.736694 
L 338.281962 -66.591054 
L 337.776577 -66.446114 
L 337.271191 -66.301871 
L 336.765806 -66.158323 
L 336.26042 -66.015468 
L 335.755035 -65.873303 
L 335.24965 -65.731826 
L 334.744264 -65.591036 
L 334.238879 -65.450928 
L 333.733493 -65.311503 
L 333.228108 -65.172756 
L 332.722723 -65.034687 
L 332.217337 -64.897292 
L 331.711952 -64.760569 
L 331.206567 -64.624516 
L 330.701181 -64.489131 
L 330.195796 -64.354412 
L 329.69041 -64.220356 
L 329.185025 -64.086961 
L 328.67964 -63.954225 
L 328.174254 -63.822145 
L 327.668869 -63.69072 
L 327.163483 -63.559946 
L 326.658098 -63.429822 
L 326.152713 -63.300346 
L 325.647327 -63.171515 
L 325.141942 -63.043327 
L 324.636557 -62.915779 
L 324.131171 -62.78887 
L 323.625786 -62.662598 
L 323.1204 -62.536959 
L 322.615015 -62.411952 
L 322.10963 -62.287574 
L 321.604244 -62.163824 
L 321.098859 -62.040698 
L 320.593473 -61.918196 
L 320.088088 -61.796314 
L 319.582703 -61.67505 
L 319.077317 -61.554402 
L 318.571932 -61.434368 
L 318.066547 -61.314946 
L 317.561161 -61.196133 
L 317.055776 -61.077927 
L 316.55039 -60.960326 
L 316.045005 -60.843327 
L 315.53962 -60.726929 
L 315.034234 -60.61113 
L 314.528849 -60.495926 
L 314.023463 -60.381316 
L 313.518078 -60.267298 
L 313.012693 -60.15387 
z
" style="stroke: #ccffcc"/>
    </defs>
    <g clip-path="url(#p893abab953)">
     <use xlink:href="#m60edc761e6" x="0" y="288" style="fill: #ccffcc; stroke: #ccffcc"/>
    </g>
   </g>
   <g id="matplotlib.axis_1">
    <g id="xtick_1">
     <g id="line2d_1">
      <defs>
       <path id="m4b32449e6f" d="M 0 0 
L 0 3.5 
" style="stroke: #000000; stroke-width: 0.8"/>
      </defs>
      <g>
       <use xlink:href="#m4b32449e6f" x="60.32" y="246.04" style="stroke: #000000; stroke-width: 0.8"/>
      </g>
     </g>
     <g id="text_1">
      <!-- 0 -->
      <g transform="translate(57.13875 260.638438) scale(0.1 -0.1)">
       <defs>
        <path id="DejaVuSans-30" d="M 2034 4250 
Q 1547 4250 1301 3770 
Q 1056 3291 1056 2328 
Q 1056 1369 1301 889 
Q 1547 409 2034 409 
Q 2525 409 2770 889 
Q 3016 1369 3016 2328 
Q 3016 3291 2770 3770 
Q 2525 4250 2034 4250 
z
M 2034 4750 
Q 2819 4750 3233 4129 
Q 3647 3509 3647 2328 
Q 3647 1150 3233 529 
Q 2819 -91 2034 -91 
Q 1250 -91 836 529 
Q 422 1150 422 2328 
Q 422 3509 836 4129 
Q 1250 4750 2034 4750 
z
" transform="scale(0.015625)"/>
       </defs>
       <use xlink:href="#DejaVuSans-30"/>
      </g>
     </g>
    </g>
    <g id="xtick_2">
     <g id="line2d_2">
      <g>
       <use xlink:href="#m4b32449e6f" x="147.368276" y="246.04" style="stroke: #000000; stroke-width: 0.8"/>
      </g>
     </g>
     <g id="text_2">
      <!-- 10 -->
      <g transform="translate(141.005776 260.638438) scale(0.1 -0.1)">
       <defs>
        <path id="DejaVuSans-31" d="M 794 531 
L 1825 531 
L 1825 4091 
L 703 3866 
L 703 4441 
L 1819 4666 
L 2450 4666 
L 2450 531 
L 3481 531 
L 3481 0 
L 794 0 
L 794 531 
z
" transform="scale(0.015625)"/>
       </defs>
       <use xlink:href="#DejaVuSans-31"/>
       <use xlink:href="#DejaVuSans-30" transform="translate(63.623047 0)"/>
      </g>
     </g>
    </g>
    <g id="xtick_3">
     <g id="line2d_3">
      <g>
       <use xlink:href="#m4b32449e6f" x="234.416552" y="246.04" style="stroke: #000000; stroke-width: 0.8"/>
      </g>
     </g>
     <g id="text_3">
      <!-- 20 -->
      <g transform="translate(228.054052 260.638438) scale(0.1 -0.1)">
       <defs>
        <path id="DejaVuSans-32" d="M 1228 531 
L 3431 531 
L 3431 0 
L 469 0 
L 469 531 
Q 828 903 1448 1529 
Q 2069 2156 2228 2338 
Q 2531 2678 2651 2914 
Q 2772 3150 2772 3378 
Q 2772 3750 2511 3984 
Q 2250 4219 1831 4219 
Q 1534 4219 1204 4116 
Q 875 4013 500 3803 
L 500 4441 
Q 881 4594 1212 4672 
Q 1544 4750 1819 4750 
Q 2544 4750 2975 4387 
Q 3406 4025 3406 3419 
Q 3406 3131 3298 2873 
Q 3191 2616 2906 2266 
Q 2828 2175 2409 1742 
Q 1991 1309 1228 531 
z
" transform="scale(0.015625)"/>
       </defs>
       <use xlink:href="#DejaVuSans-32"/>
       <use xlink:href="#DejaVuSans-30" transform="translate(63.623047 0)"/>
      </g>
     </g>
    </g>
    <g id="xtick_4">
     <g id="line2d_4">
      <g>
       <use xlink:href="#m4b32449e6f" x="321.464828" y="246.04" style="stroke: #000000; stroke-width: 0.8"/>
      </g>
     </g>
     <g id="text_4">
      <!-- 30 -->
      <g transform="translate(315.102328 260.638438) scale(0.1 -0.1)">
       <defs>
        <path id="DejaVuSans-33" d="M 2597 2516 
Q 3050 2419 3304 2112 
Q 3559 1806 3559 1356 
Q 3559 666 3084 287 
Q 2609 -91 1734 -91 
Q 1441 -91 1130 -33 
Q 819 25 488 141 
L 488 750 
Q 750 597 1062 519 
Q 1375 441 1716 441 
Q 2309 441 2620 675 
Q 2931 909 2931 1356 
Q 2931 1769 2642 2001 
Q 2353 2234 1838 2234 
L 1294 2234 
L 1294 2753 
L 1863 2753 
Q 2328 2753 2575 2939 
Q 2822 3125 2822 3475 
Q 2822 3834 2567 4026 
Q 2313 4219 1838 4219 
Q 1578 4219 1281 4162 
Q 984 4106 628 3988 
L 628 4550 
Q 988 4650 1302 4700 
Q 1616 4750 1894 4750 
Q 2613 4750 3031 4423 
Q 3450 4097 3450 3541 
Q 3450 3153 3228 2886 
Q 3006 2619 2597 2516 
z
" transform="scale(0.015625)"/>
       </defs>
       <use xlink:href="#DejaVuSans-33"/>
       <use xlink:href="#DejaVuSans-30" transform="translate(63.623047 0)"/>
      </g>
     </g>
    </g>
    <g id="xtick_5">
     <g id="line2d_5">
      <g>
       <use xlink:href="#m4b32449e6f" x="408.513103" y="246.04" style="stroke: #000000; stroke-width: 0.8"/>
      </g>
     </g>
     <g id="text_5">
      <!-- 40 -->
      <g transform="translate(402.150603 260.638438) scale(0.1 -0.1)">
       <defs>
        <path id="DejaVuSans-34" d="M 2419 4116 
L 825 1625 
L 2419 1625 
L 2419 4116 
z
M 2253 4666 
L 3047 4666 
L 3047 1625 
L 3713 1625 
L 3713 1100 
L 3047 1100 
L 3047 0 
L 2419 0 
L 2419 1100 
L 313 1100 
L 313 1709 
L 2253 4666 
z
" transform="scale(0.015625)"/>
       </defs>
       <use xlink:href="#DejaVuSans-34"/>
       <use xlink:href="#DejaVuSans-30" transform="translate(63.623047 0)"/>
      </g>
     </g>
    </g>
    <g id="xtick_6">
     <g id="line2d_6">
      <g>
       <use xlink:href="#m4b32449e6f" x="495.561379" y="246.04" style="stroke: #000000; stroke-width: 0.8"/>
      </g>
     </g>
     <g id="text_6">
      <!-- 50 -->
      <g transform="translate(489.198879 260.638438) scale(0.1 -0.1)">
       <defs>
        <path id="DejaVuSans-35" d="M 691 4666 
L 3169 4666 
L 3169 4134 
L 1269 4134 
L 1269 2991 
Q 1406 3038 1543 3061 
Q 1681 3084 1819 3084 
Q 2600 3084 3056 2656 
Q 3513 2228 3513 1497 
Q 3513 744 3044 326 
Q 2575 -91 1722 -91 
Q 1428 -91 1123 -41 
Q 819 9 494 109 
L 494 744 
Q 775 591 1075 516 
Q 1375 441 1709 441 
Q 2250 441 2565 725 
Q 2881 1009 2881 1497 
Q 2881 1984 2565 2268 
Q 2250 2553 1709 2553 
Q 1456 2553 1204 2497 
Q 953 2441 691 2322 
L 691 4666 
z
" transform="scale(0.015625)"/>
       </defs>
       <use xlink:href="#DejaVuSans-35"/>
       <use xlink:href="#DejaVuSans-30" transform="translate(63.623047 0)"/>
      </g>
     </g>
    </g>
    <g id="text_7">
     <!-- Estadstico W -->
     <g transform="translate(279.113125 274.316562) scale(0.1 -0.1)">
      <defs>
       <path id="DejaVuSans-45" d="M 628 4666 
L 3578 4666 
L 3578 4134 
L 1259 4134 
L 1259 2753 
L 3481 2753 
L 3481 2222 
L 1259 2222 
L 1259 531 
L 3634 531 
L 3634 0 
L 628 0 
L 628 4666 
z
" transform="scale(0.015625)"/>
       <path id="DejaVuSans-73" d="M 2834 3397 
L 2834 2853 
Q 2591 2978 2328 3040 
Q 2066 3103 1784 3103 
Q 1356 3103 1142 2972 
Q 928 2841 928 2578 
Q 928 2378 1081 2264 
Q 1234 2150 1697 2047 
L 1894 2003 
Q 2506 1872 2764 1633 
Q 3022 1394 3022 966 
Q 3022 478 2636 193 
Q 2250 -91 1575 -91 
Q 1294 -91 989 -36 
Q 684 19 347 128 
L 347 722 
Q 666 556 975 473 
Q 1284 391 1588 391 
Q 1994 391 2212 530 
Q 2431 669 2431 922 
Q 2431 1156 2273 1281 
Q 2116 1406 1581 1522 
L 1381 1569 
Q 847 1681 609 1914 
Q 372 2147 372 2553 
Q 372 3047 722 3315 
Q 1072 3584 1716 3584 
Q 2034 3584 2315 3537 
Q 2597 3491 2834 3397 
z
" transform="scale(0.015625)"/>
       <path id="DejaVuSans-74" d="M 1172 4494 
L 1172 3500 
L 2356 3500 
L 2356 3053 
L 1172 3053 
L 1172 1153 
Q 1172 725 1289 603 
Q 1406 481 1766 481 
L 2356 481 
L 2356 0 
L 1766 0 
Q 1100 0 847 248 
Q 594 497 594 1153 
L 594 3053 
L 172 3053 
L 172 3500 
L 594 3500 
L 594 4494 
L 1172 4494 
z
" transform="scale(0.015625)"/>
       <path id="DejaVuSans-61" d="M 2194 1759 
Q 1497 1759 1228 1600 
Q 959 1441 959 1056 
Q 959 750 1161 570 
Q 1363 391 1709 391 
Q 2188 391 2477 730 
Q 2766 1069 2766 1631 
L 2766 1759 
L 2194 1759 
z
M 3341 1997 
L 3341 0 
L 2766 0 
L 2766 531 
Q 2569 213 2275 61 
Q 1981 -91 1556 -91 
Q 1019 -91 701 211 
Q 384 513 384 1019 
Q 384 1609 779 1909 
Q 1175 2209 1959 2209 
L 2766 2209 
L 2766 2266 
Q 2766 2663 2505 2880 
Q 2244 3097 1772 3097 
Q 1472 3097 1187 3025 
Q 903 2953 641 2809 
L 641 3341 
Q 956 3463 1253 3523 
Q 1550 3584 1831 3584 
Q 2591 3584 2966 3190 
Q 3341 2797 3341 1997 
z
" transform="scale(0.015625)"/>
       <path id="DejaVuSans-64" d="M 2906 2969 
L 2906 4863 
L 3481 4863 
L 3481 0 
L 2906 0 
L 2906 525 
Q 2725 213 2448 61 
Q 2172 -91 1784 -91 
Q 1150 -91 751 415 
Q 353 922 353 1747 
Q 353 2572 751 3078 
Q 1150 3584 1784 3584 
Q 2172 3584 2448 3432 
Q 2725 3281 2906 2969 
z
M 947 1747 
Q 947 1113 1208 752 
Q 1469 391 1925 391 
Q 2381 391 2643 752 
Q 2906 1113 2906 1747 
Q 2906 2381 2643 2742 
Q 2381 3103 1925 3103 
Q 1469 3103 1208 2742 
Q 947 2381 947 1747 
z
" transform="scale(0.015625)"/>
       <path id="DejaVuSans-ed" d="M 1322 5119 
L 1944 5119 
L 926 3944 
L 447 3944 
L 1322 5119 
z
M 603 3500 
L 1178 3500 
L 1178 0 
L 603 0 
L 603 3500 
z
M 891 3584 
L 891 3584 
z
" transform="scale(0.015625)"/>
       <path id="DejaVuSans-69" d="M 603 3500 
L 1178 3500 
L 1178 0 
L 603 0 
L 603 3500 
z
M 603 4863 
L 1178 4863 
L 1178 4134 
L 603 4134 
L 603 4863 
z
" transform="scale(0.015625)"/>
       <path id="DejaVuSans-63" d="M 3122 3366 
L 3122 2828 
Q 2878 2963 2633 3030 
Q 2388 3097 2138 3097 
Q 1578 3097 1268 2742 
Q 959 2388 959 1747 
Q 959 1106 1268 751 
Q 1578 397 2138 397 
Q 2388 397 2633 464 
Q 2878 531 3122 666 
L 3122 134 
Q 2881 22 2623 -34 
Q 2366 -91 2075 -91 
Q 1284 -91 818 406 
Q 353 903 353 1747 
Q 353 2603 823 3093 
Q 1294 3584 2113 3584 
Q 2378 3584 2631 3529 
Q 2884 3475 3122 3366 
z
" transform="scale(0.015625)"/>
       <path id="DejaVuSans-6f" d="M 1959 3097 
Q 1497 3097 1228 2736 
Q 959 2375 959 1747 
Q 959 1119 1226 758 
Q 1494 397 1959 397 
Q 2419 397 2687 759 
Q 2956 1122 2956 1747 
Q 2956 2369 2687 2733 
Q 2419 3097 1959 3097 
z
M 1959 3584 
Q 2709 3584 3137 3096 
Q 3566 2609 3566 1747 
Q 3566 888 3137 398 
Q 2709 -91 1959 -91 
Q 1206 -91 779 398 
Q 353 888 353 1747 
Q 353 2609 779 3096 
Q 1206 3584 1959 3584 
z
" transform="scale(0.015625)"/>
       <path id="DejaVuSans-20" transform="scale(0.015625)"/>
       <path id="DejaVuSans-57" d="M 213 4666 
L 850 4666 
L 1831 722 
L 2809 4666 
L 3519 4666 
L 4500 722 
L 5478 4666 
L 6119 4666 
L 4947 0 
L 4153 0 
L 3169 4050 
L 2175 0 
L 1381 0 
L 213 4666 
z
" transform="scale(0.015625)"/>
      </defs>
      <use xlink:href="#DejaVuSans-45"/>
      <use xlink:href="#DejaVuSans-73" transform="translate(63.183594 0)"/>
      <use xlink:href="#DejaVuSans-74" transform="translate(115.283203 0)"/>
      <use xlink:href="#DejaVuSans-61" transform="translate(154.492188 0)"/>
      <use xlink:href="#DejaVuSans-64" transform="translate(215.771484 0)"/>
      <use xlink:href="#DejaVuSans-ed" transform="translate(279.248047 0)"/>
      <use xlink:href="#DejaVuSans-73" transform="translate(307.03125 0)"/>
      <use xlink:href="#DejaVuSans-74" transform="translate(359.130859 0)"/>
      <use xlink:href="#DejaVuSans-69" transform="translate(398.339844 0)"/>
      <use xlink:href="#DejaVuSans-63" transform="translate(426.123047 0)"/>
      <use xlink:href="#DejaVuSans-6f" transform="translate(481.103516 0)"/>
      <use xlink:href="#DejaVuSans-20" transform="translate(542.285156 0)"/>
      <use xlink:href="#DejaVuSans-57" transform="translate(574.072266 0)"/>
     </g>
    </g>
   </g>
   <g id="matplotlib.axis_2">
    <g id="ytick_1">
     <g id="line2d_7">
      <defs>
       <path id="mdd0de61056" d="M 0 0 
L -3.5 0 
" style="stroke: #000000; stroke-width: 0.8"/>
      </defs>
      <g>
       <use xlink:href="#mdd0de61056" x="60.32" y="246.04" style="stroke: #000000; stroke-width: 0.8"/>
      </g>
     </g>
     <g id="text_8">
      <!-- 0.000 -->
      <g transform="translate(24.691875 249.839219) scale(0.1 -0.1)">
       <defs>
        <path id="DejaVuSans-2e" d="M 684 794 
L 1344 794 
L 1344 0 
L 684 0 
L 684 794 
z
" transform="scale(0.015625)"/>
       </defs>
       <use xlink:href="#DejaVuSans-30"/>
       <use xlink:href="#DejaVuSans-2e" transform="translate(63.623047 0)"/>
       <use xlink:href="#DejaVuSans-30" transform="translate(95.410156 0)"/>
       <use xlink:href="#DejaVuSans-30" transform="translate(159.033203 0)"/>
       <use xlink:href="#DejaVuSans-30" transform="translate(222.65625 0)"/>
      </g>
     </g>
    </g>
    <g id="ytick_2">
     <g id="line2d_8">
      <g>
       <use xlink:href="#mdd0de61056" x="60.32" y="202.945012" style="stroke: #000000; stroke-width: 0.8"/>
      </g>
     </g>
     <g id="text_9">
      <!-- 0.002 -->
      <g transform="translate(24.691875 206.744231) scale(0.1 -0.1)">
       <use xlink:href="#DejaVuSans-30"/>
       <use xlink:href="#DejaVuSans-2e" transform="translate(63.623047 0)"/>
       <use xlink:href="#DejaVuSans-30" transform="translate(95.410156 0)"/>
       <use xlink:href="#DejaVuSans-30" transform="translate(159.033203 0)"/>
       <use xlink:href="#DejaVuSans-32" transform="translate(222.65625 0)"/>
      </g>
     </g>
    </g>
    <g id="ytick_3">
     <g id="line2d_9">
      <g>
       <use xlink:href="#mdd0de61056" x="60.32" y="159.850024" style="stroke: #000000; stroke-width: 0.8"/>
      </g>
     </g>
     <g id="text_10">
      <!-- 0.004 -->
      <g transform="translate(24.691875 163.649243) scale(0.1 -0.1)">
       <use xlink:href="#DejaVuSans-30"/>
       <use xlink:href="#DejaVuSans-2e" transform="translate(63.623047 0)"/>
       <use xlink:href="#DejaVuSans-30" transform="translate(95.410156 0)"/>
       <use xlink:href="#DejaVuSans-30" transform="translate(159.033203 0)"/>
       <use xlink:href="#DejaVuSans-34" transform="translate(222.65625 0)"/>
      </g>
     </g>
    </g>
    <g id="ytick_4">
     <g id="line2d_10">
      <g>
       <use xlink:href="#mdd0de61056" x="60.32" y="116.755036" style="stroke: #000000; stroke-width: 0.8"/>
      </g>
     </g>
     <g id="text_11">
      <!-- 0.006 -->
      <g transform="translate(24.691875 120.554255) scale(0.1 -0.1)">
       <defs>
        <path id="DejaVuSans-36" d="M 2113 2584 
Q 1688 2584 1439 2293 
Q 1191 2003 1191 1497 
Q 1191 994 1439 701 
Q 1688 409 2113 409 
Q 2538 409 2786 701 
Q 3034 994 3034 1497 
Q 3034 2003 2786 2293 
Q 2538 2584 2113 2584 
z
M 3366 4563 
L 3366 3988 
Q 3128 4100 2886 4159 
Q 2644 4219 2406 4219 
Q 1781 4219 1451 3797 
Q 1122 3375 1075 2522 
Q 1259 2794 1537 2939 
Q 1816 3084 2150 3084 
Q 2853 3084 3261 2657 
Q 3669 2231 3669 1497 
Q 3669 778 3244 343 
Q 2819 -91 2113 -91 
Q 1303 -91 875 529 
Q 447 1150 447 2328 
Q 447 3434 972 4092 
Q 1497 4750 2381 4750 
Q 2619 4750 2861 4703 
Q 3103 4656 3366 4563 
z
" transform="scale(0.015625)"/>
       </defs>
       <use xlink:href="#DejaVuSans-30"/>
       <use xlink:href="#DejaVuSans-2e" transform="translate(63.623047 0)"/>
       <use xlink:href="#DejaVuSans-30" transform="translate(95.410156 0)"/>
       <use xlink:href="#DejaVuSans-30" transform="translate(159.033203 0)"/>
       <use xlink:href="#DejaVuSans-36" transform="translate(222.65625 0)"/>
      </g>
     </g>
    </g>
    <g id="ytick_5">
     <g id="line2d_11">
      <g>
       <use xlink:href="#mdd0de61056" x="60.32" y="73.660048" style="stroke: #000000; stroke-width: 0.8"/>
      </g>
     </g>
     <g id="text_12">
      <!-- 0.008 -->
      <g transform="translate(24.691875 77.459266) scale(0.1 -0.1)">
       <defs>
        <path id="DejaVuSans-38" d="M 2034 2216 
Q 1584 2216 1326 1975 
Q 1069 1734 1069 1313 
Q 1069 891 1326 650 
Q 1584 409 2034 409 
Q 2484 409 2743 651 
Q 3003 894 3003 1313 
Q 3003 1734 2745 1975 
Q 2488 2216 2034 2216 
z
M 1403 2484 
Q 997 2584 770 2862 
Q 544 3141 544 3541 
Q 544 4100 942 4425 
Q 1341 4750 2034 4750 
Q 2731 4750 3128 4425 
Q 3525 4100 3525 3541 
Q 3525 3141 3298 2862 
Q 3072 2584 2669 2484 
Q 3125 2378 3379 2068 
Q 3634 1759 3634 1313 
Q 3634 634 3220 271 
Q 2806 -91 2034 -91 
Q 1263 -91 848 271 
Q 434 634 434 1313 
Q 434 1759 690 2068 
Q 947 2378 1403 2484 
z
M 1172 3481 
Q 1172 3119 1398 2916 
Q 1625 2713 2034 2713 
Q 2441 2713 2670 2916 
Q 2900 3119 2900 3481 
Q 2900 3844 2670 4047 
Q 2441 4250 2034 4250 
Q 1625 4250 1398 4047 
Q 1172 3844 1172 3481 
z
" transform="scale(0.015625)"/>
       </defs>
       <use xlink:href="#DejaVuSans-30"/>
       <use xlink:href="#DejaVuSans-2e" transform="translate(63.623047 0)"/>
       <use xlink:href="#DejaVuSans-30" transform="translate(95.410156 0)"/>
       <use xlink:href="#DejaVuSans-30" transform="translate(159.033203 0)"/>
       <use xlink:href="#DejaVuSans-38" transform="translate(222.65625 0)"/>
      </g>
     </g>
    </g>
    <g id="text_13">
     <!-- Probabilidad (aprox.) -->
     <g transform="translate(18.612188 197.577312) rotate(-90) scale(0.1 -0.1)">
      <defs>
       <path id="DejaVuSans-50" d="M 1259 4147 
L 1259 2394 
L 2053 2394 
Q 2494 2394 2734 2622 
Q 2975 2850 2975 3272 
Q 2975 3691 2734 3919 
Q 2494 4147 2053 4147 
L 1259 4147 
z
M 628 4666 
L 2053 4666 
Q 2838 4666 3239 4311 
Q 3641 3956 3641 3272 
Q 3641 2581 3239 2228 
Q 2838 1875 2053 1875 
L 1259 1875 
L 1259 0 
L 628 0 
L 628 4666 
z
" transform="scale(0.015625)"/>
       <path id="DejaVuSans-72" d="M 2631 2963 
Q 2534 3019 2420 3045 
Q 2306 3072 2169 3072 
Q 1681 3072 1420 2755 
Q 1159 2438 1159 1844 
L 1159 0 
L 581 0 
L 581 3500 
L 1159 3500 
L 1159 2956 
Q 1341 3275 1631 3429 
Q 1922 3584 2338 3584 
Q 2397 3584 2469 3576 
Q 2541 3569 2628 3553 
L 2631 2963 
z
" transform="scale(0.015625)"/>
       <path id="DejaVuSans-62" d="M 3116 1747 
Q 3116 2381 2855 2742 
Q 2594 3103 2138 3103 
Q 1681 3103 1420 2742 
Q 1159 2381 1159 1747 
Q 1159 1113 1420 752 
Q 1681 391 2138 391 
Q 2594 391 2855 752 
Q 3116 1113 3116 1747 
z
M 1159 2969 
Q 1341 3281 1617 3432 
Q 1894 3584 2278 3584 
Q 2916 3584 3314 3078 
Q 3713 2572 3713 1747 
Q 3713 922 3314 415 
Q 2916 -91 2278 -91 
Q 1894 -91 1617 61 
Q 1341 213 1159 525 
L 1159 0 
L 581 0 
L 581 4863 
L 1159 4863 
L 1159 2969 
z
" transform="scale(0.015625)"/>
       <path id="DejaVuSans-6c" d="M 603 4863 
L 1178 4863 
L 1178 0 
L 603 0 
L 603 4863 
z
" transform="scale(0.015625)"/>
       <path id="DejaVuSans-28" d="M 1984 4856 
Q 1566 4138 1362 3434 
Q 1159 2731 1159 2009 
Q 1159 1288 1364 580 
Q 1569 -128 1984 -844 
L 1484 -844 
Q 1016 -109 783 600 
Q 550 1309 550 2009 
Q 550 2706 781 3412 
Q 1013 4119 1484 4856 
L 1984 4856 
z
" transform="scale(0.015625)"/>
       <path id="DejaVuSans-70" d="M 1159 525 
L 1159 -1331 
L 581 -1331 
L 581 3500 
L 1159 3500 
L 1159 2969 
Q 1341 3281 1617 3432 
Q 1894 3584 2278 3584 
Q 2916 3584 3314 3078 
Q 3713 2572 3713 1747 
Q 3713 922 3314 415 
Q 2916 -91 2278 -91 
Q 1894 -91 1617 61 
Q 1341 213 1159 525 
z
M 3116 1747 
Q 3116 2381 2855 2742 
Q 2594 3103 2138 3103 
Q 1681 3103 1420 2742 
Q 1159 2381 1159 1747 
Q 1159 1113 1420 752 
Q 1681 391 2138 391 
Q 2594 391 2855 752 
Q 3116 1113 3116 1747 
z
" transform="scale(0.015625)"/>
       <path id="DejaVuSans-78" d="M 3513 3500 
L 2247 1797 
L 3578 0 
L 2900 0 
L 1881 1375 
L 863 0 
L 184 0 
L 1544 1831 
L 300 3500 
L 978 3500 
L 1906 2253 
L 2834 3500 
L 3513 3500 
z
" transform="scale(0.015625)"/>
       <path id="DejaVuSans-29" d="M 513 4856 
L 1013 4856 
Q 1481 4119 1714 3412 
Q 1947 2706 1947 2009 
Q 1947 1309 1714 600 
Q 1481 -109 1013 -844 
L 513 -844 
Q 928 -128 1133 580 
Q 1338 1288 1338 2009 
Q 1338 2731 1133 3434 
Q 928 4138 513 4856 
z
" transform="scale(0.015625)"/>
      </defs>
      <use xlink:href="#DejaVuSans-50"/>
      <use xlink:href="#DejaVuSans-72" transform="translate(58.552734 0)"/>
      <use xlink:href="#DejaVuSans-6f" transform="translate(97.416016 0)"/>
      <use xlink:href="#DejaVuSans-62" transform="translate(158.597656 0)"/>
      <use xlink:href="#DejaVuSans-61" transform="translate(222.074219 0)"/>
      <use xlink:href="#DejaVuSans-62" transform="translate(283.353516 0)"/>
      <use xlink:href="#DejaVuSans-69" transform="translate(346.830078 0)"/>
      <use xlink:href="#DejaVuSans-6c" transform="translate(374.613281 0)"/>
      <use xlink:href="#DejaVuSans-69" transform="translate(402.396484 0)"/>
      <use xlink:href="#DejaVuSans-64" transform="translate(430.179688 0)"/>
      <use xlink:href="#DejaVuSans-61" transform="translate(493.65625 0)"/>
      <use xlink:href="#DejaVuSans-64" transform="translate(554.935547 0)"/>
      <use xlink:href="#DejaVuSans-20" transform="translate(618.412109 0)"/>
      <use xlink:href="#DejaVuSans-28" transform="translate(650.199219 0)"/>
      <use xlink:href="#DejaVuSans-61" transform="translate(689.212891 0)"/>
      <use xlink:href="#DejaVuSans-70" transform="translate(750.492188 0)"/>
      <use xlink:href="#DejaVuSans-72" transform="translate(813.96875 0)"/>
      <use xlink:href="#DejaVuSans-6f" transform="translate(852.832031 0)"/>
      <use xlink:href="#DejaVuSans-78" transform="translate(910.888672 0)"/>
      <use xlink:href="#DejaVuSans-2e" transform="translate(970.068359 0)"/>
      <use xlink:href="#DejaVuSans-29" transform="translate(1001.855469 0)"/>
     </g>
    </g>
   </g>
   <g id="line2d_12">
    <path d="M 60.32 245.674757 
L 99.234675 245.300074 
L 129.052412 244.801255 
L 153.816296 244.171479 
L 175.042482 243.414538 
L 193.741742 242.530289 
L 210.419459 241.526623 
L 225.581021 240.401313 
L 239.731812 239.135142 
L 252.871832 237.743433 
L 265.506466 236.181632 
L 277.13033 234.527053 
L 288.248809 232.727366 
L 298.861902 230.791724 
L 308.96961 228.732607 
L 319.077317 226.445598 
L 328.67964 224.045775 
L 338.281962 221.408946 
L 347.378899 218.6782 
L 356.475836 215.707602 
L 365.067387 212.670013 
L 373.658939 209.395995 
L 382.25049 205.875031 
L 390.336657 202.326543 
L 398.422823 198.542353 
L 406.508989 194.514969 
L 414.595155 190.2375 
L 422.681321 185.703757 
L 430.767487 180.908346 
L 438.853654 175.84678 
L 446.93982 170.51557 
L 455.025986 164.912337 
L 463.112152 159.035904 
L 471.198318 152.886397 
L 479.284484 146.465338 
L 487.876036 139.348813 
L 496.467588 131.93469 
L 505.059139 124.230611 
L 514.156076 115.768265 
L 523.253013 107.006308 
L 532.855335 97.451728 
L 542.963043 87.08091 
L 554.081522 75.339985 
L 565.2 63.298182 
L 565.2 63.298182 
" clip-path="url(#p893abab953)" style="fill: none; stroke: #000000; stroke-width: 2; stroke-linecap: square"/>
   </g>
   <g id="line2d_13">
    <path d="M 312.76 246.04 
L 312.76 45.024 
" clip-path="url(#p893abab953)" style="fill: none; stroke-dasharray: 7.4,3.2; stroke-dashoffset: 0; stroke: #ff0000; stroke-width: 2"/>
   </g>
   <g id="line2d_14">
    <path d="M 182.187586 246.04 
L 182.187586 45.024 
" clip-path="url(#p893abab953)" style="fill: none; stroke: #0000ff; stroke-width: 2; stroke-linecap: square"/>
   </g>
   <g id="patch_3">
    <path d="M 60.32 246.04 
L 60.32 45.024 
" style="fill: none; stroke: #000000; stroke-width: 0.8; stroke-linejoin: miter; stroke-linecap: square"/>
   </g>
   <g id="patch_4">
    <path d="M 565.2 246.04 
L 565.2 45.024 
" style="fill: none; stroke: #000000; stroke-width: 0.8; stroke-linejoin: miter; stroke-linecap: square"/>
   </g>
   <g id="patch_5">
    <path d="M 60.32 246.04 
L 565.2 246.04 
" style="fill: none; stroke: #000000; stroke-width: 0.8; stroke-linejoin: miter; stroke-linecap: square"/>
   </g>
   <g id="patch_6">
    <path d="M 60.32 45.024 
L 565.2 45.024 
" style="fill: none; stroke: #000000; stroke-width: 0.8; stroke-linejoin: miter; stroke-linecap: square"/>
   </g>
   <g id="text_14">
    <!-- Wc = 29 -->
    <g style="fill: #ff0000" transform="translate(326.230539 99.846545) rotate(-90) scale(0.12 -0.12)">
     <defs>
      <path id="DejaVuSans-3d" d="M 678 2906 
L 4684 2906 
L 4684 2381 
L 678 2381 
L 678 2906 
z
M 678 1631 
L 4684 1631 
L 4684 1100 
L 678 1100 
L 678 1631 
z
" transform="scale(0.015625)"/>
      <path id="DejaVuSans-39" d="M 703 97 
L 703 672 
Q 941 559 1184 500 
Q 1428 441 1663 441 
Q 2288 441 2617 861 
Q 2947 1281 2994 2138 
Q 2813 1869 2534 1725 
Q 2256 1581 1919 1581 
Q 1219 1581 811 2004 
Q 403 2428 403 3163 
Q 403 3881 828 4315 
Q 1253 4750 1959 4750 
Q 2769 4750 3195 4129 
Q 3622 3509 3622 2328 
Q 3622 1225 3098 567 
Q 2575 -91 1691 -91 
Q 1453 -91 1209 -44 
Q 966 3 703 97 
z
M 1959 2075 
Q 2384 2075 2632 2365 
Q 2881 2656 2881 3163 
Q 2881 3666 2632 3958 
Q 2384 4250 1959 4250 
Q 1534 4250 1286 3958 
Q 1038 3666 1038 3163 
Q 1038 2656 1286 2365 
Q 1534 2075 1959 2075 
z
" transform="scale(0.015625)"/>
     </defs>
     <use xlink:href="#DejaVuSans-57"/>
     <use xlink:href="#DejaVuSans-63" transform="translate(98.876953 0)"/>
     <use xlink:href="#DejaVuSans-20" transform="translate(153.857422 0)"/>
     <use xlink:href="#DejaVuSans-3d" transform="translate(185.644531 0)"/>
     <use xlink:href="#DejaVuSans-20" transform="translate(269.433594 0)"/>
     <use xlink:href="#DejaVuSans-32" transform="translate(301.220703 0)"/>
     <use xlink:href="#DejaVuSans-39" transform="translate(364.84375 0)"/>
    </g>
   </g>
   <g id="text_15">
    <!-- W = 14 -->
    <g style="fill: #0000ff" transform="translate(195.658125 136.394909) rotate(-90) scale(0.12 -0.12)">
     <use xlink:href="#DejaVuSans-57"/>
     <use xlink:href="#DejaVuSans-20" transform="translate(98.876953 0)"/>
     <use xlink:href="#DejaVuSans-3d" transform="translate(130.664062 0)"/>
     <use xlink:href="#DejaVuSans-20" transform="translate(214.453125 0)"/>
     <use xlink:href="#DejaVuSans-31" transform="translate(246.240234 0)"/>
     <use xlink:href="#DejaVuSans-34" transform="translate(309.863281 0)"/>
    </g>
   </g>
   <g id="text_16">
    <!-- Prueba de Wilcoxon - Nivel Medio -->
    <g transform="translate(187.768984 22.227281) scale(0.15 -0.15)">
     <defs>
      <path id="DejaVuSans-75" d="M 544 1381 
L 544 3500 
L 1119 3500 
L 1119 1403 
Q 1119 906 1312 657 
Q 1506 409 1894 409 
Q 2359 409 2629 706 
Q 2900 1003 2900 1516 
L 2900 3500 
L 3475 3500 
L 3475 0 
L 2900 0 
L 2900 538 
Q 2691 219 2414 64 
Q 2138 -91 1772 -91 
Q 1169 -91 856 284 
Q 544 659 544 1381 
z
M 1991 3584 
L 1991 3584 
z
" transform="scale(0.015625)"/>
      <path id="DejaVuSans-65" d="M 3597 1894 
L 3597 1613 
L 953 1613 
Q 991 1019 1311 708 
Q 1631 397 2203 397 
Q 2534 397 2845 478 
Q 3156 559 3463 722 
L 3463 178 
Q 3153 47 2828 -22 
Q 2503 -91 2169 -91 
Q 1331 -91 842 396 
Q 353 884 353 1716 
Q 353 2575 817 3079 
Q 1281 3584 2069 3584 
Q 2775 3584 3186 3129 
Q 3597 2675 3597 1894 
z
M 3022 2063 
Q 3016 2534 2758 2815 
Q 2500 3097 2075 3097 
Q 1594 3097 1305 2825 
Q 1016 2553 972 2059 
L 3022 2063 
z
" transform="scale(0.015625)"/>
      <path id="DejaVuSans-6e" d="M 3513 2113 
L 3513 0 
L 2938 0 
L 2938 2094 
Q 2938 2591 2744 2837 
Q 2550 3084 2163 3084 
Q 1697 3084 1428 2787 
Q 1159 2491 1159 1978 
L 1159 0 
L 581 0 
L 581 3500 
L 1159 3500 
L 1159 2956 
Q 1366 3272 1645 3428 
Q 1925 3584 2291 3584 
Q 2894 3584 3203 3211 
Q 3513 2838 3513 2113 
z
" transform="scale(0.015625)"/>
      <path id="DejaVuSans-2d" d="M 313 2009 
L 1997 2009 
L 1997 1497 
L 313 1497 
L 313 2009 
z
" transform="scale(0.015625)"/>
      <path id="DejaVuSans-4e" d="M 628 4666 
L 1478 4666 
L 3547 763 
L 3547 4666 
L 4159 4666 
L 4159 0 
L 3309 0 
L 1241 3903 
L 1241 0 
L 628 0 
L 628 4666 
z
" transform="scale(0.015625)"/>
      <path id="DejaVuSans-76" d="M 191 3500 
L 800 3500 
L 1894 563 
L 2988 3500 
L 3597 3500 
L 2284 0 
L 1503 0 
L 191 3500 
z
" transform="scale(0.015625)"/>
      <path id="DejaVuSans-4d" d="M 628 4666 
L 1569 4666 
L 2759 1491 
L 3956 4666 
L 4897 4666 
L 4897 0 
L 4281 0 
L 4281 4097 
L 3078 897 
L 2444 897 
L 1241 4097 
L 1241 0 
L 628 0 
L 628 4666 
z
" transform="scale(0.015625)"/>
     </defs>
     <use xlink:href="#DejaVuSans-50"/>
     <use xlink:href="#DejaVuSans-72" transform="translate(58.552734 0)"/>
     <use xlink:href="#DejaVuSans-75" transform="translate(99.666016 0)"/>
     <use xlink:href="#DejaVuSans-65" transform="translate(163.044922 0)"/>
     <use xlink:href="#DejaVuSans-62" transform="translate(224.568359 0)"/>
     <use xlink:href="#DejaVuSans-61" transform="translate(288.044922 0)"/>
     <use xlink:href="#DejaVuSans-20" transform="translate(349.324219 0)"/>
     <use xlink:href="#DejaVuSans-64" transform="translate(381.111328 0)"/>
     <use xlink:href="#DejaVuSans-65" transform="translate(444.587891 0)"/>
     <use xlink:href="#DejaVuSans-20" transform="translate(506.111328 0)"/>
     <use xlink:href="#DejaVuSans-57" transform="translate(537.898438 0)"/>
     <use xlink:href="#DejaVuSans-69" transform="translate(634.525391 0)"/>
     <use xlink:href="#DejaVuSans-6c" transform="translate(662.308594 0)"/>
     <use xlink:href="#DejaVuSans-63" transform="translate(690.091797 0)"/>
     <use xlink:href="#DejaVuSans-6f" transform="translate(745.072266 0)"/>
     <use xlink:href="#DejaVuSans-78" transform="translate(803.128906 0)"/>
     <use xlink:href="#DejaVuSans-6f" transform="translate(859.183594 0)"/>
     <use xlink:href="#DejaVuSans-6e" transform="translate(920.365234 0)"/>
     <use xlink:href="#DejaVuSans-20" transform="translate(983.744141 0)"/>
     <use xlink:href="#DejaVuSans-2d" transform="translate(1015.53125 0)"/>
     <use xlink:href="#DejaVuSans-20" transform="translate(1051.615234 0)"/>
     <use xlink:href="#DejaVuSans-4e" transform="translate(1083.402344 0)"/>
     <use xlink:href="#DejaVuSans-69" transform="translate(1158.207031 0)"/>
     <use xlink:href="#DejaVuSans-76" transform="translate(1185.990234 0)"/>
     <use xlink:href="#DejaVuSans-65" transform="translate(1245.169922 0)"/>
     <use xlink:href="#DejaVuSans-6c" transform="translate(1306.693359 0)"/>
     <use xlink:href="#DejaVuSans-20" transform="translate(1334.476562 0)"/>
     <use xlink:href="#DejaVuSans-4d" transform="translate(1366.263672 0)"/>
     <use xlink:href="#DejaVuSans-65" transform="translate(1452.542969 0)"/>
     <use xlink:href="#DejaVuSans-64" transform="translate(1514.066406 0)"/>
     <use xlink:href="#DejaVuSans-69" transform="translate(1577.542969 0)"/>
     <use xlink:href="#DejaVuSans-6f" transform="translate(1605.326172 0)"/>
    </g>
    <!-- (n=18, p=0.00597) -->
    <g transform="translate(239.497891 39.024) scale(0.15 -0.15)">
     <defs>
      <path id="DejaVuSans-2c" d="M 750 794 
L 1409 794 
L 1409 256 
L 897 -744 
L 494 -744 
L 750 256 
L 750 794 
z
" transform="scale(0.015625)"/>
      <path id="DejaVuSans-37" d="M 525 4666 
L 3525 4666 
L 3525 4397 
L 1831 0 
L 1172 0 
L 2766 4134 
L 525 4134 
L 525 4666 
z
" transform="scale(0.015625)"/>
     </defs>
     <use xlink:href="#DejaVuSans-28"/>
     <use xlink:href="#DejaVuSans-6e" transform="translate(39.013672 0)"/>
     <use xlink:href="#DejaVuSans-3d" transform="translate(102.392578 0)"/>
     <use xlink:href="#DejaVuSans-31" transform="translate(186.181641 0)"/>
     <use xlink:href="#DejaVuSans-38" transform="translate(249.804688 0)"/>
     <use xlink:href="#DejaVuSans-2c" transform="translate(313.427734 0)"/>
     <use xlink:href="#DejaVuSans-20" transform="translate(345.214844 0)"/>
     <use xlink:href="#DejaVuSans-70" transform="translate(377.001953 0)"/>
     <use xlink:href="#DejaVuSans-3d" transform="translate(440.478516 0)"/>
     <use xlink:href="#DejaVuSans-30" transform="translate(524.267578 0)"/>
     <use xlink:href="#DejaVuSans-2e" transform="translate(587.890625 0)"/>
     <use xlink:href="#DejaVuSans-30" transform="translate(619.677734 0)"/>
     <use xlink:href="#DejaVuSans-30" transform="translate(683.300781 0)"/>
     <use xlink:href="#DejaVuSans-35" transform="translate(746.923828 0)"/>
     <use xlink:href="#DejaVuSans-39" transform="translate(810.546875 0)"/>
     <use xlink:href="#DejaVuSans-37" transform="translate(874.169922 0)"/>
     <use xlink:href="#DejaVuSans-29" transform="translate(937.792969 0)"/>
    </g>
   </g>
   <g id="legend_1">
    <g id="patch_7">
     <path d="M 376.273437 127.214625 
L 558.2 127.214625 
Q 560.2 127.214625 560.2 125.214625 
L 560.2 52.024 
Q 560.2 50.024 558.2 50.024 
L 376.273437 50.024 
Q 374.273437 50.024 374.273437 52.024 
L 374.273437 125.214625 
Q 374.273437 127.214625 376.273437 127.214625 
z
" style="fill: #ffffff; opacity: 0.8; stroke: #cccccc; stroke-linejoin: miter"/>
    </g>
    <g id="patch_8">
     <path d="M 378.273437 61.622437 
L 398.273437 61.622437 
L 398.273437 54.622437 
L 378.273437 54.622437 
z
" style="fill: #ffcccc; stroke: #ffcccc; stroke-linejoin: miter"/>
    </g>
    <g id="text_17">
     <!-- Zona de rechazo -->
     <g transform="translate(406.273437 61.622437) scale(0.1 -0.1)">
      <defs>
       <path id="DejaVuSans-5a" d="M 359 4666 
L 4025 4666 
L 4025 4184 
L 1075 531 
L 4097 531 
L 4097 0 
L 288 0 
L 288 481 
L 3238 4134 
L 359 4134 
L 359 4666 
z
" transform="scale(0.015625)"/>
       <path id="DejaVuSans-68" d="M 3513 2113 
L 3513 0 
L 2938 0 
L 2938 2094 
Q 2938 2591 2744 2837 
Q 2550 3084 2163 3084 
Q 1697 3084 1428 2787 
Q 1159 2491 1159 1978 
L 1159 0 
L 581 0 
L 581 4863 
L 1159 4863 
L 1159 2956 
Q 1366 3272 1645 3428 
Q 1925 3584 2291 3584 
Q 2894 3584 3203 3211 
Q 3513 2838 3513 2113 
z
" transform="scale(0.015625)"/>
       <path id="DejaVuSans-7a" d="M 353 3500 
L 3084 3500 
L 3084 2975 
L 922 459 
L 3084 459 
L 3084 0 
L 275 0 
L 275 525 
L 2438 3041 
L 353 3041 
L 353 3500 
z
" transform="scale(0.015625)"/>
      </defs>
      <use xlink:href="#DejaVuSans-5a"/>
      <use xlink:href="#DejaVuSans-6f" transform="translate(68.505859 0)"/>
      <use xlink:href="#DejaVuSans-6e" transform="translate(129.6875 0)"/>
      <use xlink:href="#DejaVuSans-61" transform="translate(193.066406 0)"/>
      <use xlink:href="#DejaVuSans-20" transform="translate(254.345703 0)"/>
      <use xlink:href="#DejaVuSans-64" transform="translate(286.132812 0)"/>
      <use xlink:href="#DejaVuSans-65" transform="translate(349.609375 0)"/>
      <use xlink:href="#DejaVuSans-20" transform="translate(411.132812 0)"/>
      <use xlink:href="#DejaVuSans-72" transform="translate(442.919922 0)"/>
      <use xlink:href="#DejaVuSans-65" transform="translate(481.783203 0)"/>
      <use xlink:href="#DejaVuSans-63" transform="translate(543.306641 0)"/>
      <use xlink:href="#DejaVuSans-68" transform="translate(598.287109 0)"/>
      <use xlink:href="#DejaVuSans-61" transform="translate(661.666016 0)"/>
      <use xlink:href="#DejaVuSans-7a" transform="translate(722.945312 0)"/>
      <use xlink:href="#DejaVuSans-6f" transform="translate(775.435547 0)"/>
     </g>
    </g>
    <g id="patch_9">
     <path d="M 378.273437 76.700562 
L 398.273437 76.700562 
L 398.273437 69.700562 
L 378.273437 69.700562 
z
" style="fill: #ccffcc; stroke: #ccffcc; stroke-linejoin: miter"/>
    </g>
    <g id="text_18">
     <!-- Zona de aceptacin -->
     <g transform="translate(406.273437 76.700562) scale(0.1 -0.1)">
      <defs>
       <path id="DejaVuSans-f3" d="M 1959 3097 
Q 1497 3097 1228 2736 
Q 959 2375 959 1747 
Q 959 1119 1226 758 
Q 1494 397 1959 397 
Q 2419 397 2687 759 
Q 2956 1122 2956 1747 
Q 2956 2369 2687 2733 
Q 2419 3097 1959 3097 
z
M 1959 3584 
Q 2709 3584 3137 3096 
Q 3566 2609 3566 1747 
Q 3566 888 3137 398 
Q 2709 -91 1959 -91 
Q 1206 -91 779 398 
Q 353 888 353 1747 
Q 353 2609 779 3096 
Q 1206 3584 1959 3584 
z
M 2394 5119 
L 3016 5119 
L 1998 3944 
L 1519 3944 
L 2394 5119 
z
" transform="scale(0.015625)"/>
      </defs>
      <use xlink:href="#DejaVuSans-5a"/>
      <use xlink:href="#DejaVuSans-6f" transform="translate(68.505859 0)"/>
      <use xlink:href="#DejaVuSans-6e" transform="translate(129.6875 0)"/>
      <use xlink:href="#DejaVuSans-61" transform="translate(193.066406 0)"/>
      <use xlink:href="#DejaVuSans-20" transform="translate(254.345703 0)"/>
      <use xlink:href="#DejaVuSans-64" transform="translate(286.132812 0)"/>
      <use xlink:href="#DejaVuSans-65" transform="translate(349.609375 0)"/>
      <use xlink:href="#DejaVuSans-20" transform="translate(411.132812 0)"/>
      <use xlink:href="#DejaVuSans-61" transform="translate(442.919922 0)"/>
      <use xlink:href="#DejaVuSans-63" transform="translate(504.199219 0)"/>
      <use xlink:href="#DejaVuSans-65" transform="translate(559.179688 0)"/>
      <use xlink:href="#DejaVuSans-70" transform="translate(620.703125 0)"/>
      <use xlink:href="#DejaVuSans-74" transform="translate(684.179688 0)"/>
      <use xlink:href="#DejaVuSans-61" transform="translate(723.388672 0)"/>
      <use xlink:href="#DejaVuSans-63" transform="translate(784.667969 0)"/>
      <use xlink:href="#DejaVuSans-69" transform="translate(839.648438 0)"/>
      <use xlink:href="#DejaVuSans-f3" transform="translate(867.431641 0)"/>
      <use xlink:href="#DejaVuSans-6e" transform="translate(928.613281 0)"/>
     </g>
    </g>
    <g id="line2d_15">
     <path d="M 378.273437 88.278687 
L 388.273437 88.278687 
L 398.273437 88.278687 
" style="fill: none; stroke: #000000; stroke-width: 2; stroke-linecap: square"/>
    </g>
    <g id="text_19">
     <!-- Distribucin Wilcoxon (aprox.) -->
     <g transform="translate(406.273437 91.778687) scale(0.1 -0.1)">
      <defs>
       <path id="DejaVuSans-44" d="M 1259 4147 
L 1259 519 
L 2022 519 
Q 2988 519 3436 956 
Q 3884 1394 3884 2338 
Q 3884 3275 3436 3711 
Q 2988 4147 2022 4147 
L 1259 4147 
z
M 628 4666 
L 1925 4666 
Q 3281 4666 3915 4102 
Q 4550 3538 4550 2338 
Q 4550 1131 3912 565 
Q 3275 0 1925 0 
L 628 0 
L 628 4666 
z
" transform="scale(0.015625)"/>
      </defs>
      <use xlink:href="#DejaVuSans-44"/>
      <use xlink:href="#DejaVuSans-69" transform="translate(77.001953 0)"/>
      <use xlink:href="#DejaVuSans-73" transform="translate(104.785156 0)"/>
      <use xlink:href="#DejaVuSans-74" transform="translate(156.884766 0)"/>
      <use xlink:href="#DejaVuSans-72" transform="translate(196.09375 0)"/>
      <use xlink:href="#DejaVuSans-69" transform="translate(237.207031 0)"/>
      <use xlink:href="#DejaVuSans-62" transform="translate(264.990234 0)"/>
      <use xlink:href="#DejaVuSans-75" transform="translate(328.466797 0)"/>
      <use xlink:href="#DejaVuSans-63" transform="translate(391.845703 0)"/>
      <use xlink:href="#DejaVuSans-69" transform="translate(446.826172 0)"/>
      <use xlink:href="#DejaVuSans-f3" transform="translate(474.609375 0)"/>
      <use xlink:href="#DejaVuSans-6e" transform="translate(535.791016 0)"/>
      <use xlink:href="#DejaVuSans-20" transform="translate(599.169922 0)"/>
      <use xlink:href="#DejaVuSans-57" transform="translate(630.957031 0)"/>
      <use xlink:href="#DejaVuSans-69" transform="translate(727.583984 0)"/>
      <use xlink:href="#DejaVuSans-6c" transform="translate(755.367188 0)"/>
      <use xlink:href="#DejaVuSans-63" transform="translate(783.150391 0)"/>
      <use xlink:href="#DejaVuSans-6f" transform="translate(838.130859 0)"/>
      <use xlink:href="#DejaVuSans-78" transform="translate(896.1875 0)"/>
      <use xlink:href="#DejaVuSans-6f" transform="translate(952.242188 0)"/>
      <use xlink:href="#DejaVuSans-6e" transform="translate(1013.423828 0)"/>
      <use xlink:href="#DejaVuSans-20" transform="translate(1076.802734 0)"/>
      <use xlink:href="#DejaVuSans-28" transform="translate(1108.589844 0)"/>
      <use xlink:href="#DejaVuSans-61" transform="translate(1147.603516 0)"/>
      <use xlink:href="#DejaVuSans-70" transform="translate(1208.882812 0)"/>
      <use xlink:href="#DejaVuSans-72" transform="translate(1272.359375 0)"/>
      <use xlink:href="#DejaVuSans-6f" transform="translate(1311.222656 0)"/>
      <use xlink:href="#DejaVuSans-78" transform="translate(1369.279297 0)"/>
      <use xlink:href="#DejaVuSans-2e" transform="translate(1428.458984 0)"/>
      <use xlink:href="#DejaVuSans-29" transform="translate(1460.246094 0)"/>
     </g>
    </g>
    <g id="line2d_16">
     <path d="M 378.273437 102.956812 
L 388.273437 102.956812 
L 398.273437 102.956812 
" style="fill: none; stroke-dasharray: 7.4,3.2; stroke-dashoffset: 0; stroke: #ff0000; stroke-width: 2"/>
    </g>
    <g id="text_20">
     <!-- Wc = 29 -->
     <g transform="translate(406.273437 106.456812) scale(0.1 -0.1)">
      <use xlink:href="#DejaVuSans-57"/>
      <use xlink:href="#DejaVuSans-63" transform="translate(98.876953 0)"/>
      <use xlink:href="#DejaVuSans-20" transform="translate(153.857422 0)"/>
      <use xlink:href="#DejaVuSans-3d" transform="translate(185.644531 0)"/>
      <use xlink:href="#DejaVuSans-20" transform="translate(269.433594 0)"/>
      <use xlink:href="#DejaVuSans-32" transform="translate(301.220703 0)"/>
      <use xlink:href="#DejaVuSans-39" transform="translate(364.84375 0)"/>
     </g>
    </g>
    <g id="line2d_17">
     <path d="M 378.273437 117.634937 
L 388.273437 117.634937 
L 398.273437 117.634937 
" style="fill: none; stroke: #0000ff; stroke-width: 2; stroke-linecap: square"/>
    </g>
    <g id="text_21">
     <!-- W = 14 -->
     <g transform="translate(406.273437 121.134937) scale(0.1 -0.1)">
      <use xlink:href="#DejaVuSans-57"/>
      <use xlink:href="#DejaVuSans-20" transform="translate(98.876953 0)"/>
      <use xlink:href="#DejaVuSans-3d" transform="translate(130.664062 0)"/>
      <use xlink:href="#DejaVuSans-20" transform="translate(214.453125 0)"/>
      <use xlink:href="#DejaVuSans-31" transform="translate(246.240234 0)"/>
      <use xlink:href="#DejaVuSans-34" transform="translate(309.863281 0)"/>
     </g>
    </g>
   </g>
  </g>
 </g>
 <defs>
  <clipPath id="p893abab953">
   <rect x="60.32" y="45.024" width="504.88" height="201.016"/>
  </clipPath>
 </defs>
</svg>
